<svg xmlns="http://www.w3.org/2000/svg" viewBox="0 0 866 390" font-family="STIXGeneral, 'Times New Roman', Times, serif">
<defs><marker id="a" markerWidth="9" markerHeight="9" refX="7" refY="3" orient="auto"><path d="M0,0 L7,3 L0,6 Z" fill="#1a1a1a"/></marker></defs>
<rect width="866" height="390" fill="#ffffff"/>
<rect x="0.5" y="0.5" width="865" height="389" fill="none" stroke="#d9d9d9"/>
<text x="32" y="40" font-size="13" fill="#1a1a1a">graph of  f = tanh(a*b + c),  after f.backward()</text>
<line x1="204" y1="102" x2="242" y2="198" stroke="#1a1a1a" stroke-width="1.2" marker-end="url(#a)"/>
<line x1="204" y1="198" x2="242" y2="198" stroke="#1a1a1a" stroke-width="1.2" marker-end="url(#a)"/>
<line x1="414" y1="198" x2="452" y2="198" stroke="#1a1a1a" stroke-width="1.2" marker-end="url(#a)"/>
<line x1="204" y1="294" x2="452" y2="198" stroke="#1a1a1a" stroke-width="1.2" marker-end="url(#a)"/>
<line x1="624" y1="198" x2="662" y2="198" stroke="#1a1a1a" stroke-width="1.2" marker-end="url(#a)"/>
<rect x="32" y="70" width="172" height="64" rx="11" fill="#ffffff" stroke="#1a1a1a" stroke-width="1.6"/>
<text x="46" y="93" font-size="13" fill="#1a1a1a">input</text>
<text x="46" y="111" font-size="12" fill="#2b4f81" font-family="ui-monospace, Menlo, Consolas, monospace">value 2</text>
<text x="46" y="127" font-size="12" fill="#9e2b25" font-family="ui-monospace, Menlo, Consolas, monospace">grad -0.00402</text>
<rect x="32" y="166" width="172" height="64" rx="11" fill="#ffffff" stroke="#1a1a1a" stroke-width="1.6"/>
<text x="46" y="189" font-size="13" fill="#1a1a1a">input</text>
<text x="46" y="207" font-size="12" fill="#2b4f81" font-family="ui-monospace, Menlo, Consolas, monospace">value -3</text>
<text x="46" y="223" font-size="12" fill="#9e2b25" font-family="ui-monospace, Menlo, Consolas, monospace">grad 0.00268</text>
<rect x="242" y="166" width="172" height="64" rx="11" fill="#ffffff" stroke="#1a1a1a" stroke-width="1"/>
<text x="256" y="189" font-size="13" fill="#1a1a1a">*</text>
<text x="256" y="207" font-size="12" fill="#2b4f81" font-family="ui-monospace, Menlo, Consolas, monospace">value -6</text>
<text x="256" y="223" font-size="12" fill="#9e2b25" font-family="ui-monospace, Menlo, Consolas, monospace">grad 0.00134</text>
<rect x="32" y="262" width="172" height="64" rx="11" fill="#ffffff" stroke="#1a1a1a" stroke-width="1.6"/>
<text x="46" y="285" font-size="13" fill="#1a1a1a">input</text>
<text x="46" y="303" font-size="12" fill="#2b4f81" font-family="ui-monospace, Menlo, Consolas, monospace">value 10</text>
<text x="46" y="319" font-size="12" fill="#9e2b25" font-family="ui-monospace, Menlo, Consolas, monospace">grad 0.00134</text>
<rect x="452" y="166" width="172" height="64" rx="11" fill="#ffffff" stroke="#1a1a1a" stroke-width="1"/>
<text x="466" y="189" font-size="13" fill="#1a1a1a">+</text>
<text x="466" y="207" font-size="12" fill="#2b4f81" font-family="ui-monospace, Menlo, Consolas, monospace">value 4</text>
<text x="466" y="223" font-size="12" fill="#9e2b25" font-family="ui-monospace, Menlo, Consolas, monospace">grad 0.00134</text>
<rect x="662" y="166" width="172" height="64" rx="11" fill="#ffffff" stroke="#1a1a1a" stroke-width="1.6"/>
<text x="676" y="189" font-size="13" fill="#1a1a1a">tanh  (output)</text>
<text x="676" y="207" font-size="12" fill="#2b4f81" font-family="ui-monospace, Menlo, Consolas, monospace">value 0.999</text>
<text x="676" y="223" font-size="12" fill="#9e2b25" font-family="ui-monospace, Menlo, Consolas, monospace">grad 1</text>
</svg>