<?xml version="1.0" encoding="utf-8" standalone="no"?>
<!DOCTYPE svg PUBLIC "-//W3C//DTD SVG 1.1//EN"
  "http://www.w3.org/Graphics/SVG/1.1/DTD/svg11.dtd">
<svg xmlns:xlink="http://www.w3.org/1999/xlink" width="391.392pt" height="197.352pt" viewBox="0 0 391.392 197.352" xmlns="http://www.w3.org/2000/svg" version="1.1">
 <metadata>
  <rdf:RDF xmlns:dc="http://purl.org/dc/elements/1.1/" xmlns:cc="http://creativecommons.org/ns#" xmlns:rdf="http://www.w3.org/1999/02/22-rdf-syntax-ns#">
   <cc:Work>
    <dc:type rdf:resource="http://purl.org/dc/dcmitype/StillImage"/>
    <dc:date>2026-06-09T15:24:40.270841</dc:date>
    <dc:format>image/svg+xml</dc:format>
    <dc:creator>
     <cc:Agent>
      <dc:title>Matplotlib v3.10.9, https://matplotlib.org/</dc:title>
     </cc:Agent>
    </dc:creator>
   </cc:Work>
  </rdf:RDF>
 </metadata>
 <defs>
  <style type="text/css">*{stroke-linejoin: round; stroke-linecap: butt}</style>
 </defs>
 <g id="figure_1">
  <g id="patch_1">
   <path d="M 0 197.352 
L 391.392 197.352 
L 391.392 0 
L 0 0 
z
" style="fill: #ffffff"/>
  </g>
  <g id="axes_1">
   <g id="patch_2">
    <path d="M 58.09392 43.12512 
Q 195.696 43.12512 332.068243 43.12512 
" clip-path="url(#p82bca0a682)" style="fill: none; stroke: #2b4f81; stroke-width: 1.1; stroke-linecap: round"/>
    <path d="M 327.668243 40.92512 
L 332.068243 43.12512 
L 327.668243 45.32512 
z
" clip-path="url(#p82bca0a682)" style="fill: #2b4f81; stroke: #2b4f81; stroke-width: 1.1; stroke-linecap: round"/>
   </g>
   <g id="patch_3">
    <path d="M 333.29808 144.91296 
Q 195.696 144.91296 59.323757 144.91296 
" clip-path="url(#p82bca0a682)" style="fill: none; stroke-dasharray: 5.5,3.3; stroke-dashoffset: 0; stroke: #9e2b25; stroke-width: 1.1; stroke-linecap: round"/>
    <path d="M 63.723757 147.11296 
L 59.323757 144.91296 
L 63.723757 142.71296 
z
" clip-path="url(#p82bca0a682)" style="fill: #9e2b25; stroke-dasharray: 5.5,3.3; stroke-dashoffset: 0; stroke: #9e2b25; stroke-width: 1.1; stroke-linecap: round"/>
   </g>
   <g id="patch_4">
    <path d="M 136.131264 127.94832 
L 255.260736 127.94832 
Q 259.78464 127.94832 259.78464 123.424416 
L 259.78464 64.613664 
Q 259.78464 60.08976 255.260736 60.08976 
L 136.131264 60.08976 
Q 131.60736 60.08976 131.60736 64.613664 
L 131.60736 123.424416 
Q 131.60736 127.94832 136.131264 127.94832 
z
" clip-path="url(#p82bca0a682)" style="fill: #ffffff; stroke: #1a1a1a; stroke-width: 0.9; stroke-linejoin: miter"/>
   </g>
   <g id="text_1">
    <!-- $v$ -->
    <g style="fill: #1a1a1a" transform="translate(41.83416 45.687776) scale(0.11 -0.11)">
     <defs>
      <path id="STIXGeneral-Italic-76" d="M 1325 448 
L 1523 653 
Q 1869 1005 2134 1456 
Q 2400 1907 2400 2131 
Q 2400 2208 2285 2317 
Q 2125 2458 2125 2605 
Q 2125 2701 2195 2761 
Q 2266 2822 2368 2822 
Q 2522 2822 2624 2704 
Q 2726 2586 2726 2445 
Q 2726 2074 2323 1453 
Q 1971 909 1562 474 
Q 1504 416 1421 326 
Q 1338 237 1299 192 
Q 1261 147 1200 86 
Q 1139 26 1110 -3 
Q 1082 -32 1043 -64 
Q 1005 -96 979 -105 
Q 954 -115 928 -115 
Q 870 -115 870 58 
L 870 211 
Q 870 1094 717 1990 
Q 653 2355 579 2470 
Q 506 2586 326 2586 
Q 198 2586 128 2579 
L 128 2662 
Q 480 2720 845 2797 
Q 915 2822 973 2822 
Q 1011 2822 1033 2739 
Q 1056 2656 1165 2093 
Q 1280 1510 1325 448 
z
" transform="scale(0.015625)"/>
     </defs>
     <use xlink:href="#STIXGeneral-Italic-76" transform="translate(0 0.90625)"/>
    </g>
   </g>
   <g id="text_2">
    <!-- $J v$ -->
    <g style="fill: #1a1a1a" transform="translate(344.60784 45.687776) scale(0.11 -0.11)">
     <defs>
      <path id="STIXGeneral-Italic-4a" d="M 3142 4179 
L 3142 4077 
Q 2867 4038 2784 3964 
Q 2701 3891 2618 3603 
L 1958 1254 
Q 1773 589 1504 237 
Q 1235 -115 710 -115 
Q 371 -115 166 38 
Q -38 192 -38 448 
Q -38 602 42 704 
Q 122 806 250 806 
Q 378 806 477 720 
Q 576 634 576 512 
Q 576 474 566 419 
Q 557 365 557 339 
Q 557 90 781 90 
Q 1005 90 1120 499 
L 1933 3405 
Q 2010 3686 2010 3814 
Q 2010 3942 1914 3996 
Q 1818 4051 1517 4077 
L 1517 4179 
L 3142 4179 
z
" transform="scale(0.015625)"/>
     </defs>
     <use xlink:href="#STIXGeneral-Italic-4a" transform="translate(0 0.703125)"/>
     <use xlink:href="#STIXGeneral-Italic-76" transform="translate(44.399994 0.703125)"/>
    </g>
   </g>
   <g id="text_3">
    <!-- forward mode (one pass) -->
    <g style="fill: #2b4f81" transform="translate(150.834516 32.027119) scale(0.09 -0.09)">
     <defs>
      <path id="STIXGeneral-Regular-66" d="M 134 2880 
L 659 2880 
Q 666 3264 710 3478 
Q 755 3693 883 3910 
Q 1152 4371 1786 4371 
Q 2074 4371 2262 4259 
Q 2451 4147 2451 3974 
Q 2451 3866 2374 3789 
Q 2298 3712 2182 3712 
Q 2029 3712 1894 3942 
Q 1741 4192 1555 4192 
Q 1197 4192 1197 3622 
L 1197 2880 
L 1978 2880 
L 1978 2675 
L 1197 2675 
L 1197 666 
Q 1197 307 1299 208 
Q 1402 109 1792 96 
L 1792 0 
L 128 0 
L 128 96 
Q 474 115 566 214 
Q 659 314 659 666 
L 659 2675 
L 134 2675 
L 134 2880 
z
" transform="scale(0.015625)"/>
      <path id="STIXGeneral-Regular-6f" d="M 3008 1478 
Q 3008 806 2608 371 
Q 2208 -64 1568 -64 
Q 979 -64 582 368 
Q 186 800 186 1459 
Q 186 2125 582 2534 
Q 979 2944 1626 2944 
Q 2221 2944 2614 2537 
Q 3008 2131 3008 1478 
z
M 2432 1306 
Q 2432 2035 2112 2445 
Q 1856 2765 1504 2765 
Q 1171 2765 966 2493 
Q 762 2221 762 1747 
Q 762 928 1101 435 
Q 1318 115 1677 115 
Q 2029 115 2230 432 
Q 2432 749 2432 1306 
z
" transform="scale(0.015625)"/>
      <path id="STIXGeneral-Regular-72" d="M 1024 2931 
L 1024 2342 
Q 1267 2688 1430 2816 
Q 1594 2944 1792 2944 
Q 1958 2944 2051 2854 
Q 2144 2765 2144 2605 
Q 2144 2470 2077 2393 
Q 2010 2317 1894 2317 
Q 1773 2317 1638 2445 
Q 1536 2541 1472 2541 
Q 1338 2541 1181 2355 
Q 1024 2170 1024 2016 
L 1024 576 
Q 1024 301 1133 205 
Q 1242 109 1568 96 
L 1568 0 
L 32 0 
L 32 96 
Q 339 154 412 224 
Q 486 294 486 538 
L 486 2138 
Q 486 2349 438 2435 
Q 390 2522 269 2522 
Q 166 2522 45 2496 
L 45 2598 
Q 448 2726 992 2944 
L 1024 2931 
z
" transform="scale(0.015625)"/>
      <path id="STIXGeneral-Regular-77" d="M 4442 2880 
L 4442 2784 
Q 4346 2752 4301 2691 
Q 4256 2630 4179 2438 
L 3296 224 
Q 3168 -90 3117 -90 
Q 3085 -90 3062 -48 
Q 3040 -6 2963 186 
L 2381 1696 
L 1664 160 
Q 1549 -90 1504 -90 
Q 1446 -90 1338 192 
L 474 2381 
Q 378 2630 314 2700 
Q 250 2771 134 2784 
L 134 2880 
L 1286 2880 
L 1286 2784 
Q 1120 2765 1056 2720 
Q 992 2675 992 2573 
Q 992 2477 1030 2381 
L 1664 710 
L 2246 1984 
L 2118 2342 
Q 2029 2598 1942 2681 
Q 1856 2765 1677 2784 
L 1677 2880 
L 2976 2880 
L 2976 2784 
Q 2752 2752 2678 2707 
Q 2605 2662 2605 2560 
Q 2605 2458 2714 2176 
L 3251 742 
L 3827 2163 
Q 3936 2432 3936 2592 
Q 3936 2669 3875 2710 
Q 3814 2752 3654 2784 
L 3654 2880 
L 4442 2880 
z
" transform="scale(0.015625)"/>
      <path id="STIXGeneral-Regular-61" d="M 2829 422 
L 2829 243 
Q 2586 -64 2253 -64 
Q 1888 -64 1843 403 
L 1837 403 
Q 1427 -64 909 -64 
Q 608 -64 422 112 
Q 237 288 237 602 
Q 237 1050 685 1350 
Q 992 1555 1837 1869 
L 1837 2214 
Q 1837 2502 1699 2646 
Q 1562 2790 1338 2790 
Q 1146 2790 1018 2697 
Q 890 2605 890 2477 
Q 890 2419 909 2348 
Q 928 2278 928 2208 
Q 928 2112 841 2029 
Q 755 1946 634 1946 
Q 525 1946 441 2029 
Q 358 2112 358 2240 
Q 358 2547 685 2752 
Q 986 2944 1421 2944 
Q 1939 2944 2176 2656 
Q 2291 2522 2323 2384 
Q 2355 2246 2355 1946 
L 2355 723 
Q 2355 301 2554 301 
Q 2682 301 2829 422 
z
M 1837 813 
L 1837 1715 
Q 1248 1510 1018 1293 
Q 800 1094 800 800 
Q 800 557 921 432 
Q 1043 307 1242 307 
Q 1453 307 1613 410 
Q 1747 506 1792 589 
Q 1837 672 1837 813 
z
" transform="scale(0.015625)"/>
      <path id="STIXGeneral-Regular-64" d="M 3142 269 
L 2202 -64 
L 2176 -45 
L 2176 365 
Q 1869 -64 1357 -64 
Q 826 -64 499 317 
Q 173 698 173 1312 
Q 173 1990 563 2467 
Q 954 2944 1504 2944 
Q 1850 2944 2176 2669 
L 2176 3667 
Q 2176 3866 2118 3930 
Q 2061 3994 1882 3994 
Q 1792 3994 1741 3987 
L 1741 4090 
Q 2323 4243 2682 4371 
L 2714 4358 
L 2714 730 
Q 2714 506 2768 435 
Q 2822 365 2995 365 
Q 3034 365 3142 371 
L 3142 269 
z
M 2176 653 
L 2176 2125 
Q 2176 2381 1981 2573 
Q 1786 2765 1523 2765 
Q 1158 2765 940 2438 
Q 723 2112 723 1568 
Q 723 979 963 624 
Q 1203 269 1606 269 
Q 1907 269 2080 474 
Q 2176 582 2176 653 
z
" transform="scale(0.015625)"/>
      <path id="STIXGeneral-Regular-20" transform="scale(0.015625)"/>
      <path id="STIXGeneral-Regular-6d" d="M 4960 0 
L 3565 0 
L 3565 96 
Q 3834 122 3907 208 
Q 3981 294 3981 576 
L 3981 1894 
Q 3981 2278 3869 2444 
Q 3757 2611 3488 2611 
Q 3264 2611 3107 2521 
Q 2950 2432 2803 2221 
L 2803 608 
Q 2803 301 2896 201 
Q 2989 102 3264 96 
L 3264 0 
L 1830 0 
L 1830 96 
Q 2112 115 2189 188 
Q 2266 262 2266 550 
L 2266 1901 
Q 2266 2611 1850 2611 
Q 1670 2611 1468 2531 
Q 1267 2451 1171 2336 
Q 1088 2240 1088 2227 
L 1088 448 
Q 1088 243 1177 176 
Q 1267 109 1523 96 
L 1523 0 
L 102 0 
L 102 96 
Q 371 102 460 195 
Q 550 288 550 563 
L 550 2150 
Q 550 2387 499 2480 
Q 448 2573 326 2573 
Q 230 2573 122 2547 
L 122 2656 
Q 557 2778 1011 2944 
L 1062 2925 
L 1062 2451 
L 1075 2451 
Q 1363 2752 1584 2848 
Q 1805 2944 2054 2944 
Q 2560 2944 2733 2406 
Q 3232 2944 3776 2944 
Q 4518 2944 4518 1792 
L 4518 493 
Q 4518 282 4582 202 
Q 4646 122 4794 109 
L 4960 96 
L 4960 0 
z
" transform="scale(0.015625)"/>
      <path id="STIXGeneral-Regular-65" d="M 2611 1050 
L 2714 1005 
Q 2330 -64 1376 -64 
Q 813 -64 486 329 
Q 160 723 160 1389 
Q 160 2074 525 2509 
Q 890 2944 1485 2944 
Q 2061 2944 2374 2502 
Q 2560 2246 2592 1773 
L 621 1773 
Q 646 1370 700 1158 
Q 755 947 915 730 
Q 1184 378 1626 378 
Q 1939 378 2153 531 
Q 2368 685 2611 1050 
z
M 634 1978 
L 1939 1978 
Q 1882 2381 1750 2547 
Q 1619 2714 1312 2714 
Q 1043 2714 864 2525 
Q 685 2336 634 1978 
z
" transform="scale(0.015625)"/>
      <path id="STIXGeneral-Regular-28" d="M 1946 -1030 
L 1869 -1133 
Q 1126 -710 716 32 
Q 307 774 307 1613 
Q 307 3386 1888 4326 
L 1946 4224 
Q 1293 3667 1075 3126 
Q 858 2586 858 1632 
Q 858 685 1082 96 
Q 1306 -493 1946 -1030 
z
" transform="scale(0.015625)"/>
      <path id="STIXGeneral-Regular-6e" d="M 3104 0 
L 1773 0 
L 1779 96 
Q 2016 115 2096 233 
Q 2176 352 2176 672 
L 2176 1946 
Q 2176 2592 1709 2592 
Q 1549 2592 1408 2515 
Q 1267 2438 1050 2227 
L 1050 461 
Q 1050 269 1136 192 
Q 1222 115 1466 96 
L 1466 0 
L 115 0 
L 115 96 
Q 358 115 435 214 
Q 512 314 512 602 
L 512 2157 
Q 512 2394 467 2483 
Q 422 2573 288 2573 
Q 160 2573 102 2547 
L 102 2656 
Q 550 2784 979 2944 
L 1030 2925 
L 1030 2426 
L 1037 2426 
Q 1491 2944 1958 2944 
Q 2323 2944 2518 2688 
Q 2714 2432 2714 1958 
L 2714 544 
Q 2714 288 2790 205 
Q 2867 122 3104 96 
L 3104 0 
z
" transform="scale(0.015625)"/>
      <path id="STIXGeneral-Regular-70" d="M 1018 2931 
L 1018 2438 
Q 1421 2944 1939 2944 
Q 2406 2944 2707 2560 
Q 3008 2176 3008 1581 
Q 3008 883 2621 409 
Q 2234 -64 1664 -64 
Q 1466 -64 1328 -6 
Q 1190 51 1018 211 
L 1018 -794 
Q 1018 -1094 1120 -1180 
Q 1222 -1267 1581 -1274 
L 1581 -1389 
L 32 -1389 
L 32 -1280 
Q 314 -1254 397 -1171 
Q 480 -1088 480 -838 
L 480 2157 
Q 480 2381 429 2451 
Q 378 2522 218 2522 
Q 115 2522 58 2515 
L 58 2618 
Q 506 2752 979 2944 
L 1018 2931 
z
M 1018 2138 
L 1018 563 
Q 1018 422 1238 281 
Q 1459 141 1683 141 
Q 2029 141 2243 467 
Q 2458 794 2458 1325 
Q 2458 1888 2243 2224 
Q 2029 2560 1670 2560 
Q 1446 2560 1232 2419 
Q 1018 2278 1018 2138 
z
" transform="scale(0.015625)"/>
      <path id="STIXGeneral-Regular-73" d="M 998 1926 
L 1664 1523 
Q 1984 1331 2105 1164 
Q 2227 998 2227 736 
Q 2227 416 1961 176 
Q 1696 -64 1331 -64 
Q 1030 -64 864 -6 
Q 691 51 570 51 
Q 461 51 416 -26 
L 333 -26 
L 333 979 
L 435 979 
Q 538 512 730 294 
Q 922 77 1248 77 
Q 1485 77 1632 211 
Q 1779 346 1779 550 
Q 1779 845 1440 1030 
L 1094 1222 
Q 326 1651 326 2150 
Q 326 2522 566 2730 
Q 806 2938 1210 2938 
Q 1491 2938 1638 2867 
Q 1754 2816 1818 2816 
Q 1862 2816 1920 2880 
L 1990 2880 
L 2022 2010 
L 1926 2010 
Q 1818 2445 1654 2621 
Q 1491 2797 1203 2797 
Q 986 2797 854 2688 
Q 723 2579 723 2362 
Q 723 2253 796 2128 
Q 870 2003 998 1926 
z
" transform="scale(0.015625)"/>
      <path id="STIXGeneral-Regular-29" d="M 186 4224 
L 262 4326 
Q 992 3891 1408 3148 
Q 1824 2406 1824 1581 
Q 1824 -166 243 -1133 
L 186 -1030 
Q 845 -486 1059 54 
Q 1274 595 1274 1562 
Q 1274 2534 1059 3120 
Q 845 3706 186 4224 
z
" transform="scale(0.015625)"/>
     </defs>
     <use xlink:href="#STIXGeneral-Regular-66"/>
     <use xlink:href="#STIXGeneral-Regular-6f" transform="translate(33.299988 0)"/>
     <use xlink:href="#STIXGeneral-Regular-72" transform="translate(83.299973 0)"/>
     <use xlink:href="#STIXGeneral-Regular-77" transform="translate(116.59996 0)"/>
     <use xlink:href="#STIXGeneral-Regular-61" transform="translate(188.799942 0)"/>
     <use xlink:href="#STIXGeneral-Regular-72" transform="translate(233.199936 0)"/>
     <use xlink:href="#STIXGeneral-Regular-64" transform="translate(266.499924 0)"/>
     <use xlink:href="#STIXGeneral-Regular-20" transform="translate(316.499908 0)"/>
     <use xlink:href="#STIXGeneral-Regular-6d" transform="translate(341.499893 0)"/>
     <use xlink:href="#STIXGeneral-Regular-6f" transform="translate(419.299881 0)"/>
     <use xlink:href="#STIXGeneral-Regular-64" transform="translate(469.299866 0)"/>
     <use xlink:href="#STIXGeneral-Regular-65" transform="translate(519.29985 0)"/>
     <use xlink:href="#STIXGeneral-Regular-20" transform="translate(563.699844 0)"/>
     <use xlink:href="#STIXGeneral-Regular-28" transform="translate(588.699829 0)"/>
     <use xlink:href="#STIXGeneral-Regular-6f" transform="translate(621.999817 0)"/>
     <use xlink:href="#STIXGeneral-Regular-6e" transform="translate(671.999802 0)"/>
     <use xlink:href="#STIXGeneral-Regular-65" transform="translate(721.999786 0)"/>
     <use xlink:href="#STIXGeneral-Regular-20" transform="translate(766.39978 0)"/>
     <use xlink:href="#STIXGeneral-Regular-70" transform="translate(791.399765 0)"/>
     <use xlink:href="#STIXGeneral-Regular-61" transform="translate(841.39975 0)"/>
     <use xlink:href="#STIXGeneral-Regular-73" transform="translate(885.799744 0)"/>
     <use xlink:href="#STIXGeneral-Regular-73" transform="translate(924.699738 0)"/>
     <use xlink:href="#STIXGeneral-Regular-29" transform="translate(963.599731 0)"/>
    </g>
   </g>
   <g id="text_4">
    <!-- $u$ -->
    <g style="fill: #1a1a1a" transform="translate(344.60784 147.475616) scale(0.11 -0.11)">
     <defs>
      <path id="STIXGeneral-Italic-75" d="M 2950 762 
L 3040 704 
Q 2733 237 2560 89 
Q 2387 -58 2157 -58 
Q 1850 -58 1850 250 
Q 1850 538 2138 1510 
Q 1568 576 1257 253 
Q 947 -70 608 -70 
Q 269 -70 269 269 
Q 269 384 442 1088 
L 666 1978 
Q 755 2349 755 2406 
Q 755 2483 684 2521 
Q 614 2560 365 2560 
L 365 2650 
Q 806 2701 1325 2822 
L 1350 2803 
L 781 531 
Q 762 474 762 429 
Q 762 269 890 269 
Q 1178 269 1798 1210 
Q 2010 1530 2128 1795 
Q 2246 2061 2502 2765 
L 2976 2765 
L 2470 851 
Q 2349 390 2349 352 
Q 2349 243 2419 243 
Q 2496 243 2605 345 
Q 2714 448 2950 762 
z
" transform="scale(0.015625)"/>
     </defs>
     <use xlink:href="#STIXGeneral-Italic-75" transform="translate(0 0.90625)"/>
    </g>
   </g>
   <g id="text_5">
    <!-- $J^{\top} u$ -->
    <g style="fill: #1a1a1a" transform="translate(27.20416 147.475616) scale(0.11 -0.11)">
     <defs>
      <path id="STIXGeneral-Regular-22a4" d="M 4077 3814 
L 2400 3814 
L 2400 0 
L 1978 0 
L 1978 3814 
L 307 3814 
L 307 4237 
L 4077 4237 
L 4077 3814 
z
" transform="scale(0.015625)"/>
     </defs>
     <use xlink:href="#STIXGeneral-Italic-4a" transform="translate(0 0.382812)"/>
     <use xlink:href="#STIXGeneral-Regular-22a4" transform="translate(65.133773 35.657812) scale(0.7)"/>
     <use xlink:href="#STIXGeneral-Italic-75" transform="translate(127.601134 0.382812)"/>
    </g>
   </g>
   <g id="text_6">
    <!-- reverse mode (one pass) -->
    <g style="fill: #9e2b25" transform="translate(152.084672 160.204399) scale(0.09 -0.09)">
     <defs>
      <path id="STIXGeneral-Regular-76" d="M 3053 2880 
L 3053 2784 
Q 2906 2771 2835 2688 
Q 2765 2605 2637 2285 
L 1818 230 
Q 1690 -90 1638 -90 
Q 1587 -90 1523 77 
Q 1510 96 1497 141 
Q 1485 186 1472 211 
L 704 2048 
Q 499 2534 403 2652 
Q 307 2771 122 2784 
L 122 2880 
L 1376 2880 
L 1376 2784 
Q 1210 2771 1146 2732 
Q 1082 2694 1082 2611 
Q 1082 2509 1139 2368 
L 1792 730 
L 2426 2387 
Q 2464 2483 2464 2579 
Q 2464 2758 2163 2784 
L 2163 2880 
L 3053 2880 
z
" transform="scale(0.015625)"/>
     </defs>
     <use xlink:href="#STIXGeneral-Regular-72"/>
     <use xlink:href="#STIXGeneral-Regular-65" transform="translate(33.299988 0)"/>
     <use xlink:href="#STIXGeneral-Regular-76" transform="translate(77.699982 0)"/>
     <use xlink:href="#STIXGeneral-Regular-65" transform="translate(127.699966 0)"/>
     <use xlink:href="#STIXGeneral-Regular-72" transform="translate(172.09996 0)"/>
     <use xlink:href="#STIXGeneral-Regular-73" transform="translate(205.399948 0)"/>
     <use xlink:href="#STIXGeneral-Regular-65" transform="translate(244.299942 0)"/>
     <use xlink:href="#STIXGeneral-Regular-20" transform="translate(288.699936 0)"/>
     <use xlink:href="#STIXGeneral-Regular-6d" transform="translate(313.699921 0)"/>
     <use xlink:href="#STIXGeneral-Regular-6f" transform="translate(391.499908 0)"/>
     <use xlink:href="#STIXGeneral-Regular-64" transform="translate(441.499893 0)"/>
     <use xlink:href="#STIXGeneral-Regular-65" transform="translate(491.499878 0)"/>
     <use xlink:href="#STIXGeneral-Regular-20" transform="translate(535.899872 0)"/>
     <use xlink:href="#STIXGeneral-Regular-28" transform="translate(560.899857 0)"/>
     <use xlink:href="#STIXGeneral-Regular-6f" transform="translate(594.199844 0)"/>
     <use xlink:href="#STIXGeneral-Regular-6e" transform="translate(644.199829 0)"/>
     <use xlink:href="#STIXGeneral-Regular-65" transform="translate(694.199814 0)"/>
     <use xlink:href="#STIXGeneral-Regular-20" transform="translate(738.599808 0)"/>
     <use xlink:href="#STIXGeneral-Regular-70" transform="translate(763.599792 0)"/>
     <use xlink:href="#STIXGeneral-Regular-61" transform="translate(813.599777 0)"/>
     <use xlink:href="#STIXGeneral-Regular-73" transform="translate(857.999771 0)"/>
     <use xlink:href="#STIXGeneral-Regular-73" transform="translate(896.899765 0)"/>
     <use xlink:href="#STIXGeneral-Regular-29" transform="translate(935.799759 0)"/>
    </g>
   </g>
   <g id="text_7">
    <!-- $\langle u,\, J v \rangle = \langle J^{\top} u,\, v \rangle$ -->
    <g style="fill: #1a1a1a" transform="translate(152.376 186.21216) scale(0.12 -0.12)">
     <defs>
      <path id="STIXGeneral-Regular-27e8" d="M 2144 4563 
L 915 1606 
L 2138 -1363 
L 1805 -1363 
L 493 1542 
L 493 1670 
L 1811 4563 
L 2144 4563 
z
" transform="scale(0.015625)"/>
      <path id="STIXGeneral-Regular-2c" d="M 531 -902 
L 467 -781 
Q 998 -422 998 -96 
Q 998 -13 909 -13 
Q 883 -13 822 -25 
Q 762 -38 723 -38 
Q 352 -38 352 288 
Q 352 454 457 553 
Q 563 653 736 653 
Q 954 653 1101 496 
Q 1248 339 1248 96 
Q 1248 -198 1053 -473 
Q 858 -749 531 -902 
z
" transform="scale(0.015625)"/>
      <path id="STIXGeneral-Regular-27e9" d="M 2067 1536 
L 749 -1363 
L 416 -1363 
L 1645 1600 
L 422 4563 
L 755 4563 
L 2067 1664 
L 2067 1536 
z
" transform="scale(0.015625)"/>
      <path id="STIXGeneral-Regular-3d" d="M 4077 2048 
L 307 2048 
L 307 2470 
L 4077 2470 
L 4077 2048 
z
M 4077 768 
L 307 768 
L 307 1190 
L 4077 1190 
L 4077 768 
z
" transform="scale(0.015625)"/>
     </defs>
     <use xlink:href="#STIXGeneral-Regular-27e8" transform="translate(0 0.382812)"/>
     <use xlink:href="#STIXGeneral-Italic-75" transform="translate(39.999985 0.382812)"/>
     <use xlink:href="#STIXGeneral-Regular-2c" transform="translate(89.999969 0.382812)"/>
     <use xlink:href="#STIXGeneral-Italic-4a" transform="translate(141.473522 0.382812)"/>
     <use xlink:href="#STIXGeneral-Italic-76" transform="translate(185.873515 0.382812)"/>
     <use xlink:href="#STIXGeneral-Regular-27e9" transform="translate(230.273509 0.382812)"/>
     <use xlink:href="#STIXGeneral-Regular-3d" transform="translate(284.71349 0.382812)"/>
     <use xlink:href="#STIXGeneral-Regular-27e8" transform="translate(367.653471 0.382812)"/>
     <use xlink:href="#STIXGeneral-Italic-4a" transform="translate(407.653456 0.382812)"/>
     <use xlink:href="#STIXGeneral-Regular-22a4" transform="translate(472.787229 35.657812) scale(0.7)"/>
     <use xlink:href="#STIXGeneral-Italic-75" transform="translate(535.254591 0.382812)"/>
     <use xlink:href="#STIXGeneral-Regular-2c" transform="translate(585.254575 0.382812)"/>
     <use xlink:href="#STIXGeneral-Italic-76" transform="translate(636.728127 0.382812)"/>
     <use xlink:href="#STIXGeneral-Regular-27e9" transform="translate(681.128121 0.382812)"/>
    </g>
   </g>
   <g id="text_8">
    <!-- $f : \mathbb{R}^n \to \mathbb{R}^m$ -->
    <g style="fill: #1a1a1a" transform="translate(169.3035 86.330901) scale(0.115 -0.115)">
     <defs>
      <path id="STIXGeneral-Italic-66" d="M 262 2739 
L 858 2739 
Q 1107 3546 1318 3846 
Q 1664 4339 2163 4339 
Q 2400 4339 2557 4227 
Q 2714 4115 2714 3942 
Q 2714 3834 2634 3750 
Q 2554 3667 2445 3667 
Q 2355 3667 2281 3737 
Q 2208 3808 2208 3917 
Q 2208 3981 2240 4038 
Q 2272 4096 2272 4115 
Q 2272 4198 2131 4198 
Q 1862 4198 1676 3849 
Q 1491 3501 1350 2739 
L 2035 2739 
L 1997 2534 
L 1306 2534 
L 845 486 
Q 435 -1325 -435 -1325 
Q -653 -1325 -797 -1213 
Q -941 -1101 -941 -934 
Q -941 -826 -870 -746 
Q -800 -666 -698 -666 
Q -589 -666 -521 -733 
Q -454 -800 -454 -902 
Q -454 -947 -483 -1001 
Q -512 -1056 -512 -1088 
Q -512 -1190 -384 -1190 
Q 13 -1190 237 -154 
L 800 2534 
L 218 2534 
L 262 2739 
z
" transform="scale(0.015625)"/>
      <path id="STIXGeneral-Regular-3a" d="M 1123 2832 
Q 1229 2726 1229 2579 
Q 1229 2432 1126 2329 
Q 1024 2227 877 2227 
Q 730 2227 624 2332 
Q 518 2438 518 2579 
Q 518 2733 620 2835 
Q 723 2938 877 2938 
Q 1018 2938 1123 2832 
z
M 1229 282 
Q 1229 141 1126 35 
Q 1024 -70 877 -70 
Q 730 -70 624 35 
Q 518 141 518 282 
Q 518 435 620 537 
Q 723 640 877 640 
Q 1018 640 1123 534 
Q 1229 429 1229 282 
z
" transform="scale(0.015625)"/>
      <path id="STIXGeneral-Italic-211d" d="M 1229 4179 
L 3360 4179 
Q 3827 4179 4108 3894 
Q 4390 3610 4390 3142 
Q 4390 2554 4060 2186 
Q 3731 1818 3149 1715 
L 4026 0 
L 2925 0 
L 2125 1690 
L 1549 1690 
L 1094 0 
L 109 0 
L 1229 4179 
z
M 3866 3821 
L 3392 2022 
Q 3770 2144 3962 2438 
Q 4154 2733 4154 3136 
Q 4154 3584 3866 3821 
z
M 3142 1978 
L 3648 3872 
Q 3450 3942 3296 3942 
L 2150 3942 
L 1613 1926 
L 2630 1926 
Q 2957 1926 3142 1978 
z
M 3629 237 
L 2899 1696 
Q 2829 1683 2682 1683 
Q 2630 1683 2531 1686 
Q 2432 1690 2387 1690 
L 3072 237 
L 3629 237 
z
M 1907 3942 
L 1408 3942 
L 416 237 
L 915 237 
L 1907 3942 
z
" transform="scale(0.015625)"/>
      <path id="STIXGeneral-Italic-6e" d="M 2944 749 
L 3034 666 
Q 2707 218 2534 80 
Q 2362 -58 2138 -58 
Q 2010 -58 1923 28 
Q 1837 115 1837 288 
Q 1837 390 1939 768 
L 2221 1805 
Q 2310 2150 2310 2310 
Q 2310 2496 2157 2496 
Q 1971 2496 1750 2275 
Q 1530 2054 1210 1587 
Q 998 1274 899 1024 
Q 800 774 570 0 
L 90 0 
L 704 2240 
Q 717 2304 717 2349 
Q 717 2445 630 2480 
Q 544 2515 301 2522 
L 301 2624 
Q 550 2675 857 2729 
Q 1165 2784 1338 2822 
L 1363 2810 
L 934 1414 
Q 1408 2170 1753 2496 
Q 2099 2822 2413 2822 
Q 2611 2822 2720 2716 
Q 2829 2611 2829 2432 
Q 2829 2272 2765 2048 
L 2406 749 
Q 2317 429 2317 358 
Q 2317 243 2419 243 
Q 2541 243 2810 582 
Q 2854 634 2944 749 
z
" transform="scale(0.015625)"/>
      <path id="STIXGeneral-Regular-2192" d="M 5478 1651 
L 5478 1587 
Q 4742 1274 3955 365 
L 3827 486 
Q 4006 742 4352 1101 
Q 4442 1190 4442 1280 
Q 4442 1408 4275 1408 
L 448 1408 
L 448 1830 
L 4282 1830 
Q 4333 1830 4390 1878 
Q 4448 1926 4448 1971 
Q 4448 2042 4358 2131 
Q 4032 2445 3834 2746 
L 3962 2867 
Q 4755 1952 5478 1651 
z
" transform="scale(0.015625)"/>
      <path id="STIXGeneral-Italic-6d" d="M 4506 672 
L 4474 627 
Q 3981 -58 3552 -58 
Q 3296 -58 3296 237 
Q 3296 333 3379 659 
L 3750 2112 
Q 3795 2291 3795 2355 
Q 3795 2413 3756 2451 
Q 3718 2490 3667 2490 
Q 3366 2490 2829 1741 
Q 2592 1408 2457 1072 
Q 2323 736 2138 0 
L 1658 0 
L 1830 595 
Q 2266 2099 2266 2330 
Q 2266 2490 2125 2490 
Q 1965 2490 1702 2237 
Q 1440 1984 1171 1574 
Q 1011 1325 899 1043 
Q 787 762 557 0 
L 77 0 
L 352 922 
Q 704 2093 704 2381 
Q 704 2522 442 2522 
L 282 2522 
L 282 2624 
L 1318 2822 
L 1338 2810 
L 966 1472 
Q 1798 2822 2374 2822 
Q 2560 2822 2659 2720 
Q 2758 2618 2758 2438 
Q 2758 2195 2502 1466 
Q 2842 2003 3069 2275 
Q 3296 2547 3526 2694 
Q 3731 2822 3930 2822 
Q 4102 2822 4201 2710 
Q 4301 2598 4301 2419 
Q 4301 2336 4282 2240 
L 3846 634 
Q 3782 390 3782 346 
Q 3782 243 3859 243 
Q 4000 243 4275 582 
L 4410 749 
L 4506 672 
z
" transform="scale(0.015625)"/>
     </defs>
     <use xlink:href="#STIXGeneral-Italic-66" transform="translate(0 0.203125)"/>
     <use xlink:href="#STIXGeneral-Regular-3a" transform="translate(42.239984 0.203125)"/>
     <use xlink:href="#STIXGeneral-Italic-211d" transform="translate(84.479968 0.203125)"/>
     <use xlink:href="#STIXGeneral-Italic-6e" transform="translate(163.805731 35.478125) scale(0.7)"/>
     <use xlink:href="#STIXGeneral-Regular-2192" transform="translate(217.655092 0.203125)"/>
     <use xlink:href="#STIXGeneral-Italic-211d" transform="translate(324.695079 0.203125)"/>
     <use xlink:href="#STIXGeneral-Italic-6d" transform="translate(404.020842 35.478125) scale(0.7)"/>
    </g>
   </g>
   <g id="text_9">
    <!-- Jacobian $J$ -->
    <g style="fill: #8a8a8a" transform="translate(176.886 106.483039) scale(0.09 -0.09)">
     <defs>
      <path id="STIXGeneral-Regular-4a" d="M 2266 4237 
L 2266 4115 
Q 1875 4083 1776 3984 
Q 1677 3885 1677 3514 
L 1677 1184 
Q 1677 -90 608 -90 
Q 314 -90 138 32 
Q -38 154 -38 371 
Q -38 499 54 601 
Q 147 704 275 704 
Q 486 704 589 435 
Q 602 403 621 348 
Q 640 294 649 265 
Q 659 237 678 208 
Q 698 179 723 166 
Q 749 154 787 154 
Q 928 154 976 253 
Q 1024 352 1024 602 
L 1024 3520 
Q 1024 3898 928 3990 
Q 832 4083 429 4115 
L 429 4237 
L 2266 4237 
z
" transform="scale(0.015625)"/>
      <path id="STIXGeneral-Regular-63" d="M 2547 998 
L 2637 941 
Q 2362 403 2112 205 
Q 1786 -64 1376 -64 
Q 845 -64 502 336 
Q 160 736 160 1357 
Q 160 2170 698 2618 
Q 1094 2944 1562 2944 
Q 1965 2944 2256 2749 
Q 2547 2554 2547 2285 
Q 2547 2176 2457 2096 
Q 2368 2016 2246 2016 
Q 2022 2016 1939 2310 
L 1901 2451 
Q 1850 2630 1773 2694 
Q 1696 2758 1523 2758 
Q 1133 2758 893 2451 
Q 653 2144 653 1645 
Q 653 1094 928 745 
Q 1203 397 1645 397 
Q 1920 397 2118 528 
Q 2317 659 2547 998 
z
" transform="scale(0.015625)"/>
      <path id="STIXGeneral-Regular-62" d="M 979 4358 
L 979 2406 
Q 1082 2650 1315 2797 
Q 1549 2944 1843 2944 
Q 2349 2944 2672 2541 
Q 2995 2138 2995 1536 
Q 2995 832 2566 384 
Q 2138 -64 1498 -64 
Q 1107 -64 774 67 
Q 442 198 442 358 
L 442 3622 
Q 442 3859 384 3926 
Q 326 3994 128 3994 
Q 83 3994 19 3981 
L 19 4090 
L 211 4147 
Q 864 4346 947 4371 
L 979 4358 
z
M 979 2035 
L 979 474 
Q 979 326 1161 233 
Q 1344 141 1600 141 
Q 1978 141 2195 416 
Q 2432 710 2432 1261 
Q 2432 1888 2182 2240 
Q 1971 2541 1613 2541 
Q 1357 2541 1168 2390 
Q 979 2240 979 2035 
z
" transform="scale(0.015625)"/>
      <path id="STIXGeneral-Regular-69" d="M 1152 4045 
Q 1152 3904 1056 3811 
Q 960 3718 819 3718 
Q 685 3718 592 3811 
Q 499 3904 499 4045 
Q 499 4179 595 4275 
Q 691 4371 826 4371 
Q 966 4371 1059 4275 
Q 1152 4179 1152 4045 
z
M 1619 0 
L 102 0 
L 102 96 
Q 435 115 521 211 
Q 608 307 608 666 
L 608 2118 
Q 608 2342 563 2432 
Q 518 2522 397 2522 
Q 243 2522 128 2490 
L 128 2592 
L 1120 2944 
L 1146 2918 
L 1146 672 
Q 1146 314 1226 218 
Q 1306 122 1619 96 
L 1619 0 
z
" transform="scale(0.015625)"/>
     </defs>
     <use xlink:href="#STIXGeneral-Regular-4a" transform="translate(0 0.703125)"/>
     <use xlink:href="#STIXGeneral-Regular-61" transform="translate(37.299988 0.703125)"/>
     <use xlink:href="#STIXGeneral-Regular-63" transform="translate(81.699982 0.703125)"/>
     <use xlink:href="#STIXGeneral-Regular-6f" transform="translate(126.099976 0.703125)"/>
     <use xlink:href="#STIXGeneral-Regular-62" transform="translate(176.09996 0.703125)"/>
     <use xlink:href="#STIXGeneral-Regular-69" transform="translate(226.099945 0.703125)"/>
     <use xlink:href="#STIXGeneral-Regular-61" transform="translate(253.899933 0.703125)"/>
     <use xlink:href="#STIXGeneral-Regular-6e" transform="translate(298.299927 0.703125)"/>
     <use xlink:href="#STIXGeneral-Regular-20" transform="translate(348.299911 0.703125)"/>
     <use xlink:href="#STIXGeneral-Italic-4a" transform="translate(373.299896 0.703125)"/>
    </g>
   </g>
  </g>
 </g>
 <defs>
  <clipPath id="p82bca0a682">
   <rect x="7.2" y="7.2" width="376.992" height="182.952"/>
  </clipPath>
 </defs>
</svg>
