<?xml version="1.0" encoding="utf-8" standalone="no"?>
<!DOCTYPE svg PUBLIC "-//W3C//DTD SVG 1.1//EN"
  "http://www.w3.org/Graphics/SVG/1.1/DTD/svg11.dtd">
<svg xmlns:xlink="http://www.w3.org/1999/xlink" width="518.4pt" height="316.8pt" viewBox="0 0 518.4 316.8" xmlns="http://www.w3.org/2000/svg" version="1.1">
 <metadata>
  <rdf:RDF xmlns:dc="http://purl.org/dc/elements/1.1/" xmlns:cc="http://creativecommons.org/ns#" xmlns:rdf="http://www.w3.org/1999/02/22-rdf-syntax-ns#">
   <cc:Work>
    <dc:type rdf:resource="http://purl.org/dc/dcmitype/StillImage"/>
    <dc:date>2026-06-08T18:09:05.002601</dc:date>
    <dc:format>image/svg+xml</dc:format>
    <dc:creator>
     <cc:Agent>
      <dc:title>Matplotlib v3.10.9, https://matplotlib.org/</dc:title>
     </cc:Agent>
    </dc:creator>
   </cc:Work>
  </rdf:RDF>
 </metadata>
 <defs>
  <style type="text/css">*{stroke-linejoin: round; stroke-linecap: butt}</style>
 </defs>
 <g id="figure_1">
  <g id="patch_1">
   <path d="M 0 316.8 
L 518.4 316.8 
L 518.4 0 
L 0 0 
z
" style="fill: #ffffff"/>
  </g>
  <g id="axes_1">
   <g id="patch_2">
    <path d="M 44.57 274.84 
L 507.6 274.84 
L 507.6 26.88 
L 44.57 26.88 
z
" style="fill: #ffffff"/>
   </g>
   <g id="matplotlib.axis_1">
    <g id="xtick_1">
     <g id="line2d_1">
      <path d="M 65.616818 274.84 
L 65.616818 26.88 
" clip-path="url(#pc72d2916e1)" style="fill: none; stroke: #eef0f3; stroke-width: 0.8; stroke-linecap: square"/>
     </g>
     <g id="line2d_2">
      <defs>
       <path id="m640851ce68" d="M 0 0 
L 0 3.5 
" style="stroke: #000000; stroke-width: 0.8"/>
      </defs>
      <g>
       <use xlink:href="#m640851ce68" x="65.616818" y="274.84" style="stroke: #000000; stroke-width: 0.8"/>
      </g>
     </g>
     <g id="text_1">
      <!-- -1.00 -->
      <g transform="translate(52.680099 289.438438) scale(0.1 -0.1)">
       <defs>
        <path id="DejaVuSans-2d" d="M 313 2009 
L 1997 2009 
L 1997 1497 
L 313 1497 
L 313 2009 
z
" transform="scale(0.015625)"/>
        <path id="DejaVuSans-31" d="M 794 531 
L 1825 531 
L 1825 4091 
L 703 3866 
L 703 4441 
L 1819 4666 
L 2450 4666 
L 2450 531 
L 3481 531 
L 3481 0 
L 794 0 
L 794 531 
z
" transform="scale(0.015625)"/>
        <path id="DejaVuSans-2e" d="M 684 794 
L 1344 794 
L 1344 0 
L 684 0 
L 684 794 
z
" transform="scale(0.015625)"/>
        <path id="DejaVuSans-30" d="M 2034 4250 
Q 1547 4250 1301 3770 
Q 1056 3291 1056 2328 
Q 1056 1369 1301 889 
Q 1547 409 2034 409 
Q 2525 409 2770 889 
Q 3016 1369 3016 2328 
Q 3016 3291 2770 3770 
Q 2525 4250 2034 4250 
z
M 2034 4750 
Q 2819 4750 3233 4129 
Q 3647 3509 3647 2328 
Q 3647 1150 3233 529 
Q 2819 -91 2034 -91 
Q 1250 -91 836 529 
Q 422 1150 422 2328 
Q 422 3509 836 4129 
Q 1250 4750 2034 4750 
z
" transform="scale(0.015625)"/>
       </defs>
       <use xlink:href="#DejaVuSans-2d"/>
       <use xlink:href="#DejaVuSans-31" transform="translate(36.083984 0)"/>
       <use xlink:href="#DejaVuSans-2e" transform="translate(99.707031 0)"/>
       <use xlink:href="#DejaVuSans-30" transform="translate(131.494141 0)"/>
       <use xlink:href="#DejaVuSans-30" transform="translate(195.117188 0)"/>
      </g>
     </g>
    </g>
    <g id="xtick_2">
     <g id="line2d_3">
      <path d="M 118.233864 274.84 
L 118.233864 26.88 
" clip-path="url(#pc72d2916e1)" style="fill: none; stroke: #eef0f3; stroke-width: 0.8; stroke-linecap: square"/>
     </g>
     <g id="line2d_4">
      <g>
       <use xlink:href="#m640851ce68" x="118.233864" y="274.84" style="stroke: #000000; stroke-width: 0.8"/>
      </g>
     </g>
     <g id="text_2">
      <!-- -0.75 -->
      <g transform="translate(105.297145 289.438438) scale(0.1 -0.1)">
       <defs>
        <path id="DejaVuSans-37" d="M 525 4666 
L 3525 4666 
L 3525 4397 
L 1831 0 
L 1172 0 
L 2766 4134 
L 525 4134 
L 525 4666 
z
" transform="scale(0.015625)"/>
        <path id="DejaVuSans-35" d="M 691 4666 
L 3169 4666 
L 3169 4134 
L 1269 4134 
L 1269 2991 
Q 1406 3038 1543 3061 
Q 1681 3084 1819 3084 
Q 2600 3084 3056 2656 
Q 3513 2228 3513 1497 
Q 3513 744 3044 326 
Q 2575 -91 1722 -91 
Q 1428 -91 1123 -41 
Q 819 9 494 109 
L 494 744 
Q 775 591 1075 516 
Q 1375 441 1709 441 
Q 2250 441 2565 725 
Q 2881 1009 2881 1497 
Q 2881 1984 2565 2268 
Q 2250 2553 1709 2553 
Q 1456 2553 1204 2497 
Q 953 2441 691 2322 
L 691 4666 
z
" transform="scale(0.015625)"/>
       </defs>
       <use xlink:href="#DejaVuSans-2d"/>
       <use xlink:href="#DejaVuSans-30" transform="translate(36.083984 0)"/>
       <use xlink:href="#DejaVuSans-2e" transform="translate(99.707031 0)"/>
       <use xlink:href="#DejaVuSans-37" transform="translate(131.494141 0)"/>
       <use xlink:href="#DejaVuSans-35" transform="translate(195.117188 0)"/>
      </g>
     </g>
    </g>
    <g id="xtick_3">
     <g id="line2d_5">
      <path d="M 170.850909 274.84 
L 170.850909 26.88 
" clip-path="url(#pc72d2916e1)" style="fill: none; stroke: #eef0f3; stroke-width: 0.8; stroke-linecap: square"/>
     </g>
     <g id="line2d_6">
      <g>
       <use xlink:href="#m640851ce68" x="170.850909" y="274.84" style="stroke: #000000; stroke-width: 0.8"/>
      </g>
     </g>
     <g id="text_3">
      <!-- -0.50 -->
      <g transform="translate(157.91419 289.438438) scale(0.1 -0.1)">
       <use xlink:href="#DejaVuSans-2d"/>
       <use xlink:href="#DejaVuSans-30" transform="translate(36.083984 0)"/>
       <use xlink:href="#DejaVuSans-2e" transform="translate(99.707031 0)"/>
       <use xlink:href="#DejaVuSans-35" transform="translate(131.494141 0)"/>
       <use xlink:href="#DejaVuSans-30" transform="translate(195.117188 0)"/>
      </g>
     </g>
    </g>
    <g id="xtick_4">
     <g id="line2d_7">
      <path d="M 223.467955 274.84 
L 223.467955 26.88 
" clip-path="url(#pc72d2916e1)" style="fill: none; stroke: #eef0f3; stroke-width: 0.8; stroke-linecap: square"/>
     </g>
     <g id="line2d_8">
      <g>
       <use xlink:href="#m640851ce68" x="223.467955" y="274.84" style="stroke: #000000; stroke-width: 0.8"/>
      </g>
     </g>
     <g id="text_4">
      <!-- -0.25 -->
      <g transform="translate(210.531236 289.438438) scale(0.1 -0.1)">
       <defs>
        <path id="DejaVuSans-32" d="M 1228 531 
L 3431 531 
L 3431 0 
L 469 0 
L 469 531 
Q 828 903 1448 1529 
Q 2069 2156 2228 2338 
Q 2531 2678 2651 2914 
Q 2772 3150 2772 3378 
Q 2772 3750 2511 3984 
Q 2250 4219 1831 4219 
Q 1534 4219 1204 4116 
Q 875 4013 500 3803 
L 500 4441 
Q 881 4594 1212 4672 
Q 1544 4750 1819 4750 
Q 2544 4750 2975 4387 
Q 3406 4025 3406 3419 
Q 3406 3131 3298 2873 
Q 3191 2616 2906 2266 
Q 2828 2175 2409 1742 
Q 1991 1309 1228 531 
z
" transform="scale(0.015625)"/>
       </defs>
       <use xlink:href="#DejaVuSans-2d"/>
       <use xlink:href="#DejaVuSans-30" transform="translate(36.083984 0)"/>
       <use xlink:href="#DejaVuSans-2e" transform="translate(99.707031 0)"/>
       <use xlink:href="#DejaVuSans-32" transform="translate(131.494141 0)"/>
       <use xlink:href="#DejaVuSans-35" transform="translate(195.117188 0)"/>
      </g>
     </g>
    </g>
    <g id="xtick_5">
     <g id="line2d_9">
      <path d="M 276.085 274.84 
L 276.085 26.88 
" clip-path="url(#pc72d2916e1)" style="fill: none; stroke: #eef0f3; stroke-width: 0.8; stroke-linecap: square"/>
     </g>
     <g id="line2d_10">
      <g>
       <use xlink:href="#m640851ce68" x="276.085" y="274.84" style="stroke: #000000; stroke-width: 0.8"/>
      </g>
     </g>
     <g id="text_5">
      <!-- 0.00 -->
      <g transform="translate(264.952187 289.438438) scale(0.1 -0.1)">
       <use xlink:href="#DejaVuSans-30"/>
       <use xlink:href="#DejaVuSans-2e" transform="translate(63.623047 0)"/>
       <use xlink:href="#DejaVuSans-30" transform="translate(95.410156 0)"/>
       <use xlink:href="#DejaVuSans-30" transform="translate(159.033203 0)"/>
      </g>
     </g>
    </g>
    <g id="xtick_6">
     <g id="line2d_11">
      <path d="M 328.702045 274.84 
L 328.702045 26.88 
" clip-path="url(#pc72d2916e1)" style="fill: none; stroke: #eef0f3; stroke-width: 0.8; stroke-linecap: square"/>
     </g>
     <g id="line2d_12">
      <g>
       <use xlink:href="#m640851ce68" x="328.702045" y="274.84" style="stroke: #000000; stroke-width: 0.8"/>
      </g>
     </g>
     <g id="text_6">
      <!-- 0.25 -->
      <g transform="translate(317.569233 289.438438) scale(0.1 -0.1)">
       <use xlink:href="#DejaVuSans-30"/>
       <use xlink:href="#DejaVuSans-2e" transform="translate(63.623047 0)"/>
       <use xlink:href="#DejaVuSans-32" transform="translate(95.410156 0)"/>
       <use xlink:href="#DejaVuSans-35" transform="translate(159.033203 0)"/>
      </g>
     </g>
    </g>
    <g id="xtick_7">
     <g id="line2d_13">
      <path d="M 381.319091 274.84 
L 381.319091 26.88 
" clip-path="url(#pc72d2916e1)" style="fill: none; stroke: #eef0f3; stroke-width: 0.8; stroke-linecap: square"/>
     </g>
     <g id="line2d_14">
      <g>
       <use xlink:href="#m640851ce68" x="381.319091" y="274.84" style="stroke: #000000; stroke-width: 0.8"/>
      </g>
     </g>
     <g id="text_7">
      <!-- 0.50 -->
      <g transform="translate(370.186278 289.438438) scale(0.1 -0.1)">
       <use xlink:href="#DejaVuSans-30"/>
       <use xlink:href="#DejaVuSans-2e" transform="translate(63.623047 0)"/>
       <use xlink:href="#DejaVuSans-35" transform="translate(95.410156 0)"/>
       <use xlink:href="#DejaVuSans-30" transform="translate(159.033203 0)"/>
      </g>
     </g>
    </g>
    <g id="xtick_8">
     <g id="line2d_15">
      <path d="M 433.936136 274.84 
L 433.936136 26.88 
" clip-path="url(#pc72d2916e1)" style="fill: none; stroke: #eef0f3; stroke-width: 0.8; stroke-linecap: square"/>
     </g>
     <g id="line2d_16">
      <g>
       <use xlink:href="#m640851ce68" x="433.936136" y="274.84" style="stroke: #000000; stroke-width: 0.8"/>
      </g>
     </g>
     <g id="text_8">
      <!-- 0.75 -->
      <g transform="translate(422.803324 289.438438) scale(0.1 -0.1)">
       <use xlink:href="#DejaVuSans-30"/>
       <use xlink:href="#DejaVuSans-2e" transform="translate(63.623047 0)"/>
       <use xlink:href="#DejaVuSans-37" transform="translate(95.410156 0)"/>
       <use xlink:href="#DejaVuSans-35" transform="translate(159.033203 0)"/>
      </g>
     </g>
    </g>
    <g id="xtick_9">
     <g id="line2d_17">
      <path d="M 486.553182 274.84 
L 486.553182 26.88 
" clip-path="url(#pc72d2916e1)" style="fill: none; stroke: #eef0f3; stroke-width: 0.8; stroke-linecap: square"/>
     </g>
     <g id="line2d_18">
      <g>
       <use xlink:href="#m640851ce68" x="486.553182" y="274.84" style="stroke: #000000; stroke-width: 0.8"/>
      </g>
     </g>
     <g id="text_9">
      <!-- 1.00 -->
      <g transform="translate(475.420369 289.438438) scale(0.1 -0.1)">
       <use xlink:href="#DejaVuSans-31"/>
       <use xlink:href="#DejaVuSans-2e" transform="translate(63.623047 0)"/>
       <use xlink:href="#DejaVuSans-30" transform="translate(95.410156 0)"/>
       <use xlink:href="#DejaVuSans-30" transform="translate(159.033203 0)"/>
      </g>
     </g>
    </g>
    <g id="text_10">
     <!-- step along the unit direction -->
     <g transform="translate(205.256094 303.116562) scale(0.1 -0.1)">
      <defs>
       <path id="DejaVuSans-73" d="M 2834 3397 
L 2834 2853 
Q 2591 2978 2328 3040 
Q 2066 3103 1784 3103 
Q 1356 3103 1142 2972 
Q 928 2841 928 2578 
Q 928 2378 1081 2264 
Q 1234 2150 1697 2047 
L 1894 2003 
Q 2506 1872 2764 1633 
Q 3022 1394 3022 966 
Q 3022 478 2636 193 
Q 2250 -91 1575 -91 
Q 1294 -91 989 -36 
Q 684 19 347 128 
L 347 722 
Q 666 556 975 473 
Q 1284 391 1588 391 
Q 1994 391 2212 530 
Q 2431 669 2431 922 
Q 2431 1156 2273 1281 
Q 2116 1406 1581 1522 
L 1381 1569 
Q 847 1681 609 1914 
Q 372 2147 372 2553 
Q 372 3047 722 3315 
Q 1072 3584 1716 3584 
Q 2034 3584 2315 3537 
Q 2597 3491 2834 3397 
z
" transform="scale(0.015625)"/>
       <path id="DejaVuSans-74" d="M 1172 4494 
L 1172 3500 
L 2356 3500 
L 2356 3053 
L 1172 3053 
L 1172 1153 
Q 1172 725 1289 603 
Q 1406 481 1766 481 
L 2356 481 
L 2356 0 
L 1766 0 
Q 1100 0 847 248 
Q 594 497 594 1153 
L 594 3053 
L 172 3053 
L 172 3500 
L 594 3500 
L 594 4494 
L 1172 4494 
z
" transform="scale(0.015625)"/>
       <path id="DejaVuSans-65" d="M 3597 1894 
L 3597 1613 
L 953 1613 
Q 991 1019 1311 708 
Q 1631 397 2203 397 
Q 2534 397 2845 478 
Q 3156 559 3463 722 
L 3463 178 
Q 3153 47 2828 -22 
Q 2503 -91 2169 -91 
Q 1331 -91 842 396 
Q 353 884 353 1716 
Q 353 2575 817 3079 
Q 1281 3584 2069 3584 
Q 2775 3584 3186 3129 
Q 3597 2675 3597 1894 
z
M 3022 2063 
Q 3016 2534 2758 2815 
Q 2500 3097 2075 3097 
Q 1594 3097 1305 2825 
Q 1016 2553 972 2059 
L 3022 2063 
z
" transform="scale(0.015625)"/>
       <path id="DejaVuSans-70" d="M 1159 525 
L 1159 -1331 
L 581 -1331 
L 581 3500 
L 1159 3500 
L 1159 2969 
Q 1341 3281 1617 3432 
Q 1894 3584 2278 3584 
Q 2916 3584 3314 3078 
Q 3713 2572 3713 1747 
Q 3713 922 3314 415 
Q 2916 -91 2278 -91 
Q 1894 -91 1617 61 
Q 1341 213 1159 525 
z
M 3116 1747 
Q 3116 2381 2855 2742 
Q 2594 3103 2138 3103 
Q 1681 3103 1420 2742 
Q 1159 2381 1159 1747 
Q 1159 1113 1420 752 
Q 1681 391 2138 391 
Q 2594 391 2855 752 
Q 3116 1113 3116 1747 
z
" transform="scale(0.015625)"/>
       <path id="DejaVuSans-20" transform="scale(0.015625)"/>
       <path id="DejaVuSans-61" d="M 2194 1759 
Q 1497 1759 1228 1600 
Q 959 1441 959 1056 
Q 959 750 1161 570 
Q 1363 391 1709 391 
Q 2188 391 2477 730 
Q 2766 1069 2766 1631 
L 2766 1759 
L 2194 1759 
z
M 3341 1997 
L 3341 0 
L 2766 0 
L 2766 531 
Q 2569 213 2275 61 
Q 1981 -91 1556 -91 
Q 1019 -91 701 211 
Q 384 513 384 1019 
Q 384 1609 779 1909 
Q 1175 2209 1959 2209 
L 2766 2209 
L 2766 2266 
Q 2766 2663 2505 2880 
Q 2244 3097 1772 3097 
Q 1472 3097 1187 3025 
Q 903 2953 641 2809 
L 641 3341 
Q 956 3463 1253 3523 
Q 1550 3584 1831 3584 
Q 2591 3584 2966 3190 
Q 3341 2797 3341 1997 
z
" transform="scale(0.015625)"/>
       <path id="DejaVuSans-6c" d="M 603 4863 
L 1178 4863 
L 1178 0 
L 603 0 
L 603 4863 
z
" transform="scale(0.015625)"/>
       <path id="DejaVuSans-6f" d="M 1959 3097 
Q 1497 3097 1228 2736 
Q 959 2375 959 1747 
Q 959 1119 1226 758 
Q 1494 397 1959 397 
Q 2419 397 2687 759 
Q 2956 1122 2956 1747 
Q 2956 2369 2687 2733 
Q 2419 3097 1959 3097 
z
M 1959 3584 
Q 2709 3584 3137 3096 
Q 3566 2609 3566 1747 
Q 3566 888 3137 398 
Q 2709 -91 1959 -91 
Q 1206 -91 779 398 
Q 353 888 353 1747 
Q 353 2609 779 3096 
Q 1206 3584 1959 3584 
z
" transform="scale(0.015625)"/>
       <path id="DejaVuSans-6e" d="M 3513 2113 
L 3513 0 
L 2938 0 
L 2938 2094 
Q 2938 2591 2744 2837 
Q 2550 3084 2163 3084 
Q 1697 3084 1428 2787 
Q 1159 2491 1159 1978 
L 1159 0 
L 581 0 
L 581 3500 
L 1159 3500 
L 1159 2956 
Q 1366 3272 1645 3428 
Q 1925 3584 2291 3584 
Q 2894 3584 3203 3211 
Q 3513 2838 3513 2113 
z
" transform="scale(0.015625)"/>
       <path id="DejaVuSans-67" d="M 2906 1791 
Q 2906 2416 2648 2759 
Q 2391 3103 1925 3103 
Q 1463 3103 1205 2759 
Q 947 2416 947 1791 
Q 947 1169 1205 825 
Q 1463 481 1925 481 
Q 2391 481 2648 825 
Q 2906 1169 2906 1791 
z
M 3481 434 
Q 3481 -459 3084 -895 
Q 2688 -1331 1869 -1331 
Q 1566 -1331 1297 -1286 
Q 1028 -1241 775 -1147 
L 775 -588 
Q 1028 -725 1275 -790 
Q 1522 -856 1778 -856 
Q 2344 -856 2625 -561 
Q 2906 -266 2906 331 
L 2906 616 
Q 2728 306 2450 153 
Q 2172 0 1784 0 
Q 1141 0 747 490 
Q 353 981 353 1791 
Q 353 2603 747 3093 
Q 1141 3584 1784 3584 
Q 2172 3584 2450 3431 
Q 2728 3278 2906 2969 
L 2906 3500 
L 3481 3500 
L 3481 434 
z
" transform="scale(0.015625)"/>
       <path id="DejaVuSans-68" d="M 3513 2113 
L 3513 0 
L 2938 0 
L 2938 2094 
Q 2938 2591 2744 2837 
Q 2550 3084 2163 3084 
Q 1697 3084 1428 2787 
Q 1159 2491 1159 1978 
L 1159 0 
L 581 0 
L 581 4863 
L 1159 4863 
L 1159 2956 
Q 1366 3272 1645 3428 
Q 1925 3584 2291 3584 
Q 2894 3584 3203 3211 
Q 3513 2838 3513 2113 
z
" transform="scale(0.015625)"/>
       <path id="DejaVuSans-75" d="M 544 1381 
L 544 3500 
L 1119 3500 
L 1119 1403 
Q 1119 906 1312 657 
Q 1506 409 1894 409 
Q 2359 409 2629 706 
Q 2900 1003 2900 1516 
L 2900 3500 
L 3475 3500 
L 3475 0 
L 2900 0 
L 2900 538 
Q 2691 219 2414 64 
Q 2138 -91 1772 -91 
Q 1169 -91 856 284 
Q 544 659 544 1381 
z
M 1991 3584 
L 1991 3584 
z
" transform="scale(0.015625)"/>
       <path id="DejaVuSans-69" d="M 603 3500 
L 1178 3500 
L 1178 0 
L 603 0 
L 603 3500 
z
M 603 4863 
L 1178 4863 
L 1178 4134 
L 603 4134 
L 603 4863 
z
" transform="scale(0.015625)"/>
       <path id="DejaVuSans-64" d="M 2906 2969 
L 2906 4863 
L 3481 4863 
L 3481 0 
L 2906 0 
L 2906 525 
Q 2725 213 2448 61 
Q 2172 -91 1784 -91 
Q 1150 -91 751 415 
Q 353 922 353 1747 
Q 353 2572 751 3078 
Q 1150 3584 1784 3584 
Q 2172 3584 2448 3432 
Q 2725 3281 2906 2969 
z
M 947 1747 
Q 947 1113 1208 752 
Q 1469 391 1925 391 
Q 2381 391 2643 752 
Q 2906 1113 2906 1747 
Q 2906 2381 2643 2742 
Q 2381 3103 1925 3103 
Q 1469 3103 1208 2742 
Q 947 2381 947 1747 
z
" transform="scale(0.015625)"/>
       <path id="DejaVuSans-72" d="M 2631 2963 
Q 2534 3019 2420 3045 
Q 2306 3072 2169 3072 
Q 1681 3072 1420 2755 
Q 1159 2438 1159 1844 
L 1159 0 
L 581 0 
L 581 3500 
L 1159 3500 
L 1159 2956 
Q 1341 3275 1631 3429 
Q 1922 3584 2338 3584 
Q 2397 3584 2469 3576 
Q 2541 3569 2628 3553 
L 2631 2963 
z
" transform="scale(0.015625)"/>
       <path id="DejaVuSans-63" d="M 3122 3366 
L 3122 2828 
Q 2878 2963 2633 3030 
Q 2388 3097 2138 3097 
Q 1578 3097 1268 2742 
Q 959 2388 959 1747 
Q 959 1106 1268 751 
Q 1578 397 2138 397 
Q 2388 397 2633 464 
Q 2878 531 3122 666 
L 3122 134 
Q 2881 22 2623 -34 
Q 2366 -91 2075 -91 
Q 1284 -91 818 406 
Q 353 903 353 1747 
Q 353 2603 823 3093 
Q 1294 3584 2113 3584 
Q 2378 3584 2631 3529 
Q 2884 3475 3122 3366 
z
" transform="scale(0.015625)"/>
      </defs>
      <use xlink:href="#DejaVuSans-73"/>
      <use xlink:href="#DejaVuSans-74" transform="translate(52.099609 0)"/>
      <use xlink:href="#DejaVuSans-65" transform="translate(91.308594 0)"/>
      <use xlink:href="#DejaVuSans-70" transform="translate(152.832031 0)"/>
      <use xlink:href="#DejaVuSans-20" transform="translate(216.308594 0)"/>
      <use xlink:href="#DejaVuSans-61" transform="translate(248.095703 0)"/>
      <use xlink:href="#DejaVuSans-6c" transform="translate(309.375 0)"/>
      <use xlink:href="#DejaVuSans-6f" transform="translate(337.158203 0)"/>
      <use xlink:href="#DejaVuSans-6e" transform="translate(398.339844 0)"/>
      <use xlink:href="#DejaVuSans-67" transform="translate(461.71875 0)"/>
      <use xlink:href="#DejaVuSans-20" transform="translate(525.195312 0)"/>
      <use xlink:href="#DejaVuSans-74" transform="translate(556.982422 0)"/>
      <use xlink:href="#DejaVuSans-68" transform="translate(596.191406 0)"/>
      <use xlink:href="#DejaVuSans-65" transform="translate(659.570312 0)"/>
      <use xlink:href="#DejaVuSans-20" transform="translate(721.09375 0)"/>
      <use xlink:href="#DejaVuSans-75" transform="translate(752.880859 0)"/>
      <use xlink:href="#DejaVuSans-6e" transform="translate(816.259766 0)"/>
      <use xlink:href="#DejaVuSans-69" transform="translate(879.638672 0)"/>
      <use xlink:href="#DejaVuSans-74" transform="translate(907.421875 0)"/>
      <use xlink:href="#DejaVuSans-20" transform="translate(946.630859 0)"/>
      <use xlink:href="#DejaVuSans-64" transform="translate(978.417969 0)"/>
      <use xlink:href="#DejaVuSans-69" transform="translate(1041.894531 0)"/>
      <use xlink:href="#DejaVuSans-72" transform="translate(1069.677734 0)"/>
      <use xlink:href="#DejaVuSans-65" transform="translate(1108.541016 0)"/>
      <use xlink:href="#DejaVuSans-63" transform="translate(1170.064453 0)"/>
      <use xlink:href="#DejaVuSans-74" transform="translate(1225.044922 0)"/>
      <use xlink:href="#DejaVuSans-69" transform="translate(1264.253906 0)"/>
      <use xlink:href="#DejaVuSans-6f" transform="translate(1292.037109 0)"/>
      <use xlink:href="#DejaVuSans-6e" transform="translate(1353.21875 0)"/>
     </g>
    </g>
   </g>
   <g id="matplotlib.axis_2">
    <g id="ytick_1">
     <g id="line2d_19">
      <path d="M 44.57 263.732659 
L 507.6 263.732659 
" clip-path="url(#pc72d2916e1)" style="fill: none; stroke: #eef0f3; stroke-width: 0.8; stroke-linecap: square"/>
     </g>
     <g id="line2d_20">
      <defs>
       <path id="m4111006cde" d="M 0 0 
L -3.5 0 
" style="stroke: #000000; stroke-width: 0.8"/>
      </defs>
      <g>
       <use xlink:href="#m4111006cde" x="44.57" y="263.732659" style="stroke: #000000; stroke-width: 0.8"/>
      </g>
     </g>
     <g id="text_11">
      <!-- 0 -->
      <g transform="translate(31.2075 267.531878) scale(0.1 -0.1)">
       <use xlink:href="#DejaVuSans-30"/>
      </g>
     </g>
    </g>
    <g id="ytick_2">
     <g id="line2d_21">
      <path d="M 44.57 217.399865 
L 507.6 217.399865 
" clip-path="url(#pc72d2916e1)" style="fill: none; stroke: #eef0f3; stroke-width: 0.8; stroke-linecap: square"/>
     </g>
     <g id="line2d_22">
      <g>
       <use xlink:href="#m4111006cde" x="44.57" y="217.399865" style="stroke: #000000; stroke-width: 0.8"/>
      </g>
     </g>
     <g id="text_12">
      <!-- 2 -->
      <g transform="translate(31.2075 221.199084) scale(0.1 -0.1)">
       <use xlink:href="#DejaVuSans-32"/>
      </g>
     </g>
    </g>
    <g id="ytick_3">
     <g id="line2d_23">
      <path d="M 44.57 171.067071 
L 507.6 171.067071 
" clip-path="url(#pc72d2916e1)" style="fill: none; stroke: #eef0f3; stroke-width: 0.8; stroke-linecap: square"/>
     </g>
     <g id="line2d_24">
      <g>
       <use xlink:href="#m4111006cde" x="44.57" y="171.067071" style="stroke: #000000; stroke-width: 0.8"/>
      </g>
     </g>
     <g id="text_13">
      <!-- 4 -->
      <g transform="translate(31.2075 174.86629) scale(0.1 -0.1)">
       <defs>
        <path id="DejaVuSans-34" d="M 2419 4116 
L 825 1625 
L 2419 1625 
L 2419 4116 
z
M 2253 4666 
L 3047 4666 
L 3047 1625 
L 3713 1625 
L 3713 1100 
L 3047 1100 
L 3047 0 
L 2419 0 
L 2419 1100 
L 313 1100 
L 313 1709 
L 2253 4666 
z
" transform="scale(0.015625)"/>
       </defs>
       <use xlink:href="#DejaVuSans-34"/>
      </g>
     </g>
    </g>
    <g id="ytick_4">
     <g id="line2d_25">
      <path d="M 44.57 124.734277 
L 507.6 124.734277 
" clip-path="url(#pc72d2916e1)" style="fill: none; stroke: #eef0f3; stroke-width: 0.8; stroke-linecap: square"/>
     </g>
     <g id="line2d_26">
      <g>
       <use xlink:href="#m4111006cde" x="44.57" y="124.734277" style="stroke: #000000; stroke-width: 0.8"/>
      </g>
     </g>
     <g id="text_14">
      <!-- 6 -->
      <g transform="translate(31.2075 128.533496) scale(0.1 -0.1)">
       <defs>
        <path id="DejaVuSans-36" d="M 2113 2584 
Q 1688 2584 1439 2293 
Q 1191 2003 1191 1497 
Q 1191 994 1439 701 
Q 1688 409 2113 409 
Q 2538 409 2786 701 
Q 3034 994 3034 1497 
Q 3034 2003 2786 2293 
Q 2538 2584 2113 2584 
z
M 3366 4563 
L 3366 3988 
Q 3128 4100 2886 4159 
Q 2644 4219 2406 4219 
Q 1781 4219 1451 3797 
Q 1122 3375 1075 2522 
Q 1259 2794 1537 2939 
Q 1816 3084 2150 3084 
Q 2853 3084 3261 2657 
Q 3669 2231 3669 1497 
Q 3669 778 3244 343 
Q 2819 -91 2113 -91 
Q 1303 -91 875 529 
Q 447 1150 447 2328 
Q 447 3434 972 4092 
Q 1497 4750 2381 4750 
Q 2619 4750 2861 4703 
Q 3103 4656 3366 4563 
z
" transform="scale(0.015625)"/>
       </defs>
       <use xlink:href="#DejaVuSans-36"/>
      </g>
     </g>
    </g>
    <g id="ytick_5">
     <g id="line2d_27">
      <path d="M 44.57 78.401483 
L 507.6 78.401483 
" clip-path="url(#pc72d2916e1)" style="fill: none; stroke: #eef0f3; stroke-width: 0.8; stroke-linecap: square"/>
     </g>
     <g id="line2d_28">
      <g>
       <use xlink:href="#m4111006cde" x="44.57" y="78.401483" style="stroke: #000000; stroke-width: 0.8"/>
      </g>
     </g>
     <g id="text_15">
      <!-- 8 -->
      <g transform="translate(31.2075 82.200702) scale(0.1 -0.1)">
       <defs>
        <path id="DejaVuSans-38" d="M 2034 2216 
Q 1584 2216 1326 1975 
Q 1069 1734 1069 1313 
Q 1069 891 1326 650 
Q 1584 409 2034 409 
Q 2484 409 2743 651 
Q 3003 894 3003 1313 
Q 3003 1734 2745 1975 
Q 2488 2216 2034 2216 
z
M 1403 2484 
Q 997 2584 770 2862 
Q 544 3141 544 3541 
Q 544 4100 942 4425 
Q 1341 4750 2034 4750 
Q 2731 4750 3128 4425 
Q 3525 4100 3525 3541 
Q 3525 3141 3298 2862 
Q 3072 2584 2669 2484 
Q 3125 2378 3379 2068 
Q 3634 1759 3634 1313 
Q 3634 634 3220 271 
Q 2806 -91 2034 -91 
Q 1263 -91 848 271 
Q 434 634 434 1313 
Q 434 1759 690 2068 
Q 947 2378 1403 2484 
z
M 1172 3481 
Q 1172 3119 1398 2916 
Q 1625 2713 2034 2713 
Q 2441 2713 2670 2916 
Q 2900 3119 2900 3481 
Q 2900 3844 2670 4047 
Q 2441 4250 2034 4250 
Q 1625 4250 1398 4047 
Q 1172 3844 1172 3481 
z
" transform="scale(0.015625)"/>
       </defs>
       <use xlink:href="#DejaVuSans-38"/>
      </g>
     </g>
    </g>
    <g id="ytick_6">
     <g id="line2d_29">
      <path d="M 44.57 32.06869 
L 507.6 32.06869 
" clip-path="url(#pc72d2916e1)" style="fill: none; stroke: #eef0f3; stroke-width: 0.8; stroke-linecap: square"/>
     </g>
     <g id="line2d_30">
      <g>
       <use xlink:href="#m4111006cde" x="44.57" y="32.06869" style="stroke: #000000; stroke-width: 0.8"/>
      </g>
     </g>
     <g id="text_16">
      <!-- 10 -->
      <g transform="translate(24.845 35.867908) scale(0.1 -0.1)">
       <use xlink:href="#DejaVuSans-31"/>
       <use xlink:href="#DejaVuSans-30" transform="translate(63.623047 0)"/>
      </g>
     </g>
    </g>
    <g id="text_17">
     <!-- loss -->
     <g transform="translate(18.765313 160.517813) rotate(-90) scale(0.1 -0.1)">
      <use xlink:href="#DejaVuSans-6c"/>
      <use xlink:href="#DejaVuSans-6f" transform="translate(27.783203 0)"/>
      <use xlink:href="#DejaVuSans-73" transform="translate(88.964844 0)"/>
      <use xlink:href="#DejaVuSans-73" transform="translate(141.064453 0)"/>
     </g>
    </g>
   </g>
   <g id="line2d_31">
    <path d="M 65.616818 38.150909 
L 72.632424 53.131633 
L 79.64803 67.675001 
L 86.663636 81.826725 
L 93.679242 95.533412 
L 100.694848 108.878497 
L 107.710455 121.838335 
L 114.726061 134.471272 
L 121.741667 146.849162 
L 128.757273 158.932158 
L 135.772879 170.761332 
L 142.788485 182.289963 
L 149.804091 193.334757 
L 156.819697 203.720021 
L 163.835303 213.23386 
L 170.850909 221.921482 
L 177.866515 229.748015 
L 184.882121 236.673018 
L 191.897727 242.723493 
L 198.913333 247.835268 
L 205.928939 251.980029 
L 212.944545 255.16138 
L 219.960152 257.453946 
L 226.975758 259.128537 
L 233.991364 260.374588 
L 241.00697 261.315611 
L 248.022576 262.047594 
L 255.038182 262.621756 
L 262.053788 263.099669 
L 269.069394 263.432534 
L 276.085 263.569091 
L 283.100606 263.440739 
L 290.116212 263.154299 
L 297.131818 262.725478 
L 304.147424 262.180748 
L 311.16303 261.518553 
L 318.178636 260.643055 
L 325.194242 259.577445 
L 332.209848 258.252959 
L 339.225455 256.625544 
L 346.241061 254.703651 
L 353.256667 252.409089 
L 360.272273 249.791695 
L 367.287879 246.874845 
L 374.303485 243.830848 
L 381.319091 240.762699 
L 388.334697 237.603984 
L 395.350303 234.362018 
L 402.365909 231.143898 
L 409.381515 227.986589 
L 416.397121 224.809736 
L 423.412727 221.579174 
L 430.428333 218.268718 
L 437.443939 215.026534 
L 444.459545 211.75368 
L 451.475152 208.453059 
L 458.490758 205.098513 
L 465.506364 201.630028 
L 472.52197 198.05492 
L 479.537576 194.449121 
L 486.553182 190.820326 
" clip-path="url(#pc72d2916e1)" style="fill: none; stroke: #dc2626; stroke-width: 2.2; stroke-linecap: square"/>
   </g>
   <g id="line2d_32">
    <path d="M 65.616818 263.5538 
L 72.632424 263.554811 
L 79.64803 263.555788 
L 86.663636 263.556731 
L 93.679242 263.557639 
L 100.694848 263.558514 
L 107.710455 263.559354 
L 114.726061 263.560154 
L 121.741667 263.560915 
L 128.757273 263.561643 
L 135.772879 263.562335 
L 142.788485 263.562994 
L 149.804091 263.563618 
L 156.819697 263.564208 
L 163.835303 263.564765 
L 170.850909 263.565287 
L 177.866515 263.565774 
L 184.882121 263.566229 
L 191.897727 263.566649 
L 198.913333 263.567036 
L 205.928939 263.567389 
L 212.944545 263.567708 
L 219.960152 263.567994 
L 226.975758 263.568247 
L 233.991364 263.568466 
L 241.00697 263.568653 
L 248.022576 263.568806 
L 255.038182 263.568927 
L 262.053788 263.569014 
L 269.069394 263.569069 
L 276.085 263.569091 
L 283.100606 263.569081 
L 290.116212 263.569038 
L 297.131818 263.568964 
L 304.147424 263.568858 
L 311.16303 263.56872 
L 318.178636 263.56855 
L 325.194242 263.568349 
L 332.209848 263.568117 
L 339.225455 263.567853 
L 346.241061 263.567556 
L 353.256667 263.567229 
L 360.272273 263.566837 
L 367.287879 263.566385 
L 374.303485 263.565896 
L 381.319091 263.56537 
L 388.334697 263.564805 
L 395.350303 263.564176 
L 402.365909 263.563491 
L 409.381515 263.562758 
L 416.397121 263.561967 
L 423.412727 263.561123 
L 430.428333 263.560223 
L 437.443939 263.559264 
L 444.459545 263.557777 
L 451.475152 263.554705 
L 458.490758 263.551271 
L 465.506364 263.54748 
L 472.52197 263.543338 
L 479.537576 263.538849 
L 486.553182 263.534018 
" clip-path="url(#pc72d2916e1)" style="fill: none; stroke: #2563eb; stroke-width: 2.2; stroke-linecap: square"/>
   </g>
   <g id="patch_3">
    <path d="M 44.57 274.84 
L 44.57 26.88 
" style="fill: none; stroke: #000000; stroke-width: 0.8; stroke-linejoin: miter; stroke-linecap: square"/>
   </g>
   <g id="patch_4">
    <path d="M 44.57 274.84 
L 507.6 274.84 
" style="fill: none; stroke: #000000; stroke-width: 0.8; stroke-linejoin: miter; stroke-linecap: square"/>
   </g>
   <g id="text_18">
    <!-- Loss landscape of the trained MLP, sliced two ways -->
    <g transform="translate(122.520625 20.88) scale(0.12 -0.12)">
     <defs>
      <path id="DejaVuSans-4c" d="M 628 4666 
L 1259 4666 
L 1259 531 
L 3531 531 
L 3531 0 
L 628 0 
L 628 4666 
z
" transform="scale(0.015625)"/>
      <path id="DejaVuSans-66" d="M 2375 4863 
L 2375 4384 
L 1825 4384 
Q 1516 4384 1395 4259 
Q 1275 4134 1275 3809 
L 1275 3500 
L 2222 3500 
L 2222 3053 
L 1275 3053 
L 1275 0 
L 697 0 
L 697 3053 
L 147 3053 
L 147 3500 
L 697 3500 
L 697 3744 
Q 697 4328 969 4595 
Q 1241 4863 1831 4863 
L 2375 4863 
z
" transform="scale(0.015625)"/>
      <path id="DejaVuSans-4d" d="M 628 4666 
L 1569 4666 
L 2759 1491 
L 3956 4666 
L 4897 4666 
L 4897 0 
L 4281 0 
L 4281 4097 
L 3078 897 
L 2444 897 
L 1241 4097 
L 1241 0 
L 628 0 
L 628 4666 
z
" transform="scale(0.015625)"/>
      <path id="DejaVuSans-50" d="M 1259 4147 
L 1259 2394 
L 2053 2394 
Q 2494 2394 2734 2622 
Q 2975 2850 2975 3272 
Q 2975 3691 2734 3919 
Q 2494 4147 2053 4147 
L 1259 4147 
z
M 628 4666 
L 2053 4666 
Q 2838 4666 3239 4311 
Q 3641 3956 3641 3272 
Q 3641 2581 3239 2228 
Q 2838 1875 2053 1875 
L 1259 1875 
L 1259 0 
L 628 0 
L 628 4666 
z
" transform="scale(0.015625)"/>
      <path id="DejaVuSans-2c" d="M 750 794 
L 1409 794 
L 1409 256 
L 897 -744 
L 494 -744 
L 750 256 
L 750 794 
z
" transform="scale(0.015625)"/>
      <path id="DejaVuSans-77" d="M 269 3500 
L 844 3500 
L 1563 769 
L 2278 3500 
L 2956 3500 
L 3675 769 
L 4391 3500 
L 4966 3500 
L 4050 0 
L 3372 0 
L 2619 2869 
L 1863 0 
L 1184 0 
L 269 3500 
z
" transform="scale(0.015625)"/>
      <path id="DejaVuSans-79" d="M 2059 -325 
Q 1816 -950 1584 -1140 
Q 1353 -1331 966 -1331 
L 506 -1331 
L 506 -850 
L 844 -850 
Q 1081 -850 1212 -737 
Q 1344 -625 1503 -206 
L 1606 56 
L 191 3500 
L 800 3500 
L 1894 763 
L 2988 3500 
L 3597 3500 
L 2059 -325 
z
" transform="scale(0.015625)"/>
     </defs>
     <use xlink:href="#DejaVuSans-4c"/>
     <use xlink:href="#DejaVuSans-6f" transform="translate(53.962891 0)"/>
     <use xlink:href="#DejaVuSans-73" transform="translate(115.144531 0)"/>
     <use xlink:href="#DejaVuSans-73" transform="translate(167.244141 0)"/>
     <use xlink:href="#DejaVuSans-20" transform="translate(219.34375 0)"/>
     <use xlink:href="#DejaVuSans-6c" transform="translate(251.130859 0)"/>
     <use xlink:href="#DejaVuSans-61" transform="translate(278.914062 0)"/>
     <use xlink:href="#DejaVuSans-6e" transform="translate(340.193359 0)"/>
     <use xlink:href="#DejaVuSans-64" transform="translate(403.572266 0)"/>
     <use xlink:href="#DejaVuSans-73" transform="translate(467.048828 0)"/>
     <use xlink:href="#DejaVuSans-63" transform="translate(519.148438 0)"/>
     <use xlink:href="#DejaVuSans-61" transform="translate(574.128906 0)"/>
     <use xlink:href="#DejaVuSans-70" transform="translate(635.408203 0)"/>
     <use xlink:href="#DejaVuSans-65" transform="translate(698.884766 0)"/>
     <use xlink:href="#DejaVuSans-20" transform="translate(760.408203 0)"/>
     <use xlink:href="#DejaVuSans-6f" transform="translate(792.195312 0)"/>
     <use xlink:href="#DejaVuSans-66" transform="translate(853.376953 0)"/>
     <use xlink:href="#DejaVuSans-20" transform="translate(888.582031 0)"/>
     <use xlink:href="#DejaVuSans-74" transform="translate(920.369141 0)"/>
     <use xlink:href="#DejaVuSans-68" transform="translate(959.578125 0)"/>
     <use xlink:href="#DejaVuSans-65" transform="translate(1022.957031 0)"/>
     <use xlink:href="#DejaVuSans-20" transform="translate(1084.480469 0)"/>
     <use xlink:href="#DejaVuSans-74" transform="translate(1116.267578 0)"/>
     <use xlink:href="#DejaVuSans-72" transform="translate(1155.476562 0)"/>
     <use xlink:href="#DejaVuSans-61" transform="translate(1196.589844 0)"/>
     <use xlink:href="#DejaVuSans-69" transform="translate(1257.869141 0)"/>
     <use xlink:href="#DejaVuSans-6e" transform="translate(1285.652344 0)"/>
     <use xlink:href="#DejaVuSans-65" transform="translate(1349.03125 0)"/>
     <use xlink:href="#DejaVuSans-64" transform="translate(1410.554688 0)"/>
     <use xlink:href="#DejaVuSans-20" transform="translate(1474.03125 0)"/>
     <use xlink:href="#DejaVuSans-4d" transform="translate(1505.818359 0)"/>
     <use xlink:href="#DejaVuSans-4c" transform="translate(1592.097656 0)"/>
     <use xlink:href="#DejaVuSans-50" transform="translate(1647.810547 0)"/>
     <use xlink:href="#DejaVuSans-2c" transform="translate(1708.113281 0)"/>
     <use xlink:href="#DejaVuSans-20" transform="translate(1739.900391 0)"/>
     <use xlink:href="#DejaVuSans-73" transform="translate(1771.6875 0)"/>
     <use xlink:href="#DejaVuSans-6c" transform="translate(1823.787109 0)"/>
     <use xlink:href="#DejaVuSans-69" transform="translate(1851.570312 0)"/>
     <use xlink:href="#DejaVuSans-63" transform="translate(1879.353516 0)"/>
     <use xlink:href="#DejaVuSans-65" transform="translate(1934.333984 0)"/>
     <use xlink:href="#DejaVuSans-64" transform="translate(1995.857422 0)"/>
     <use xlink:href="#DejaVuSans-20" transform="translate(2059.333984 0)"/>
     <use xlink:href="#DejaVuSans-74" transform="translate(2091.121094 0)"/>
     <use xlink:href="#DejaVuSans-77" transform="translate(2130.330078 0)"/>
     <use xlink:href="#DejaVuSans-6f" transform="translate(2212.117188 0)"/>
     <use xlink:href="#DejaVuSans-20" transform="translate(2273.298828 0)"/>
     <use xlink:href="#DejaVuSans-77" transform="translate(2305.085938 0)"/>
     <use xlink:href="#DejaVuSans-61" transform="translate(2386.873047 0)"/>
     <use xlink:href="#DejaVuSans-79" transform="translate(2448.152344 0)"/>
     <use xlink:href="#DejaVuSans-73" transform="translate(2507.332031 0)"/>
    </g>
   </g>
   <g id="legend_1">
    <g id="line2d_33">
     <path d="M 294.73125 39.978438 
L 304.73125 39.978438 
L 314.73125 39.978438 
" style="fill: none; stroke: #dc2626; stroke-width: 2.2; stroke-linecap: square"/>
    </g>
    <g id="text_19">
     <!-- sharpest direction (lambda = 11.8) -->
     <g transform="translate(322.73125 43.478438) scale(0.1 -0.1)">
      <defs>
       <path id="DejaVuSans-28" d="M 1984 4856 
Q 1566 4138 1362 3434 
Q 1159 2731 1159 2009 
Q 1159 1288 1364 580 
Q 1569 -128 1984 -844 
L 1484 -844 
Q 1016 -109 783 600 
Q 550 1309 550 2009 
Q 550 2706 781 3412 
Q 1013 4119 1484 4856 
L 1984 4856 
z
" transform="scale(0.015625)"/>
       <path id="DejaVuSans-6d" d="M 3328 2828 
Q 3544 3216 3844 3400 
Q 4144 3584 4550 3584 
Q 5097 3584 5394 3201 
Q 5691 2819 5691 2113 
L 5691 0 
L 5113 0 
L 5113 2094 
Q 5113 2597 4934 2840 
Q 4756 3084 4391 3084 
Q 3944 3084 3684 2787 
Q 3425 2491 3425 1978 
L 3425 0 
L 2847 0 
L 2847 2094 
Q 2847 2600 2669 2842 
Q 2491 3084 2119 3084 
Q 1678 3084 1418 2786 
Q 1159 2488 1159 1978 
L 1159 0 
L 581 0 
L 581 3500 
L 1159 3500 
L 1159 2956 
Q 1356 3278 1631 3431 
Q 1906 3584 2284 3584 
Q 2666 3584 2933 3390 
Q 3200 3197 3328 2828 
z
" transform="scale(0.015625)"/>
       <path id="DejaVuSans-62" d="M 3116 1747 
Q 3116 2381 2855 2742 
Q 2594 3103 2138 3103 
Q 1681 3103 1420 2742 
Q 1159 2381 1159 1747 
Q 1159 1113 1420 752 
Q 1681 391 2138 391 
Q 2594 391 2855 752 
Q 3116 1113 3116 1747 
z
M 1159 2969 
Q 1341 3281 1617 3432 
Q 1894 3584 2278 3584 
Q 2916 3584 3314 3078 
Q 3713 2572 3713 1747 
Q 3713 922 3314 415 
Q 2916 -91 2278 -91 
Q 1894 -91 1617 61 
Q 1341 213 1159 525 
L 1159 0 
L 581 0 
L 581 4863 
L 1159 4863 
L 1159 2969 
z
" transform="scale(0.015625)"/>
       <path id="DejaVuSans-3d" d="M 678 2906 
L 4684 2906 
L 4684 2381 
L 678 2381 
L 678 2906 
z
M 678 1631 
L 4684 1631 
L 4684 1100 
L 678 1100 
L 678 1631 
z
" transform="scale(0.015625)"/>
       <path id="DejaVuSans-29" d="M 513 4856 
L 1013 4856 
Q 1481 4119 1714 3412 
Q 1947 2706 1947 2009 
Q 1947 1309 1714 600 
Q 1481 -109 1013 -844 
L 513 -844 
Q 928 -128 1133 580 
Q 1338 1288 1338 2009 
Q 1338 2731 1133 3434 
Q 928 4138 513 4856 
z
" transform="scale(0.015625)"/>
      </defs>
      <use xlink:href="#DejaVuSans-73"/>
      <use xlink:href="#DejaVuSans-68" transform="translate(52.099609 0)"/>
      <use xlink:href="#DejaVuSans-61" transform="translate(115.478516 0)"/>
      <use xlink:href="#DejaVuSans-72" transform="translate(176.757812 0)"/>
      <use xlink:href="#DejaVuSans-70" transform="translate(217.871094 0)"/>
      <use xlink:href="#DejaVuSans-65" transform="translate(281.347656 0)"/>
      <use xlink:href="#DejaVuSans-73" transform="translate(342.871094 0)"/>
      <use xlink:href="#DejaVuSans-74" transform="translate(394.970703 0)"/>
      <use xlink:href="#DejaVuSans-20" transform="translate(434.179688 0)"/>
      <use xlink:href="#DejaVuSans-64" transform="translate(465.966797 0)"/>
      <use xlink:href="#DejaVuSans-69" transform="translate(529.443359 0)"/>
      <use xlink:href="#DejaVuSans-72" transform="translate(557.226562 0)"/>
      <use xlink:href="#DejaVuSans-65" transform="translate(596.089844 0)"/>
      <use xlink:href="#DejaVuSans-63" transform="translate(657.613281 0)"/>
      <use xlink:href="#DejaVuSans-74" transform="translate(712.59375 0)"/>
      <use xlink:href="#DejaVuSans-69" transform="translate(751.802734 0)"/>
      <use xlink:href="#DejaVuSans-6f" transform="translate(779.585938 0)"/>
      <use xlink:href="#DejaVuSans-6e" transform="translate(840.767578 0)"/>
      <use xlink:href="#DejaVuSans-20" transform="translate(904.146484 0)"/>
      <use xlink:href="#DejaVuSans-28" transform="translate(935.933594 0)"/>
      <use xlink:href="#DejaVuSans-6c" transform="translate(974.947266 0)"/>
      <use xlink:href="#DejaVuSans-61" transform="translate(1002.730469 0)"/>
      <use xlink:href="#DejaVuSans-6d" transform="translate(1064.009766 0)"/>
      <use xlink:href="#DejaVuSans-62" transform="translate(1161.421875 0)"/>
      <use xlink:href="#DejaVuSans-64" transform="translate(1224.898438 0)"/>
      <use xlink:href="#DejaVuSans-61" transform="translate(1288.375 0)"/>
      <use xlink:href="#DejaVuSans-20" transform="translate(1349.654297 0)"/>
      <use xlink:href="#DejaVuSans-3d" transform="translate(1381.441406 0)"/>
      <use xlink:href="#DejaVuSans-20" transform="translate(1465.230469 0)"/>
      <use xlink:href="#DejaVuSans-31" transform="translate(1497.017578 0)"/>
      <use xlink:href="#DejaVuSans-31" transform="translate(1560.640625 0)"/>
      <use xlink:href="#DejaVuSans-2e" transform="translate(1624.263672 0)"/>
      <use xlink:href="#DejaVuSans-38" transform="translate(1656.050781 0)"/>
      <use xlink:href="#DejaVuSans-29" transform="translate(1719.673828 0)"/>
     </g>
    </g>
    <g id="line2d_34">
     <path d="M 294.73125 54.656563 
L 304.73125 54.656563 
L 314.73125 54.656563 
" style="fill: none; stroke: #2563eb; stroke-width: 2.2; stroke-linecap: square"/>
    </g>
    <g id="text_20">
     <!-- a random direction -->
     <g transform="translate(322.73125 58.156563) scale(0.1 -0.1)">
      <use xlink:href="#DejaVuSans-61"/>
      <use xlink:href="#DejaVuSans-20" transform="translate(61.279297 0)"/>
      <use xlink:href="#DejaVuSans-72" transform="translate(93.066406 0)"/>
      <use xlink:href="#DejaVuSans-61" transform="translate(134.179688 0)"/>
      <use xlink:href="#DejaVuSans-6e" transform="translate(195.458984 0)"/>
      <use xlink:href="#DejaVuSans-64" transform="translate(258.837891 0)"/>
      <use xlink:href="#DejaVuSans-6f" transform="translate(322.314453 0)"/>
      <use xlink:href="#DejaVuSans-6d" transform="translate(383.496094 0)"/>
      <use xlink:href="#DejaVuSans-20" transform="translate(480.908203 0)"/>
      <use xlink:href="#DejaVuSans-64" transform="translate(512.695312 0)"/>
      <use xlink:href="#DejaVuSans-69" transform="translate(576.171875 0)"/>
      <use xlink:href="#DejaVuSans-72" transform="translate(603.955078 0)"/>
      <use xlink:href="#DejaVuSans-65" transform="translate(642.818359 0)"/>
      <use xlink:href="#DejaVuSans-63" transform="translate(704.341797 0)"/>
      <use xlink:href="#DejaVuSans-74" transform="translate(759.322266 0)"/>
      <use xlink:href="#DejaVuSans-69" transform="translate(798.53125 0)"/>
      <use xlink:href="#DejaVuSans-6f" transform="translate(826.314453 0)"/>
      <use xlink:href="#DejaVuSans-6e" transform="translate(887.496094 0)"/>
     </g>
    </g>
   </g>
  </g>
 </g>
 <defs>
  <clipPath id="pc72d2916e1">
   <rect x="44.57" y="26.88" width="463.03" height="247.96"/>
  </clipPath>
 </defs>
</svg>
