<?xml version="1.0" encoding="utf-8" standalone="no"?>
<!DOCTYPE svg PUBLIC "-//W3C//DTD SVG 1.1//EN"
  "http://www.w3.org/Graphics/SVG/1.1/DTD/svg11.dtd">
<svg xmlns:xlink="http://www.w3.org/1999/xlink" width="480.266901pt" height="206.949pt" viewBox="0 0 480.266901 206.949" xmlns="http://www.w3.org/2000/svg" version="1.1">
 <metadata>
  <rdf:RDF xmlns:dc="http://purl.org/dc/elements/1.1/" xmlns:cc="http://creativecommons.org/ns#" xmlns:rdf="http://www.w3.org/1999/02/22-rdf-syntax-ns#">
   <cc:Work>
    <dc:type rdf:resource="http://purl.org/dc/dcmitype/StillImage"/>
    <dc:date>2026-06-09T15:24:39.873810</dc:date>
    <dc:format>image/svg+xml</dc:format>
    <dc:creator>
     <cc:Agent>
      <dc:title>Matplotlib v3.10.9, https://matplotlib.org/</dc:title>
     </cc:Agent>
    </dc:creator>
   </cc:Work>
  </rdf:RDF>
 </metadata>
 <defs>
  <style type="text/css">*{stroke-linejoin: round; stroke-linecap: butt}</style>
 </defs>
 <g id="figure_1">
  <g id="patch_1">
   <path d="M 0 206.949 
L 480.266901 206.949 
L 480.266901 0 
L 0 0 
z
" style="fill: #ffffff"/>
  </g>
  <g id="axes_1">
   <g id="patch_2">
    <path d="M 45.7 170.644 
L 241.021901 170.644 
L 241.021901 20.1 
L 45.7 20.1 
z
" style="fill: #ffffff"/>
   </g>
   <g id="matplotlib.axis_1">
    <g id="xtick_1">
     <g id="line2d_1">
      <path d="M 79.944749 170.644 
L 79.944749 20.1 
" clip-path="url(#p9d029a871d)" style="fill: none; stroke: #e8e8e8; stroke-width: 0.6; stroke-linecap: square"/>
     </g>
     <g id="line2d_2">
      <defs>
       <path id="m1518b1d925" d="M 0 0 
L 0 3.5 
" style="stroke: #1a1a1a; stroke-width: 0.8"/>
      </defs>
      <g>
       <use xlink:href="#m1518b1d925" x="79.944749" y="170.644" style="fill: #1a1a1a; stroke: #1a1a1a; stroke-width: 0.8"/>
      </g>
     </g>
     <g id="text_1">
      <!-- $\mathdefault{2^{1}}$ -->
      <g style="fill: #1a1a1a" transform="translate(75.574749 184.132203) scale(0.095 -0.095)">
       <defs>
        <path id="STIXGeneral-Regular-32" d="M 3034 877 
L 2688 0 
L 186 0 
L 186 77 
L 1325 1286 
Q 1773 1754 1965 2144 
Q 2157 2534 2157 2950 
Q 2157 3379 1920 3616 
Q 1683 3853 1267 3853 
Q 922 3853 720 3673 
Q 518 3494 326 3021 
L 192 3053 
Q 301 3648 630 3987 
Q 960 4326 1523 4326 
Q 2054 4326 2380 4006 
Q 2707 3686 2707 3200 
Q 2707 2477 1888 1613 
L 832 486 
L 2330 486 
Q 2541 486 2665 569 
Q 2790 653 2944 915 
L 3034 877 
z
" transform="scale(0.015625)"/>
        <path id="STIXGeneral-Regular-31" d="M 2522 0 
L 755 0 
L 755 96 
Q 1107 115 1235 227 
Q 1363 339 1363 608 
L 1363 3482 
Q 1363 3795 1171 3795 
Q 1082 3795 883 3718 
L 710 3654 
L 710 3744 
L 1856 4326 
L 1914 4307 
L 1914 486 
Q 1914 275 2042 185 
Q 2170 96 2522 96 
L 2522 0 
z
" transform="scale(0.015625)"/>
       </defs>
       <use xlink:href="#STIXGeneral-Regular-32" transform="translate(0 0.684375)"/>
       <use xlink:href="#STIXGeneral-Regular-31" transform="translate(51.574985 36.684375) scale(0.7)"/>
      </g>
     </g>
    </g>
    <g id="xtick_2">
     <g id="line2d_3">
      <path d="M 130.67771 170.644 
L 130.67771 20.1 
" clip-path="url(#p9d029a871d)" style="fill: none; stroke: #e8e8e8; stroke-width: 0.6; stroke-linecap: square"/>
     </g>
     <g id="line2d_4">
      <g>
       <use xlink:href="#m1518b1d925" x="130.67771" y="170.644" style="fill: #1a1a1a; stroke: #1a1a1a; stroke-width: 0.8"/>
      </g>
     </g>
     <g id="text_2">
      <!-- $\mathdefault{2^{3}}$ -->
      <g style="fill: #1a1a1a" transform="translate(126.30771 184.132203) scale(0.095 -0.095)">
       <defs>
        <path id="STIXGeneral-Regular-33" d="M 390 3264 
L 288 3290 
Q 435 3770 748 4048 
Q 1062 4326 1542 4326 
Q 1990 4326 2265 4083 
Q 2541 3840 2541 3450 
Q 2541 2925 1946 2566 
Q 2298 2413 2477 2227 
Q 2758 1914 2758 1402 
Q 2758 890 2464 506 
Q 2246 211 1840 60 
Q 1434 -90 979 -90 
Q 262 -90 262 275 
Q 262 378 339 442 
Q 416 506 525 506 
Q 685 506 915 339 
Q 1197 141 1466 141 
Q 1818 141 2058 425 
Q 2298 710 2298 1120 
Q 2298 1856 1632 2048 
Q 1434 2112 979 2112 
L 979 2202 
Q 1338 2323 1517 2432 
Q 2035 2726 2035 3290 
Q 2035 3610 1852 3776 
Q 1670 3942 1344 3942 
Q 768 3942 390 3264 
z
" transform="scale(0.015625)"/>
       </defs>
       <use xlink:href="#STIXGeneral-Regular-32" transform="translate(0 0.684375)"/>
       <use xlink:href="#STIXGeneral-Regular-33" transform="translate(51.574985 36.684375) scale(0.7)"/>
      </g>
     </g>
    </g>
    <g id="xtick_3">
     <g id="line2d_5">
      <path d="M 181.410671 170.644 
L 181.410671 20.1 
" clip-path="url(#p9d029a871d)" style="fill: none; stroke: #e8e8e8; stroke-width: 0.6; stroke-linecap: square"/>
     </g>
     <g id="line2d_6">
      <g>
       <use xlink:href="#m1518b1d925" x="181.410671" y="170.644" style="fill: #1a1a1a; stroke: #1a1a1a; stroke-width: 0.8"/>
      </g>
     </g>
     <g id="text_3">
      <!-- $\mathdefault{2^{5}}$ -->
      <g style="fill: #1a1a1a" transform="translate(177.040671 184.132203) scale(0.095 -0.095)">
       <defs>
        <path id="STIXGeneral-Regular-35" d="M 2803 4358 
L 2573 3814 
Q 2534 3731 2400 3731 
L 1158 3731 
L 902 3187 
Q 1606 3053 1920 2896 
Q 2234 2739 2502 2368 
Q 2726 2061 2726 1555 
Q 2726 1094 2576 780 
Q 2426 467 2099 224 
Q 1664 -90 1011 -90 
Q 646 -90 422 19 
Q 198 128 198 307 
Q 198 550 486 550 
Q 717 550 960 352 
Q 1210 147 1414 147 
Q 1747 147 2012 480 
Q 2278 813 2278 1229 
Q 2278 1843 1850 2189 
Q 1293 2637 486 2637 
Q 410 2637 410 2688 
L 416 2720 
L 1114 4237 
L 2438 4237 
Q 2547 4237 2608 4269 
Q 2669 4301 2746 4403 
L 2803 4358 
z
" transform="scale(0.015625)"/>
       </defs>
       <use xlink:href="#STIXGeneral-Regular-32" transform="translate(0 0.842187)"/>
       <use xlink:href="#STIXGeneral-Regular-35" transform="translate(51.574985 36.842187) scale(0.7)"/>
      </g>
     </g>
    </g>
    <g id="xtick_4">
     <g id="line2d_7">
      <path d="M 232.143632 170.644 
L 232.143632 20.1 
" clip-path="url(#p9d029a871d)" style="fill: none; stroke: #e8e8e8; stroke-width: 0.6; stroke-linecap: square"/>
     </g>
     <g id="line2d_8">
      <g>
       <use xlink:href="#m1518b1d925" x="232.143632" y="170.644" style="fill: #1a1a1a; stroke: #1a1a1a; stroke-width: 0.8"/>
      </g>
     </g>
     <g id="text_4">
      <!-- $\mathdefault{2^{7}}$ -->
      <g style="fill: #1a1a1a" transform="translate(227.773632 184.132203) scale(0.095 -0.095)">
       <defs>
        <path id="STIXGeneral-Regular-37" d="M 2874 4134 
L 1517 -51 
L 1101 -51 
L 2368 3763 
L 992 3763 
Q 717 3763 582 3667 
Q 448 3571 243 3238 
L 128 3296 
L 512 4237 
L 2874 4237 
L 2874 4134 
z
" transform="scale(0.015625)"/>
       </defs>
       <use xlink:href="#STIXGeneral-Regular-32" transform="translate(0 0.657813)"/>
       <use xlink:href="#STIXGeneral-Regular-37" transform="translate(51.574985 36.657813) scale(0.7)"/>
      </g>
     </g>
    </g>
    <g id="text_5">
     <!-- inputs $n$ -->
     <g style="fill: #1a1a1a" transform="translate(126.56095 197.439) scale(0.105 -0.105)">
      <defs>
       <path id="STIXGeneral-Regular-69" d="M 1152 4045 
Q 1152 3904 1056 3811 
Q 960 3718 819 3718 
Q 685 3718 592 3811 
Q 499 3904 499 4045 
Q 499 4179 595 4275 
Q 691 4371 826 4371 
Q 966 4371 1059 4275 
Q 1152 4179 1152 4045 
z
M 1619 0 
L 102 0 
L 102 96 
Q 435 115 521 211 
Q 608 307 608 666 
L 608 2118 
Q 608 2342 563 2432 
Q 518 2522 397 2522 
Q 243 2522 128 2490 
L 128 2592 
L 1120 2944 
L 1146 2918 
L 1146 672 
Q 1146 314 1226 218 
Q 1306 122 1619 96 
L 1619 0 
z
" transform="scale(0.015625)"/>
       <path id="STIXGeneral-Regular-6e" d="M 3104 0 
L 1773 0 
L 1779 96 
Q 2016 115 2096 233 
Q 2176 352 2176 672 
L 2176 1946 
Q 2176 2592 1709 2592 
Q 1549 2592 1408 2515 
Q 1267 2438 1050 2227 
L 1050 461 
Q 1050 269 1136 192 
Q 1222 115 1466 96 
L 1466 0 
L 115 0 
L 115 96 
Q 358 115 435 214 
Q 512 314 512 602 
L 512 2157 
Q 512 2394 467 2483 
Q 422 2573 288 2573 
Q 160 2573 102 2547 
L 102 2656 
Q 550 2784 979 2944 
L 1030 2925 
L 1030 2426 
L 1037 2426 
Q 1491 2944 1958 2944 
Q 2323 2944 2518 2688 
Q 2714 2432 2714 1958 
L 2714 544 
Q 2714 288 2790 205 
Q 2867 122 3104 96 
L 3104 0 
z
" transform="scale(0.015625)"/>
       <path id="STIXGeneral-Regular-70" d="M 1018 2931 
L 1018 2438 
Q 1421 2944 1939 2944 
Q 2406 2944 2707 2560 
Q 3008 2176 3008 1581 
Q 3008 883 2621 409 
Q 2234 -64 1664 -64 
Q 1466 -64 1328 -6 
Q 1190 51 1018 211 
L 1018 -794 
Q 1018 -1094 1120 -1180 
Q 1222 -1267 1581 -1274 
L 1581 -1389 
L 32 -1389 
L 32 -1280 
Q 314 -1254 397 -1171 
Q 480 -1088 480 -838 
L 480 2157 
Q 480 2381 429 2451 
Q 378 2522 218 2522 
Q 115 2522 58 2515 
L 58 2618 
Q 506 2752 979 2944 
L 1018 2931 
z
M 1018 2138 
L 1018 563 
Q 1018 422 1238 281 
Q 1459 141 1683 141 
Q 2029 141 2243 467 
Q 2458 794 2458 1325 
Q 2458 1888 2243 2224 
Q 2029 2560 1670 2560 
Q 1446 2560 1232 2419 
Q 1018 2278 1018 2138 
z
" transform="scale(0.015625)"/>
       <path id="STIXGeneral-Regular-75" d="M 3072 320 
L 3072 230 
Q 2573 96 2195 -58 
L 2163 -38 
L 2163 486 
L 2150 486 
Q 1747 -64 1235 -64 
Q 870 -64 662 160 
Q 454 384 454 755 
L 454 2362 
Q 454 2598 371 2688 
Q 288 2778 58 2790 
L 58 2880 
L 992 2880 
L 992 813 
Q 992 595 1123 451 
Q 1254 307 1446 307 
Q 1760 307 1984 506 
Q 2067 582 2099 649 
Q 2131 717 2131 877 
L 2131 2355 
Q 2131 2605 2041 2678 
Q 1952 2752 1658 2771 
L 1658 2880 
L 2669 2880 
L 2669 685 
Q 2669 461 2742 390 
Q 2816 320 3034 320 
L 3072 320 
z
" transform="scale(0.015625)"/>
       <path id="STIXGeneral-Regular-74" d="M 1702 493 
L 1786 422 
Q 1478 -64 1011 -64 
Q 448 -64 448 749 
L 448 2675 
L 109 2675 
Q 83 2694 83 2720 
Q 83 2771 192 2842 
Q 435 2982 813 3526 
Q 826 3546 874 3606 
Q 922 3667 941 3706 
Q 986 3706 986 3622 
L 986 2880 
L 1632 2880 
L 1632 2675 
L 986 2675 
L 986 845 
Q 986 538 1062 403 
Q 1139 269 1318 269 
Q 1510 269 1702 493 
z
" transform="scale(0.015625)"/>
       <path id="STIXGeneral-Regular-73" d="M 998 1926 
L 1664 1523 
Q 1984 1331 2105 1164 
Q 2227 998 2227 736 
Q 2227 416 1961 176 
Q 1696 -64 1331 -64 
Q 1030 -64 864 -6 
Q 691 51 570 51 
Q 461 51 416 -26 
L 333 -26 
L 333 979 
L 435 979 
Q 538 512 730 294 
Q 922 77 1248 77 
Q 1485 77 1632 211 
Q 1779 346 1779 550 
Q 1779 845 1440 1030 
L 1094 1222 
Q 326 1651 326 2150 
Q 326 2522 566 2730 
Q 806 2938 1210 2938 
Q 1491 2938 1638 2867 
Q 1754 2816 1818 2816 
Q 1862 2816 1920 2880 
L 1990 2880 
L 2022 2010 
L 1926 2010 
Q 1818 2445 1654 2621 
Q 1491 2797 1203 2797 
Q 986 2797 854 2688 
Q 723 2579 723 2362 
Q 723 2253 796 2128 
Q 870 2003 998 1926 
z
" transform="scale(0.015625)"/>
       <path id="STIXGeneral-Regular-20" transform="scale(0.015625)"/>
       <path id="STIXGeneral-Italic-6e" d="M 2944 749 
L 3034 666 
Q 2707 218 2534 80 
Q 2362 -58 2138 -58 
Q 2010 -58 1923 28 
Q 1837 115 1837 288 
Q 1837 390 1939 768 
L 2221 1805 
Q 2310 2150 2310 2310 
Q 2310 2496 2157 2496 
Q 1971 2496 1750 2275 
Q 1530 2054 1210 1587 
Q 998 1274 899 1024 
Q 800 774 570 0 
L 90 0 
L 704 2240 
Q 717 2304 717 2349 
Q 717 2445 630 2480 
Q 544 2515 301 2522 
L 301 2624 
Q 550 2675 857 2729 
Q 1165 2784 1338 2822 
L 1363 2810 
L 934 1414 
Q 1408 2170 1753 2496 
Q 2099 2822 2413 2822 
Q 2611 2822 2720 2716 
Q 2829 2611 2829 2432 
Q 2829 2272 2765 2048 
L 2406 749 
Q 2317 429 2317 358 
Q 2317 243 2419 243 
Q 2541 243 2810 582 
Q 2854 634 2944 749 
z
" transform="scale(0.015625)"/>
      </defs>
      <use xlink:href="#STIXGeneral-Regular-69" transform="translate(0 0.703125)"/>
      <use xlink:href="#STIXGeneral-Regular-6e" transform="translate(27.799988 0.703125)"/>
      <use xlink:href="#STIXGeneral-Regular-70" transform="translate(77.799973 0.703125)"/>
      <use xlink:href="#STIXGeneral-Regular-75" transform="translate(127.799957 0.703125)"/>
      <use xlink:href="#STIXGeneral-Regular-74" transform="translate(177.799942 0.703125)"/>
      <use xlink:href="#STIXGeneral-Regular-73" transform="translate(205.59993 0.703125)"/>
      <use xlink:href="#STIXGeneral-Regular-20" transform="translate(244.499924 0.703125)"/>
      <use xlink:href="#STIXGeneral-Italic-6e" transform="translate(269.499908 0.703125)"/>
     </g>
    </g>
   </g>
   <g id="matplotlib.axis_2">
    <g id="ytick_1">
     <g id="line2d_9">
      <path d="M 45.7 169.666328 
L 241.021901 169.666328 
" clip-path="url(#p9d029a871d)" style="fill: none; stroke: #e8e8e8; stroke-width: 0.6; stroke-linecap: square"/>
     </g>
     <g id="line2d_10">
      <defs>
       <path id="mcbebda9332" d="M 0 0 
L -3.5 0 
" style="stroke: #1a1a1a; stroke-width: 0.8"/>
      </defs>
      <g>
       <use xlink:href="#mcbebda9332" x="45.7" y="169.666328" style="fill: #1a1a1a; stroke: #1a1a1a; stroke-width: 0.8"/>
      </g>
     </g>
     <g id="text_6">
      <!-- $\mathdefault{10^{-2}}$ -->
      <g style="fill: #1a1a1a" transform="translate(20.65 172.910429) scale(0.095 -0.095)">
       <defs>
        <path id="STIXGeneral-Regular-30" d="M 3046 2112 
Q 3046 1683 2963 1302 
Q 2880 922 2717 602 
Q 2554 282 2266 96 
Q 1978 -90 1600 -90 
Q 1210 -90 915 108 
Q 621 307 461 640 
Q 301 973 227 1350 
Q 154 1728 154 2150 
Q 154 2746 301 3222 
Q 448 3699 790 4012 
Q 1133 4326 1626 4326 
Q 2253 4326 2649 3712 
Q 3046 3098 3046 2112 
z
M 2432 2080 
Q 2432 3091 2217 3625 
Q 2003 4160 1587 4160 
Q 1190 4160 979 3622 
Q 768 3085 768 2106 
Q 768 1120 979 598 
Q 1190 77 1600 77 
Q 2003 77 2217 598 
Q 2432 1120 2432 2080 
z
" transform="scale(0.015625)"/>
        <path id="STIXGeneral-Regular-2212" d="M 3974 1408 
L 410 1408 
L 410 1830 
L 3974 1830 
L 3974 1408 
z
" transform="scale(0.015625)"/>
       </defs>
       <use xlink:href="#STIXGeneral-Regular-31" transform="translate(0 0.684375)"/>
       <use xlink:href="#STIXGeneral-Regular-30" transform="translate(49.999985 0.684375)"/>
       <use xlink:href="#STIXGeneral-Regular-2212" transform="translate(101.574969 36.684375) scale(0.7)"/>
       <use xlink:href="#STIXGeneral-Regular-32" transform="translate(149.524959 36.684375) scale(0.7)"/>
      </g>
     </g>
    </g>
    <g id="ytick_2">
     <g id="line2d_11">
      <path d="M 45.7 98.321403 
L 241.021901 98.321403 
" clip-path="url(#p9d029a871d)" style="fill: none; stroke: #e8e8e8; stroke-width: 0.6; stroke-linecap: square"/>
     </g>
     <g id="line2d_12">
      <g>
       <use xlink:href="#mcbebda9332" x="45.7" y="98.321403" style="fill: #1a1a1a; stroke: #1a1a1a; stroke-width: 0.8"/>
      </g>
     </g>
     <g id="text_7">
      <!-- $\mathdefault{10^{-1}}$ -->
      <g style="fill: #1a1a1a" transform="translate(20.65 101.565504) scale(0.095 -0.095)">
       <use xlink:href="#STIXGeneral-Regular-31" transform="translate(0 0.684375)"/>
       <use xlink:href="#STIXGeneral-Regular-30" transform="translate(49.999985 0.684375)"/>
       <use xlink:href="#STIXGeneral-Regular-2212" transform="translate(101.574969 36.684375) scale(0.7)"/>
       <use xlink:href="#STIXGeneral-Regular-31" transform="translate(149.524959 36.684375) scale(0.7)"/>
      </g>
     </g>
    </g>
    <g id="ytick_3">
     <g id="line2d_13">
      <path d="M 45.7 26.976478 
L 241.021901 26.976478 
" clip-path="url(#p9d029a871d)" style="fill: none; stroke: #e8e8e8; stroke-width: 0.6; stroke-linecap: square"/>
     </g>
     <g id="line2d_14">
      <g>
       <use xlink:href="#mcbebda9332" x="45.7" y="26.976478" style="fill: #1a1a1a; stroke: #1a1a1a; stroke-width: 0.8"/>
      </g>
     </g>
     <g id="text_8">
      <!-- $\mathdefault{10^{0}}$ -->
      <g style="fill: #1a1a1a" transform="translate(25.21 30.22058) scale(0.095 -0.095)">
       <use xlink:href="#STIXGeneral-Regular-31" transform="translate(0 0.684375)"/>
       <use xlink:href="#STIXGeneral-Regular-30" transform="translate(49.999985 0.684375)"/>
       <use xlink:href="#STIXGeneral-Regular-30" transform="translate(101.574969 36.684375) scale(0.7)"/>
      </g>
     </g>
    </g>
    <g id="ytick_4">
     <g id="line2d_15">
      <path d="M 45.7 148.189365 
L 241.021901 148.189365 
" clip-path="url(#p9d029a871d)" style="fill: none; stroke: #e8e8e8; stroke-width: 0.6; stroke-linecap: square"/>
     </g>
     <g id="line2d_16">
      <defs>
       <path id="m3f68ed9a66" d="M 0 0 
L -2 0 
" style="stroke: #1a1a1a; stroke-width: 0.6"/>
      </defs>
      <g>
       <use xlink:href="#m3f68ed9a66" x="45.7" y="148.189365" style="fill: #1a1a1a; stroke: #1a1a1a; stroke-width: 0.6"/>
      </g>
     </g>
    </g>
    <g id="ytick_5">
     <g id="line2d_17">
      <path d="M 45.7 135.626148 
L 241.021901 135.626148 
" clip-path="url(#p9d029a871d)" style="fill: none; stroke: #e8e8e8; stroke-width: 0.6; stroke-linecap: square"/>
     </g>
     <g id="line2d_18">
      <g>
       <use xlink:href="#m3f68ed9a66" x="45.7" y="135.626148" style="fill: #1a1a1a; stroke: #1a1a1a; stroke-width: 0.6"/>
      </g>
     </g>
    </g>
    <g id="ytick_6">
     <g id="line2d_19">
      <path d="M 45.7 126.712403 
L 241.021901 126.712403 
" clip-path="url(#p9d029a871d)" style="fill: none; stroke: #e8e8e8; stroke-width: 0.6; stroke-linecap: square"/>
     </g>
     <g id="line2d_20">
      <g>
       <use xlink:href="#m3f68ed9a66" x="45.7" y="126.712403" style="fill: #1a1a1a; stroke: #1a1a1a; stroke-width: 0.6"/>
      </g>
     </g>
    </g>
    <g id="ytick_7">
     <g id="line2d_21">
      <path d="M 45.7 119.798365 
L 241.021901 119.798365 
" clip-path="url(#p9d029a871d)" style="fill: none; stroke: #e8e8e8; stroke-width: 0.6; stroke-linecap: square"/>
     </g>
     <g id="line2d_22">
      <g>
       <use xlink:href="#m3f68ed9a66" x="45.7" y="119.798365" style="fill: #1a1a1a; stroke: #1a1a1a; stroke-width: 0.6"/>
      </g>
     </g>
    </g>
    <g id="ytick_8">
     <g id="line2d_23">
      <path d="M 45.7 114.149185 
L 241.021901 114.149185 
" clip-path="url(#p9d029a871d)" style="fill: none; stroke: #e8e8e8; stroke-width: 0.6; stroke-linecap: square"/>
     </g>
     <g id="line2d_24">
      <g>
       <use xlink:href="#m3f68ed9a66" x="45.7" y="114.149185" style="fill: #1a1a1a; stroke: #1a1a1a; stroke-width: 0.6"/>
      </g>
     </g>
    </g>
    <g id="ytick_9">
     <g id="line2d_25">
      <path d="M 45.7 109.372872 
L 241.021901 109.372872 
" clip-path="url(#p9d029a871d)" style="fill: none; stroke: #e8e8e8; stroke-width: 0.6; stroke-linecap: square"/>
     </g>
     <g id="line2d_26">
      <g>
       <use xlink:href="#m3f68ed9a66" x="45.7" y="109.372872" style="fill: #1a1a1a; stroke: #1a1a1a; stroke-width: 0.6"/>
      </g>
     </g>
    </g>
    <g id="ytick_10">
     <g id="line2d_27">
      <path d="M 45.7 105.235441 
L 241.021901 105.235441 
" clip-path="url(#p9d029a871d)" style="fill: none; stroke: #e8e8e8; stroke-width: 0.6; stroke-linecap: square"/>
     </g>
     <g id="line2d_28">
      <g>
       <use xlink:href="#m3f68ed9a66" x="45.7" y="105.235441" style="fill: #1a1a1a; stroke: #1a1a1a; stroke-width: 0.6"/>
      </g>
     </g>
    </g>
    <g id="ytick_11">
     <g id="line2d_29">
      <path d="M 45.7 101.585968 
L 241.021901 101.585968 
" clip-path="url(#p9d029a871d)" style="fill: none; stroke: #e8e8e8; stroke-width: 0.6; stroke-linecap: square"/>
     </g>
     <g id="line2d_30">
      <g>
       <use xlink:href="#m3f68ed9a66" x="45.7" y="101.585968" style="fill: #1a1a1a; stroke: #1a1a1a; stroke-width: 0.6"/>
      </g>
     </g>
    </g>
    <g id="ytick_12">
     <g id="line2d_31">
      <path d="M 45.7 76.84444 
L 241.021901 76.84444 
" clip-path="url(#p9d029a871d)" style="fill: none; stroke: #e8e8e8; stroke-width: 0.6; stroke-linecap: square"/>
     </g>
     <g id="line2d_32">
      <g>
       <use xlink:href="#m3f68ed9a66" x="45.7" y="76.84444" style="fill: #1a1a1a; stroke: #1a1a1a; stroke-width: 0.6"/>
      </g>
     </g>
    </g>
    <g id="ytick_13">
     <g id="line2d_33">
      <path d="M 45.7 64.281223 
L 241.021901 64.281223 
" clip-path="url(#p9d029a871d)" style="fill: none; stroke: #e8e8e8; stroke-width: 0.6; stroke-linecap: square"/>
     </g>
     <g id="line2d_34">
      <g>
       <use xlink:href="#m3f68ed9a66" x="45.7" y="64.281223" style="fill: #1a1a1a; stroke: #1a1a1a; stroke-width: 0.6"/>
      </g>
     </g>
    </g>
    <g id="ytick_14">
     <g id="line2d_35">
      <path d="M 45.7 55.367478 
L 241.021901 55.367478 
" clip-path="url(#p9d029a871d)" style="fill: none; stroke: #e8e8e8; stroke-width: 0.6; stroke-linecap: square"/>
     </g>
     <g id="line2d_36">
      <g>
       <use xlink:href="#m3f68ed9a66" x="45.7" y="55.367478" style="fill: #1a1a1a; stroke: #1a1a1a; stroke-width: 0.6"/>
      </g>
     </g>
    </g>
    <g id="ytick_15">
     <g id="line2d_37">
      <path d="M 45.7 48.45344 
L 241.021901 48.45344 
" clip-path="url(#p9d029a871d)" style="fill: none; stroke: #e8e8e8; stroke-width: 0.6; stroke-linecap: square"/>
     </g>
     <g id="line2d_38">
      <g>
       <use xlink:href="#m3f68ed9a66" x="45.7" y="48.45344" style="fill: #1a1a1a; stroke: #1a1a1a; stroke-width: 0.6"/>
      </g>
     </g>
    </g>
    <g id="ytick_16">
     <g id="line2d_39">
      <path d="M 45.7 42.80426 
L 241.021901 42.80426 
" clip-path="url(#p9d029a871d)" style="fill: none; stroke: #e8e8e8; stroke-width: 0.6; stroke-linecap: square"/>
     </g>
     <g id="line2d_40">
      <g>
       <use xlink:href="#m3f68ed9a66" x="45.7" y="42.80426" style="fill: #1a1a1a; stroke: #1a1a1a; stroke-width: 0.6"/>
      </g>
     </g>
    </g>
    <g id="ytick_17">
     <g id="line2d_41">
      <path d="M 45.7 38.027947 
L 241.021901 38.027947 
" clip-path="url(#p9d029a871d)" style="fill: none; stroke: #e8e8e8; stroke-width: 0.6; stroke-linecap: square"/>
     </g>
     <g id="line2d_42">
      <g>
       <use xlink:href="#m3f68ed9a66" x="45.7" y="38.027947" style="fill: #1a1a1a; stroke: #1a1a1a; stroke-width: 0.6"/>
      </g>
     </g>
    </g>
    <g id="ytick_18">
     <g id="line2d_43">
      <path d="M 45.7 33.890516 
L 241.021901 33.890516 
" clip-path="url(#p9d029a871d)" style="fill: none; stroke: #e8e8e8; stroke-width: 0.6; stroke-linecap: square"/>
     </g>
     <g id="line2d_44">
      <g>
       <use xlink:href="#m3f68ed9a66" x="45.7" y="33.890516" style="fill: #1a1a1a; stroke: #1a1a1a; stroke-width: 0.6"/>
      </g>
     </g>
    </g>
    <g id="ytick_19">
     <g id="line2d_45">
      <path d="M 45.7 30.241043 
L 241.021901 30.241043 
" clip-path="url(#p9d029a871d)" style="fill: none; stroke: #e8e8e8; stroke-width: 0.6; stroke-linecap: square"/>
     </g>
     <g id="line2d_46">
      <g>
       <use xlink:href="#m3f68ed9a66" x="45.7" y="30.241043" style="fill: #1a1a1a; stroke: #1a1a1a; stroke-width: 0.6"/>
      </g>
     </g>
    </g>
    <g id="text_9">
     <!-- time per full Jacobian (ms) -->
     <g style="fill: #1a1a1a" transform="translate(14.371172 151.862) rotate(-90) scale(0.105 -0.105)">
      <defs>
       <path id="STIXGeneral-Regular-6d" d="M 4960 0 
L 3565 0 
L 3565 96 
Q 3834 122 3907 208 
Q 3981 294 3981 576 
L 3981 1894 
Q 3981 2278 3869 2444 
Q 3757 2611 3488 2611 
Q 3264 2611 3107 2521 
Q 2950 2432 2803 2221 
L 2803 608 
Q 2803 301 2896 201 
Q 2989 102 3264 96 
L 3264 0 
L 1830 0 
L 1830 96 
Q 2112 115 2189 188 
Q 2266 262 2266 550 
L 2266 1901 
Q 2266 2611 1850 2611 
Q 1670 2611 1468 2531 
Q 1267 2451 1171 2336 
Q 1088 2240 1088 2227 
L 1088 448 
Q 1088 243 1177 176 
Q 1267 109 1523 96 
L 1523 0 
L 102 0 
L 102 96 
Q 371 102 460 195 
Q 550 288 550 563 
L 550 2150 
Q 550 2387 499 2480 
Q 448 2573 326 2573 
Q 230 2573 122 2547 
L 122 2656 
Q 557 2778 1011 2944 
L 1062 2925 
L 1062 2451 
L 1075 2451 
Q 1363 2752 1584 2848 
Q 1805 2944 2054 2944 
Q 2560 2944 2733 2406 
Q 3232 2944 3776 2944 
Q 4518 2944 4518 1792 
L 4518 493 
Q 4518 282 4582 202 
Q 4646 122 4794 109 
L 4960 96 
L 4960 0 
z
" transform="scale(0.015625)"/>
       <path id="STIXGeneral-Regular-65" d="M 2611 1050 
L 2714 1005 
Q 2330 -64 1376 -64 
Q 813 -64 486 329 
Q 160 723 160 1389 
Q 160 2074 525 2509 
Q 890 2944 1485 2944 
Q 2061 2944 2374 2502 
Q 2560 2246 2592 1773 
L 621 1773 
Q 646 1370 700 1158 
Q 755 947 915 730 
Q 1184 378 1626 378 
Q 1939 378 2153 531 
Q 2368 685 2611 1050 
z
M 634 1978 
L 1939 1978 
Q 1882 2381 1750 2547 
Q 1619 2714 1312 2714 
Q 1043 2714 864 2525 
Q 685 2336 634 1978 
z
" transform="scale(0.015625)"/>
       <path id="STIXGeneral-Regular-72" d="M 1024 2931 
L 1024 2342 
Q 1267 2688 1430 2816 
Q 1594 2944 1792 2944 
Q 1958 2944 2051 2854 
Q 2144 2765 2144 2605 
Q 2144 2470 2077 2393 
Q 2010 2317 1894 2317 
Q 1773 2317 1638 2445 
Q 1536 2541 1472 2541 
Q 1338 2541 1181 2355 
Q 1024 2170 1024 2016 
L 1024 576 
Q 1024 301 1133 205 
Q 1242 109 1568 96 
L 1568 0 
L 32 0 
L 32 96 
Q 339 154 412 224 
Q 486 294 486 538 
L 486 2138 
Q 486 2349 438 2435 
Q 390 2522 269 2522 
Q 166 2522 45 2496 
L 45 2598 
Q 448 2726 992 2944 
L 1024 2931 
z
" transform="scale(0.015625)"/>
       <path id="STIXGeneral-Regular-66" d="M 134 2880 
L 659 2880 
Q 666 3264 710 3478 
Q 755 3693 883 3910 
Q 1152 4371 1786 4371 
Q 2074 4371 2262 4259 
Q 2451 4147 2451 3974 
Q 2451 3866 2374 3789 
Q 2298 3712 2182 3712 
Q 2029 3712 1894 3942 
Q 1741 4192 1555 4192 
Q 1197 4192 1197 3622 
L 1197 2880 
L 1978 2880 
L 1978 2675 
L 1197 2675 
L 1197 666 
Q 1197 307 1299 208 
Q 1402 109 1792 96 
L 1792 0 
L 128 0 
L 128 96 
Q 474 115 566 214 
Q 659 314 659 666 
L 659 2675 
L 134 2675 
L 134 2880 
z
" transform="scale(0.015625)"/>
       <path id="STIXGeneral-Regular-6c" d="M 1645 0 
L 134 0 
L 134 96 
Q 435 122 531 221 
Q 627 320 627 589 
L 627 3590 
Q 627 3821 569 3910 
Q 512 4000 358 4000 
Q 224 4000 122 3987 
L 122 4090 
Q 730 4237 1133 4371 
L 1165 4346 
L 1165 557 
Q 1165 288 1254 201 
Q 1344 115 1645 96 
L 1645 0 
z
" transform="scale(0.015625)"/>
       <path id="STIXGeneral-Regular-4a" d="M 2266 4237 
L 2266 4115 
Q 1875 4083 1776 3984 
Q 1677 3885 1677 3514 
L 1677 1184 
Q 1677 -90 608 -90 
Q 314 -90 138 32 
Q -38 154 -38 371 
Q -38 499 54 601 
Q 147 704 275 704 
Q 486 704 589 435 
Q 602 403 621 348 
Q 640 294 649 265 
Q 659 237 678 208 
Q 698 179 723 166 
Q 749 154 787 154 
Q 928 154 976 253 
Q 1024 352 1024 602 
L 1024 3520 
Q 1024 3898 928 3990 
Q 832 4083 429 4115 
L 429 4237 
L 2266 4237 
z
" transform="scale(0.015625)"/>
       <path id="STIXGeneral-Regular-61" d="M 2829 422 
L 2829 243 
Q 2586 -64 2253 -64 
Q 1888 -64 1843 403 
L 1837 403 
Q 1427 -64 909 -64 
Q 608 -64 422 112 
Q 237 288 237 602 
Q 237 1050 685 1350 
Q 992 1555 1837 1869 
L 1837 2214 
Q 1837 2502 1699 2646 
Q 1562 2790 1338 2790 
Q 1146 2790 1018 2697 
Q 890 2605 890 2477 
Q 890 2419 909 2348 
Q 928 2278 928 2208 
Q 928 2112 841 2029 
Q 755 1946 634 1946 
Q 525 1946 441 2029 
Q 358 2112 358 2240 
Q 358 2547 685 2752 
Q 986 2944 1421 2944 
Q 1939 2944 2176 2656 
Q 2291 2522 2323 2384 
Q 2355 2246 2355 1946 
L 2355 723 
Q 2355 301 2554 301 
Q 2682 301 2829 422 
z
M 1837 813 
L 1837 1715 
Q 1248 1510 1018 1293 
Q 800 1094 800 800 
Q 800 557 921 432 
Q 1043 307 1242 307 
Q 1453 307 1613 410 
Q 1747 506 1792 589 
Q 1837 672 1837 813 
z
" transform="scale(0.015625)"/>
       <path id="STIXGeneral-Regular-63" d="M 2547 998 
L 2637 941 
Q 2362 403 2112 205 
Q 1786 -64 1376 -64 
Q 845 -64 502 336 
Q 160 736 160 1357 
Q 160 2170 698 2618 
Q 1094 2944 1562 2944 
Q 1965 2944 2256 2749 
Q 2547 2554 2547 2285 
Q 2547 2176 2457 2096 
Q 2368 2016 2246 2016 
Q 2022 2016 1939 2310 
L 1901 2451 
Q 1850 2630 1773 2694 
Q 1696 2758 1523 2758 
Q 1133 2758 893 2451 
Q 653 2144 653 1645 
Q 653 1094 928 745 
Q 1203 397 1645 397 
Q 1920 397 2118 528 
Q 2317 659 2547 998 
z
" transform="scale(0.015625)"/>
       <path id="STIXGeneral-Regular-6f" d="M 3008 1478 
Q 3008 806 2608 371 
Q 2208 -64 1568 -64 
Q 979 -64 582 368 
Q 186 800 186 1459 
Q 186 2125 582 2534 
Q 979 2944 1626 2944 
Q 2221 2944 2614 2537 
Q 3008 2131 3008 1478 
z
M 2432 1306 
Q 2432 2035 2112 2445 
Q 1856 2765 1504 2765 
Q 1171 2765 966 2493 
Q 762 2221 762 1747 
Q 762 928 1101 435 
Q 1318 115 1677 115 
Q 2029 115 2230 432 
Q 2432 749 2432 1306 
z
" transform="scale(0.015625)"/>
       <path id="STIXGeneral-Regular-62" d="M 979 4358 
L 979 2406 
Q 1082 2650 1315 2797 
Q 1549 2944 1843 2944 
Q 2349 2944 2672 2541 
Q 2995 2138 2995 1536 
Q 2995 832 2566 384 
Q 2138 -64 1498 -64 
Q 1107 -64 774 67 
Q 442 198 442 358 
L 442 3622 
Q 442 3859 384 3926 
Q 326 3994 128 3994 
Q 83 3994 19 3981 
L 19 4090 
L 211 4147 
Q 864 4346 947 4371 
L 979 4358 
z
M 979 2035 
L 979 474 
Q 979 326 1161 233 
Q 1344 141 1600 141 
Q 1978 141 2195 416 
Q 2432 710 2432 1261 
Q 2432 1888 2182 2240 
Q 1971 2541 1613 2541 
Q 1357 2541 1168 2390 
Q 979 2240 979 2035 
z
" transform="scale(0.015625)"/>
       <path id="STIXGeneral-Regular-28" d="M 1946 -1030 
L 1869 -1133 
Q 1126 -710 716 32 
Q 307 774 307 1613 
Q 307 3386 1888 4326 
L 1946 4224 
Q 1293 3667 1075 3126 
Q 858 2586 858 1632 
Q 858 685 1082 96 
Q 1306 -493 1946 -1030 
z
" transform="scale(0.015625)"/>
       <path id="STIXGeneral-Regular-29" d="M 186 4224 
L 262 4326 
Q 992 3891 1408 3148 
Q 1824 2406 1824 1581 
Q 1824 -166 243 -1133 
L 186 -1030 
Q 845 -486 1059 54 
Q 1274 595 1274 1562 
Q 1274 2534 1059 3120 
Q 845 3706 186 4224 
z
" transform="scale(0.015625)"/>
      </defs>
      <use xlink:href="#STIXGeneral-Regular-74"/>
      <use xlink:href="#STIXGeneral-Regular-69" transform="translate(27.799988 0)"/>
      <use xlink:href="#STIXGeneral-Regular-6d" transform="translate(55.599976 0)"/>
      <use xlink:href="#STIXGeneral-Regular-65" transform="translate(133.399963 0)"/>
      <use xlink:href="#STIXGeneral-Regular-20" transform="translate(177.799957 0)"/>
      <use xlink:href="#STIXGeneral-Regular-70" transform="translate(202.799942 0)"/>
      <use xlink:href="#STIXGeneral-Regular-65" transform="translate(252.799927 0)"/>
      <use xlink:href="#STIXGeneral-Regular-72" transform="translate(297.199921 0)"/>
      <use xlink:href="#STIXGeneral-Regular-20" transform="translate(330.499908 0)"/>
      <use xlink:href="#STIXGeneral-Regular-66" transform="translate(355.499893 0)"/>
      <use xlink:href="#STIXGeneral-Regular-75" transform="translate(388.799881 0)"/>
      <use xlink:href="#STIXGeneral-Regular-6c" transform="translate(438.799866 0)"/>
      <use xlink:href="#STIXGeneral-Regular-6c" transform="translate(466.599854 0)"/>
      <use xlink:href="#STIXGeneral-Regular-20" transform="translate(494.399841 0)"/>
      <use xlink:href="#STIXGeneral-Regular-4a" transform="translate(519.399826 0)"/>
      <use xlink:href="#STIXGeneral-Regular-61" transform="translate(556.699814 0)"/>
      <use xlink:href="#STIXGeneral-Regular-63" transform="translate(601.099808 0)"/>
      <use xlink:href="#STIXGeneral-Regular-6f" transform="translate(645.499802 0)"/>
      <use xlink:href="#STIXGeneral-Regular-62" transform="translate(695.499786 0)"/>
      <use xlink:href="#STIXGeneral-Regular-69" transform="translate(745.499771 0)"/>
      <use xlink:href="#STIXGeneral-Regular-61" transform="translate(773.299759 0)"/>
      <use xlink:href="#STIXGeneral-Regular-6e" transform="translate(817.699753 0)"/>
      <use xlink:href="#STIXGeneral-Regular-20" transform="translate(867.699738 0)"/>
      <use xlink:href="#STIXGeneral-Regular-28" transform="translate(892.699722 0)"/>
      <use xlink:href="#STIXGeneral-Regular-6d" transform="translate(925.99971 0)"/>
      <use xlink:href="#STIXGeneral-Regular-73" transform="translate(1003.799698 0)"/>
      <use xlink:href="#STIXGeneral-Regular-29" transform="translate(1042.699692 0)"/>
     </g>
    </g>
   </g>
   <g id="line2d_47">
    <path d="M 54.578268 163.801091 
L 79.944749 153.376599 
L 105.311229 138.041722 
L 130.67771 120.293092 
L 156.044191 100.390265 
L 181.410671 79.406947 
L 206.777152 49.005708 
L 232.143632 26.942909 
" clip-path="url(#p9d029a871d)" style="fill: none; stroke: #2b4f81; stroke-width: 1.2; stroke-linecap: square"/>
    <defs>
     <path id="me97f9a0a83" d="M 0 1.6 
C 0.424325 1.6 0.831328 1.431414 1.131371 1.131371 
C 1.431414 0.831328 1.6 0.424325 1.6 0 
C 1.6 -0.424325 1.431414 -0.831328 1.131371 -1.131371 
C 0.831328 -1.431414 0.424325 -1.6 0 -1.6 
C -0.424325 -1.6 -0.831328 -1.431414 -1.131371 -1.131371 
C -1.431414 -0.831328 -1.6 -0.424325 -1.6 0 
C -1.6 0.424325 -1.431414 0.831328 -1.131371 1.131371 
C -0.831328 1.431414 -0.424325 1.6 0 1.6 
z
" style="stroke: #2b4f81"/>
    </defs>
    <g clip-path="url(#p9d029a871d)">
     <use xlink:href="#me97f9a0a83" x="54.578268" y="163.801091" style="fill: #2b4f81; stroke: #2b4f81"/>
     <use xlink:href="#me97f9a0a83" x="79.944749" y="153.376599" style="fill: #2b4f81; stroke: #2b4f81"/>
     <use xlink:href="#me97f9a0a83" x="105.311229" y="138.041722" style="fill: #2b4f81; stroke: #2b4f81"/>
     <use xlink:href="#me97f9a0a83" x="130.67771" y="120.293092" style="fill: #2b4f81; stroke: #2b4f81"/>
     <use xlink:href="#me97f9a0a83" x="156.044191" y="100.390265" style="fill: #2b4f81; stroke: #2b4f81"/>
     <use xlink:href="#me97f9a0a83" x="181.410671" y="79.406947" style="fill: #2b4f81; stroke: #2b4f81"/>
     <use xlink:href="#me97f9a0a83" x="206.777152" y="49.005708" style="fill: #2b4f81; stroke: #2b4f81"/>
     <use xlink:href="#me97f9a0a83" x="232.143632" y="26.942909" style="fill: #2b4f81; stroke: #2b4f81"/>
    </g>
   </g>
   <g id="line2d_48">
    <path d="M 54.578268 77.019226 
L 79.944749 79.59684 
L 105.311229 79.246155 
L 130.67771 78.782239 
L 156.044191 78.515387 
L 181.410671 77.615557 
L 206.777152 69.251037 
L 232.143632 65.331653 
" clip-path="url(#p9d029a871d)" style="fill: none; stroke: #9e2b25; stroke-width: 1.2; stroke-linecap: square"/>
    <defs>
     <path id="m7d2ca64265" d="M 0 1.6 
C 0.424325 1.6 0.831328 1.431414 1.131371 1.131371 
C 1.431414 0.831328 1.6 0.424325 1.6 0 
C 1.6 -0.424325 1.431414 -0.831328 1.131371 -1.131371 
C 0.831328 -1.431414 0.424325 -1.6 0 -1.6 
C -0.424325 -1.6 -0.831328 -1.431414 -1.131371 -1.131371 
C -1.431414 -0.831328 -1.6 -0.424325 -1.6 0 
C -1.6 0.424325 -1.431414 0.831328 -1.131371 1.131371 
C -0.831328 1.431414 -0.424325 1.6 0 1.6 
z
" style="stroke: #9e2b25"/>
    </defs>
    <g clip-path="url(#p9d029a871d)">
     <use xlink:href="#m7d2ca64265" x="54.578268" y="77.019226" style="fill: #9e2b25; stroke: #9e2b25"/>
     <use xlink:href="#m7d2ca64265" x="79.944749" y="79.59684" style="fill: #9e2b25; stroke: #9e2b25"/>
     <use xlink:href="#m7d2ca64265" x="105.311229" y="79.246155" style="fill: #9e2b25; stroke: #9e2b25"/>
     <use xlink:href="#m7d2ca64265" x="130.67771" y="78.782239" style="fill: #9e2b25; stroke: #9e2b25"/>
     <use xlink:href="#m7d2ca64265" x="156.044191" y="78.515387" style="fill: #9e2b25; stroke: #9e2b25"/>
     <use xlink:href="#m7d2ca64265" x="181.410671" y="77.615557" style="fill: #9e2b25; stroke: #9e2b25"/>
     <use xlink:href="#m7d2ca64265" x="206.777152" y="69.251037" style="fill: #9e2b25; stroke: #9e2b25"/>
     <use xlink:href="#m7d2ca64265" x="232.143632" y="65.331653" style="fill: #9e2b25; stroke: #9e2b25"/>
    </g>
   </g>
   <g id="line2d_49">
    <path d="M 156.044191 170.644 
L 156.044191 20.1 
" clip-path="url(#p9d029a871d)" style="fill: none; stroke-dasharray: 3.33,1.44; stroke-dashoffset: 0; stroke: #8a8a8a; stroke-width: 0.9"/>
   </g>
   <g id="patch_3">
    <path d="M 45.7 170.644 
L 45.7 20.1 
" style="fill: none; stroke: #1a1a1a; stroke-width: 0.8; stroke-linejoin: miter; stroke-linecap: square"/>
   </g>
   <g id="patch_4">
    <path d="M 45.7 170.644 
L 241.021901 170.644 
" style="fill: none; stroke: #1a1a1a; stroke-width: 0.8; stroke-linejoin: miter; stroke-linecap: square"/>
   </g>
   <g id="text_10">
    <!-- $n = m$ -->
    <g style="fill: #8a8a8a" transform="translate(160.191578 32.268479) scale(0.09 -0.09)">
     <defs>
      <path id="STIXGeneral-Regular-3d" d="M 4077 2048 
L 307 2048 
L 307 2470 
L 4077 2470 
L 4077 2048 
z
M 4077 768 
L 307 768 
L 307 1190 
L 4077 1190 
L 4077 768 
z
" transform="scale(0.015625)"/>
      <path id="STIXGeneral-Italic-6d" d="M 4506 672 
L 4474 627 
Q 3981 -58 3552 -58 
Q 3296 -58 3296 237 
Q 3296 333 3379 659 
L 3750 2112 
Q 3795 2291 3795 2355 
Q 3795 2413 3756 2451 
Q 3718 2490 3667 2490 
Q 3366 2490 2829 1741 
Q 2592 1408 2457 1072 
Q 2323 736 2138 0 
L 1658 0 
L 1830 595 
Q 2266 2099 2266 2330 
Q 2266 2490 2125 2490 
Q 1965 2490 1702 2237 
Q 1440 1984 1171 1574 
Q 1011 1325 899 1043 
Q 787 762 557 0 
L 77 0 
L 352 922 
Q 704 2093 704 2381 
Q 704 2522 442 2522 
L 282 2522 
L 282 2624 
L 1318 2822 
L 1338 2810 
L 966 1472 
Q 1798 2822 2374 2822 
Q 2560 2822 2659 2720 
Q 2758 2618 2758 2438 
Q 2758 2195 2502 1466 
Q 2842 2003 3069 2275 
Q 3296 2547 3526 2694 
Q 3731 2822 3930 2822 
Q 4102 2822 4201 2710 
Q 4301 2598 4301 2419 
Q 4301 2336 4282 2240 
L 3846 634 
Q 3782 390 3782 346 
Q 3782 243 3859 243 
Q 4000 243 4275 582 
L 4410 749 
L 4506 672 
z
" transform="scale(0.015625)"/>
     </defs>
     <use xlink:href="#STIXGeneral-Italic-6e" transform="translate(0 0.90625)"/>
     <use xlink:href="#STIXGeneral-Regular-3d" transform="translate(64.439981 0.90625)"/>
     <use xlink:href="#STIXGeneral-Italic-6d" transform="translate(147.379962 0.90625)"/>
    </g>
   </g>
   <g id="text_11">
    <!-- outputs fixed at $m = 16$ -->
    <g style="fill: #1a1a1a" transform="translate(97.51095 14.1) scale(0.1 -0.1)">
     <defs>
      <path id="STIXGeneral-Regular-78" d="M 3066 0 
L 1779 0 
L 1779 96 
Q 1939 109 1987 137 
Q 2035 166 2035 250 
Q 2035 307 1997 365 
L 1414 1261 
L 909 474 
Q 781 275 781 211 
Q 781 96 1037 96 
L 1037 0 
L 109 0 
L 109 96 
Q 269 109 355 169 
Q 442 230 576 422 
L 1306 1478 
L 704 2400 
Q 557 2624 454 2704 
Q 352 2784 211 2784 
L 154 2784 
L 154 2880 
L 1478 2880 
L 1478 2784 
Q 1203 2778 1203 2643 
Q 1203 2509 1498 2074 
Q 1581 1958 1587 1946 
Q 1619 1990 1779 2227 
Q 1811 2285 1856 2349 
Q 1901 2413 1923 2451 
Q 1946 2490 1971 2528 
Q 1997 2566 2006 2595 
Q 2016 2624 2016 2643 
Q 2016 2765 1760 2784 
L 1760 2880 
L 2771 2880 
L 2771 2784 
Q 2445 2771 2253 2502 
L 1722 1734 
L 2541 480 
Q 2790 96 3066 96 
L 3066 0 
z
" transform="scale(0.015625)"/>
      <path id="STIXGeneral-Regular-64" d="M 3142 269 
L 2202 -64 
L 2176 -45 
L 2176 365 
Q 1869 -64 1357 -64 
Q 826 -64 499 317 
Q 173 698 173 1312 
Q 173 1990 563 2467 
Q 954 2944 1504 2944 
Q 1850 2944 2176 2669 
L 2176 3667 
Q 2176 3866 2118 3930 
Q 2061 3994 1882 3994 
Q 1792 3994 1741 3987 
L 1741 4090 
Q 2323 4243 2682 4371 
L 2714 4358 
L 2714 730 
Q 2714 506 2768 435 
Q 2822 365 2995 365 
Q 3034 365 3142 371 
L 3142 269 
z
M 2176 653 
L 2176 2125 
Q 2176 2381 1981 2573 
Q 1786 2765 1523 2765 
Q 1158 2765 940 2438 
Q 723 2112 723 1568 
Q 723 979 963 624 
Q 1203 269 1606 269 
Q 1907 269 2080 474 
Q 2176 582 2176 653 
z
" transform="scale(0.015625)"/>
      <path id="STIXGeneral-Regular-36" d="M 2854 4378 
L 2867 4275 
Q 2112 4154 1606 3664 
Q 1101 3174 973 2451 
Q 1344 2739 1786 2739 
Q 2349 2739 2672 2380 
Q 2995 2022 2995 1402 
Q 2995 774 2669 378 
Q 2291 -90 1651 -90 
Q 870 -90 518 557 
Q 218 1107 218 1786 
Q 218 2835 915 3552 
Q 1312 3962 1731 4131 
Q 2150 4301 2854 4378 
z
M 2419 1203 
Q 2419 2445 1555 2445 
Q 1235 2445 1024 2275 
Q 813 2106 813 1702 
Q 813 954 1046 522 
Q 1280 90 1722 90 
Q 2061 90 2240 394 
Q 2419 698 2419 1203 
z
" transform="scale(0.015625)"/>
     </defs>
     <use xlink:href="#STIXGeneral-Regular-6f" transform="translate(0 0.59375)"/>
     <use xlink:href="#STIXGeneral-Regular-75" transform="translate(49.999985 0.59375)"/>
     <use xlink:href="#STIXGeneral-Regular-74" transform="translate(99.999969 0.59375)"/>
     <use xlink:href="#STIXGeneral-Regular-70" transform="translate(127.799957 0.59375)"/>
     <use xlink:href="#STIXGeneral-Regular-75" transform="translate(177.799942 0.59375)"/>
     <use xlink:href="#STIXGeneral-Regular-74" transform="translate(227.799927 0.59375)"/>
     <use xlink:href="#STIXGeneral-Regular-73" transform="translate(255.599915 0.59375)"/>
     <use xlink:href="#STIXGeneral-Regular-20" transform="translate(294.499908 0.59375)"/>
     <use xlink:href="#STIXGeneral-Regular-66" transform="translate(319.499893 0.59375)"/>
     <use xlink:href="#STIXGeneral-Regular-69" transform="translate(352.799881 0.59375)"/>
     <use xlink:href="#STIXGeneral-Regular-78" transform="translate(380.599869 0.59375)"/>
     <use xlink:href="#STIXGeneral-Regular-65" transform="translate(430.599854 0.59375)"/>
     <use xlink:href="#STIXGeneral-Regular-64" transform="translate(474.999847 0.59375)"/>
     <use xlink:href="#STIXGeneral-Regular-20" transform="translate(524.999832 0.59375)"/>
     <use xlink:href="#STIXGeneral-Regular-61" transform="translate(549.999817 0.59375)"/>
     <use xlink:href="#STIXGeneral-Regular-74" transform="translate(594.399811 0.59375)"/>
     <use xlink:href="#STIXGeneral-Regular-20" transform="translate(622.199799 0.59375)"/>
     <use xlink:href="#STIXGeneral-Italic-6d" transform="translate(647.199783 0.59375)"/>
     <use xlink:href="#STIXGeneral-Regular-3d" transform="translate(733.839761 0.59375)"/>
     <use xlink:href="#STIXGeneral-Regular-31" transform="translate(816.779742 0.59375)"/>
     <use xlink:href="#STIXGeneral-Regular-36" transform="translate(866.779727 0.59375)"/>
    </g>
   </g>
   <g id="legend_1">
    <g id="line2d_50">
     <path d="M 53.8 31.35 
L 62.8 31.35 
L 71.8 31.35 
" style="fill: none; stroke: #2b4f81; stroke-width: 1.2; stroke-linecap: square"/>
     <g>
      <use xlink:href="#me97f9a0a83" x="62.8" y="31.35" style="fill: #2b4f81; stroke: #2b4f81"/>
     </g>
    </g>
    <g id="text_12">
     <!-- forward (jvp) -->
     <g style="fill: #1a1a1a" transform="translate(79 34.5) scale(0.09 -0.09)">
      <defs>
       <path id="STIXGeneral-Regular-77" d="M 4442 2880 
L 4442 2784 
Q 4346 2752 4301 2691 
Q 4256 2630 4179 2438 
L 3296 224 
Q 3168 -90 3117 -90 
Q 3085 -90 3062 -48 
Q 3040 -6 2963 186 
L 2381 1696 
L 1664 160 
Q 1549 -90 1504 -90 
Q 1446 -90 1338 192 
L 474 2381 
Q 378 2630 314 2700 
Q 250 2771 134 2784 
L 134 2880 
L 1286 2880 
L 1286 2784 
Q 1120 2765 1056 2720 
Q 992 2675 992 2573 
Q 992 2477 1030 2381 
L 1664 710 
L 2246 1984 
L 2118 2342 
Q 2029 2598 1942 2681 
Q 1856 2765 1677 2784 
L 1677 2880 
L 2976 2880 
L 2976 2784 
Q 2752 2752 2678 2707 
Q 2605 2662 2605 2560 
Q 2605 2458 2714 2176 
L 3251 742 
L 3827 2163 
Q 3936 2432 3936 2592 
Q 3936 2669 3875 2710 
Q 3814 2752 3654 2784 
L 3654 2880 
L 4442 2880 
z
" transform="scale(0.015625)"/>
       <path id="STIXGeneral-Regular-6a" d="M 1242 4045 
Q 1242 3904 1146 3811 
Q 1050 3718 909 3718 
Q 774 3718 681 3811 
Q 589 3904 589 4045 
Q 589 4179 685 4275 
Q 781 4371 915 4371 
Q 1050 4371 1146 4275 
Q 1242 4179 1242 4045 
z
M 1235 2925 
L 1235 0 
Q 1235 -685 956 -1040 
Q 678 -1395 147 -1395 
Q -115 -1395 -281 -1296 
Q -448 -1197 -448 -1043 
Q -448 -941 -371 -867 
Q -294 -794 -186 -794 
Q -38 -794 122 -998 
Q 269 -1178 390 -1178 
Q 538 -1178 608 -1062 
Q 698 -902 698 -288 
L 698 2138 
Q 698 2522 493 2522 
Q 339 2522 237 2502 
L 205 2496 
L 205 2598 
Q 717 2758 1203 2944 
L 1235 2925 
z
" transform="scale(0.015625)"/>
       <path id="STIXGeneral-Regular-76" d="M 3053 2880 
L 3053 2784 
Q 2906 2771 2835 2688 
Q 2765 2605 2637 2285 
L 1818 230 
Q 1690 -90 1638 -90 
Q 1587 -90 1523 77 
Q 1510 96 1497 141 
Q 1485 186 1472 211 
L 704 2048 
Q 499 2534 403 2652 
Q 307 2771 122 2784 
L 122 2880 
L 1376 2880 
L 1376 2784 
Q 1210 2771 1146 2732 
Q 1082 2694 1082 2611 
Q 1082 2509 1139 2368 
L 1792 730 
L 2426 2387 
Q 2464 2483 2464 2579 
Q 2464 2758 2163 2784 
L 2163 2880 
L 3053 2880 
z
" transform="scale(0.015625)"/>
      </defs>
      <use xlink:href="#STIXGeneral-Regular-66"/>
      <use xlink:href="#STIXGeneral-Regular-6f" transform="translate(33.299988 0)"/>
      <use xlink:href="#STIXGeneral-Regular-72" transform="translate(83.299973 0)"/>
      <use xlink:href="#STIXGeneral-Regular-77" transform="translate(116.59996 0)"/>
      <use xlink:href="#STIXGeneral-Regular-61" transform="translate(188.799942 0)"/>
      <use xlink:href="#STIXGeneral-Regular-72" transform="translate(233.199936 0)"/>
      <use xlink:href="#STIXGeneral-Regular-64" transform="translate(266.499924 0)"/>
      <use xlink:href="#STIXGeneral-Regular-20" transform="translate(316.499908 0)"/>
      <use xlink:href="#STIXGeneral-Regular-28" transform="translate(341.499893 0)"/>
      <use xlink:href="#STIXGeneral-Regular-6a" transform="translate(374.799881 0)"/>
      <use xlink:href="#STIXGeneral-Regular-76" transform="translate(402.599869 0)"/>
      <use xlink:href="#STIXGeneral-Regular-70" transform="translate(452.599854 0)"/>
      <use xlink:href="#STIXGeneral-Regular-29" transform="translate(502.599838 0)"/>
     </g>
    </g>
    <g id="line2d_51">
     <path d="M 53.8 44.111719 
L 62.8 44.111719 
L 71.8 44.111719 
" style="fill: none; stroke: #9e2b25; stroke-width: 1.2; stroke-linecap: square"/>
     <g>
      <use xlink:href="#m7d2ca64265" x="62.8" y="44.111719" style="fill: #9e2b25; stroke: #9e2b25"/>
     </g>
    </g>
    <g id="text_13">
     <!-- reverse (vjp) -->
     <g style="fill: #1a1a1a" transform="translate(79 47.261719) scale(0.09 -0.09)">
      <use xlink:href="#STIXGeneral-Regular-72"/>
      <use xlink:href="#STIXGeneral-Regular-65" transform="translate(33.299988 0)"/>
      <use xlink:href="#STIXGeneral-Regular-76" transform="translate(77.699982 0)"/>
      <use xlink:href="#STIXGeneral-Regular-65" transform="translate(127.699966 0)"/>
      <use xlink:href="#STIXGeneral-Regular-72" transform="translate(172.09996 0)"/>
      <use xlink:href="#STIXGeneral-Regular-73" transform="translate(205.399948 0)"/>
      <use xlink:href="#STIXGeneral-Regular-65" transform="translate(244.299942 0)"/>
      <use xlink:href="#STIXGeneral-Regular-20" transform="translate(288.699936 0)"/>
      <use xlink:href="#STIXGeneral-Regular-28" transform="translate(313.699921 0)"/>
      <use xlink:href="#STIXGeneral-Regular-76" transform="translate(346.999908 0)"/>
      <use xlink:href="#STIXGeneral-Regular-6a" transform="translate(396.999893 0)"/>
      <use xlink:href="#STIXGeneral-Regular-70" transform="translate(424.799881 0)"/>
      <use xlink:href="#STIXGeneral-Regular-29" transform="translate(474.799866 0)"/>
     </g>
    </g>
   </g>
  </g>
  <g id="axes_2">
   <g id="patch_5">
    <path d="M 277.745 170.644 
L 473.066901 170.644 
L 473.066901 20.1 
L 277.745 20.1 
z
" style="fill: #ffffff"/>
   </g>
   <g id="matplotlib.axis_3">
    <g id="xtick_5">
     <g id="line2d_52">
      <path d="M 311.989749 170.644 
L 311.989749 20.1 
" clip-path="url(#p71f94af0f5)" style="fill: none; stroke: #e8e8e8; stroke-width: 0.6; stroke-linecap: square"/>
     </g>
     <g id="line2d_53">
      <g>
       <use xlink:href="#m1518b1d925" x="311.989749" y="170.644" style="fill: #1a1a1a; stroke: #1a1a1a; stroke-width: 0.8"/>
      </g>
     </g>
     <g id="text_14">
      <!-- $\mathdefault{2^{1}}$ -->
      <g style="fill: #1a1a1a" transform="translate(307.619749 184.132203) scale(0.095 -0.095)">
       <use xlink:href="#STIXGeneral-Regular-32" transform="translate(0 0.684375)"/>
       <use xlink:href="#STIXGeneral-Regular-31" transform="translate(51.574985 36.684375) scale(0.7)"/>
      </g>
     </g>
    </g>
    <g id="xtick_6">
     <g id="line2d_54">
      <path d="M 362.72271 170.644 
L 362.72271 20.1 
" clip-path="url(#p71f94af0f5)" style="fill: none; stroke: #e8e8e8; stroke-width: 0.6; stroke-linecap: square"/>
     </g>
     <g id="line2d_55">
      <g>
       <use xlink:href="#m1518b1d925" x="362.72271" y="170.644" style="fill: #1a1a1a; stroke: #1a1a1a; stroke-width: 0.8"/>
      </g>
     </g>
     <g id="text_15">
      <!-- $\mathdefault{2^{3}}$ -->
      <g style="fill: #1a1a1a" transform="translate(358.35271 184.132203) scale(0.095 -0.095)">
       <use xlink:href="#STIXGeneral-Regular-32" transform="translate(0 0.684375)"/>
       <use xlink:href="#STIXGeneral-Regular-33" transform="translate(51.574985 36.684375) scale(0.7)"/>
      </g>
     </g>
    </g>
    <g id="xtick_7">
     <g id="line2d_56">
      <path d="M 413.455671 170.644 
L 413.455671 20.1 
" clip-path="url(#p71f94af0f5)" style="fill: none; stroke: #e8e8e8; stroke-width: 0.6; stroke-linecap: square"/>
     </g>
     <g id="line2d_57">
      <g>
       <use xlink:href="#m1518b1d925" x="413.455671" y="170.644" style="fill: #1a1a1a; stroke: #1a1a1a; stroke-width: 0.8"/>
      </g>
     </g>
     <g id="text_16">
      <!-- $\mathdefault{2^{5}}$ -->
      <g style="fill: #1a1a1a" transform="translate(409.085671 184.132203) scale(0.095 -0.095)">
       <use xlink:href="#STIXGeneral-Regular-32" transform="translate(0 0.842187)"/>
       <use xlink:href="#STIXGeneral-Regular-35" transform="translate(51.574985 36.842187) scale(0.7)"/>
      </g>
     </g>
    </g>
    <g id="xtick_8">
     <g id="line2d_58">
      <path d="M 464.188632 170.644 
L 464.188632 20.1 
" clip-path="url(#p71f94af0f5)" style="fill: none; stroke: #e8e8e8; stroke-width: 0.6; stroke-linecap: square"/>
     </g>
     <g id="line2d_59">
      <g>
       <use xlink:href="#m1518b1d925" x="464.188632" y="170.644" style="fill: #1a1a1a; stroke: #1a1a1a; stroke-width: 0.8"/>
      </g>
     </g>
     <g id="text_17">
      <!-- $\mathdefault{2^{7}}$ -->
      <g style="fill: #1a1a1a" transform="translate(459.818632 184.132203) scale(0.095 -0.095)">
       <use xlink:href="#STIXGeneral-Regular-32" transform="translate(0 0.657813)"/>
       <use xlink:href="#STIXGeneral-Regular-37" transform="translate(51.574985 36.657813) scale(0.7)"/>
      </g>
     </g>
    </g>
    <g id="text_18">
     <!-- outputs $m$ -->
     <g style="fill: #1a1a1a" transform="translate(354.82595 197.334) scale(0.105 -0.105)">
      <use xlink:href="#STIXGeneral-Regular-6f" transform="translate(0 0.09375)"/>
      <use xlink:href="#STIXGeneral-Regular-75" transform="translate(49.999985 0.09375)"/>
      <use xlink:href="#STIXGeneral-Regular-74" transform="translate(99.999969 0.09375)"/>
      <use xlink:href="#STIXGeneral-Regular-70" transform="translate(127.799957 0.09375)"/>
      <use xlink:href="#STIXGeneral-Regular-75" transform="translate(177.799942 0.09375)"/>
      <use xlink:href="#STIXGeneral-Regular-74" transform="translate(227.799927 0.09375)"/>
      <use xlink:href="#STIXGeneral-Regular-73" transform="translate(255.599915 0.09375)"/>
      <use xlink:href="#STIXGeneral-Regular-20" transform="translate(294.499908 0.09375)"/>
      <use xlink:href="#STIXGeneral-Italic-6d" transform="translate(319.499893 0.09375)"/>
     </g>
    </g>
   </g>
   <g id="matplotlib.axis_4">
    <g id="ytick_20">
     <g id="line2d_60">
      <path d="M 277.745 115.965522 
L 473.066901 115.965522 
" clip-path="url(#p71f94af0f5)" style="fill: none; stroke: #e8e8e8; stroke-width: 0.6; stroke-linecap: square"/>
     </g>
     <g id="line2d_61">
      <g>
       <use xlink:href="#mcbebda9332" x="277.745" y="115.965522" style="fill: #1a1a1a; stroke: #1a1a1a; stroke-width: 0.8"/>
      </g>
     </g>
     <g id="text_19">
      <!-- $\mathdefault{10^{-1}}$ -->
      <g style="fill: #1a1a1a" transform="translate(252.695 119.209623) scale(0.095 -0.095)">
       <use xlink:href="#STIXGeneral-Regular-31" transform="translate(0 0.684375)"/>
       <use xlink:href="#STIXGeneral-Regular-30" transform="translate(49.999985 0.684375)"/>
       <use xlink:href="#STIXGeneral-Regular-2212" transform="translate(101.574969 36.684375) scale(0.7)"/>
       <use xlink:href="#STIXGeneral-Regular-31" transform="translate(149.524959 36.684375) scale(0.7)"/>
      </g>
     </g>
    </g>
    <g id="ytick_21">
     <g id="line2d_62">
      <path d="M 277.745 51.472951 
L 473.066901 51.472951 
" clip-path="url(#p71f94af0f5)" style="fill: none; stroke: #e8e8e8; stroke-width: 0.6; stroke-linecap: square"/>
     </g>
     <g id="line2d_63">
      <g>
       <use xlink:href="#mcbebda9332" x="277.745" y="51.472951" style="fill: #1a1a1a; stroke: #1a1a1a; stroke-width: 0.8"/>
      </g>
     </g>
     <g id="text_20">
      <!-- $\mathdefault{10^{0}}$ -->
      <g style="fill: #1a1a1a" transform="translate(257.255 54.717052) scale(0.095 -0.095)">
       <use xlink:href="#STIXGeneral-Regular-31" transform="translate(0 0.684375)"/>
       <use xlink:href="#STIXGeneral-Regular-30" transform="translate(49.999985 0.684375)"/>
       <use xlink:href="#STIXGeneral-Regular-30" transform="translate(101.574969 36.684375) scale(0.7)"/>
      </g>
     </g>
    </g>
    <g id="ytick_22">
     <g id="line2d_64">
      <path d="M 277.745 161.043894 
L 473.066901 161.043894 
" clip-path="url(#p71f94af0f5)" style="fill: none; stroke: #e8e8e8; stroke-width: 0.6; stroke-linecap: square"/>
     </g>
     <g id="line2d_65">
      <g>
       <use xlink:href="#m3f68ed9a66" x="277.745" y="161.043894" style="fill: #1a1a1a; stroke: #1a1a1a; stroke-width: 0.6"/>
      </g>
     </g>
    </g>
    <g id="ytick_23">
     <g id="line2d_66">
      <path d="M 277.745 149.687316 
L 473.066901 149.687316 
" clip-path="url(#p71f94af0f5)" style="fill: none; stroke: #e8e8e8; stroke-width: 0.6; stroke-linecap: square"/>
     </g>
     <g id="line2d_67">
      <g>
       <use xlink:href="#m3f68ed9a66" x="277.745" y="149.687316" style="fill: #1a1a1a; stroke: #1a1a1a; stroke-width: 0.6"/>
      </g>
     </g>
    </g>
    <g id="ytick_24">
     <g id="line2d_68">
      <path d="M 277.745 141.629696 
L 473.066901 141.629696 
" clip-path="url(#p71f94af0f5)" style="fill: none; stroke: #e8e8e8; stroke-width: 0.6; stroke-linecap: square"/>
     </g>
     <g id="line2d_69">
      <g>
       <use xlink:href="#m3f68ed9a66" x="277.745" y="141.629696" style="fill: #1a1a1a; stroke: #1a1a1a; stroke-width: 0.6"/>
      </g>
     </g>
    </g>
    <g id="ytick_25">
     <g id="line2d_70">
      <path d="M 277.745 135.37972 
L 473.066901 135.37972 
" clip-path="url(#p71f94af0f5)" style="fill: none; stroke: #e8e8e8; stroke-width: 0.6; stroke-linecap: square"/>
     </g>
     <g id="line2d_71">
      <g>
       <use xlink:href="#m3f68ed9a66" x="277.745" y="135.37972" style="fill: #1a1a1a; stroke: #1a1a1a; stroke-width: 0.6"/>
      </g>
     </g>
    </g>
    <g id="ytick_26">
     <g id="line2d_72">
      <path d="M 277.745 130.273118 
L 473.066901 130.273118 
" clip-path="url(#p71f94af0f5)" style="fill: none; stroke: #e8e8e8; stroke-width: 0.6; stroke-linecap: square"/>
     </g>
     <g id="line2d_73">
      <g>
       <use xlink:href="#m3f68ed9a66" x="277.745" y="130.273118" style="fill: #1a1a1a; stroke: #1a1a1a; stroke-width: 0.6"/>
      </g>
     </g>
    </g>
    <g id="ytick_27">
     <g id="line2d_74">
      <path d="M 277.745 125.955547 
L 473.066901 125.955547 
" clip-path="url(#p71f94af0f5)" style="fill: none; stroke: #e8e8e8; stroke-width: 0.6; stroke-linecap: square"/>
     </g>
     <g id="line2d_75">
      <g>
       <use xlink:href="#m3f68ed9a66" x="277.745" y="125.955547" style="fill: #1a1a1a; stroke: #1a1a1a; stroke-width: 0.6"/>
      </g>
     </g>
    </g>
    <g id="ytick_28">
     <g id="line2d_76">
      <path d="M 277.745 122.215497 
L 473.066901 122.215497 
" clip-path="url(#p71f94af0f5)" style="fill: none; stroke: #e8e8e8; stroke-width: 0.6; stroke-linecap: square"/>
     </g>
     <g id="line2d_77">
      <g>
       <use xlink:href="#m3f68ed9a66" x="277.745" y="122.215497" style="fill: #1a1a1a; stroke: #1a1a1a; stroke-width: 0.6"/>
      </g>
     </g>
    </g>
    <g id="ytick_29">
     <g id="line2d_78">
      <path d="M 277.745 118.91654 
L 473.066901 118.91654 
" clip-path="url(#p71f94af0f5)" style="fill: none; stroke: #e8e8e8; stroke-width: 0.6; stroke-linecap: square"/>
     </g>
     <g id="line2d_79">
      <g>
       <use xlink:href="#m3f68ed9a66" x="277.745" y="118.91654" style="fill: #1a1a1a; stroke: #1a1a1a; stroke-width: 0.6"/>
      </g>
     </g>
    </g>
    <g id="ytick_30">
     <g id="line2d_80">
      <path d="M 277.745 96.551323 
L 473.066901 96.551323 
" clip-path="url(#p71f94af0f5)" style="fill: none; stroke: #e8e8e8; stroke-width: 0.6; stroke-linecap: square"/>
     </g>
     <g id="line2d_81">
      <g>
       <use xlink:href="#m3f68ed9a66" x="277.745" y="96.551323" style="fill: #1a1a1a; stroke: #1a1a1a; stroke-width: 0.6"/>
      </g>
     </g>
    </g>
    <g id="ytick_31">
     <g id="line2d_82">
      <path d="M 277.745 85.194745 
L 473.066901 85.194745 
" clip-path="url(#p71f94af0f5)" style="fill: none; stroke: #e8e8e8; stroke-width: 0.6; stroke-linecap: square"/>
     </g>
     <g id="line2d_83">
      <g>
       <use xlink:href="#m3f68ed9a66" x="277.745" y="85.194745" style="fill: #1a1a1a; stroke: #1a1a1a; stroke-width: 0.6"/>
      </g>
     </g>
    </g>
    <g id="ytick_32">
     <g id="line2d_84">
      <path d="M 277.745 77.137125 
L 473.066901 77.137125 
" clip-path="url(#p71f94af0f5)" style="fill: none; stroke: #e8e8e8; stroke-width: 0.6; stroke-linecap: square"/>
     </g>
     <g id="line2d_85">
      <g>
       <use xlink:href="#m3f68ed9a66" x="277.745" y="77.137125" style="fill: #1a1a1a; stroke: #1a1a1a; stroke-width: 0.6"/>
      </g>
     </g>
    </g>
    <g id="ytick_33">
     <g id="line2d_86">
      <path d="M 277.745 70.887149 
L 473.066901 70.887149 
" clip-path="url(#p71f94af0f5)" style="fill: none; stroke: #e8e8e8; stroke-width: 0.6; stroke-linecap: square"/>
     </g>
     <g id="line2d_87">
      <g>
       <use xlink:href="#m3f68ed9a66" x="277.745" y="70.887149" style="fill: #1a1a1a; stroke: #1a1a1a; stroke-width: 0.6"/>
      </g>
     </g>
    </g>
    <g id="ytick_34">
     <g id="line2d_88">
      <path d="M 277.745 65.780547 
L 473.066901 65.780547 
" clip-path="url(#p71f94af0f5)" style="fill: none; stroke: #e8e8e8; stroke-width: 0.6; stroke-linecap: square"/>
     </g>
     <g id="line2d_89">
      <g>
       <use xlink:href="#m3f68ed9a66" x="277.745" y="65.780547" style="fill: #1a1a1a; stroke: #1a1a1a; stroke-width: 0.6"/>
      </g>
     </g>
    </g>
    <g id="ytick_35">
     <g id="line2d_90">
      <path d="M 277.745 61.462976 
L 473.066901 61.462976 
" clip-path="url(#p71f94af0f5)" style="fill: none; stroke: #e8e8e8; stroke-width: 0.6; stroke-linecap: square"/>
     </g>
     <g id="line2d_91">
      <g>
       <use xlink:href="#m3f68ed9a66" x="277.745" y="61.462976" style="fill: #1a1a1a; stroke: #1a1a1a; stroke-width: 0.6"/>
      </g>
     </g>
    </g>
    <g id="ytick_36">
     <g id="line2d_92">
      <path d="M 277.745 57.722926 
L 473.066901 57.722926 
" clip-path="url(#p71f94af0f5)" style="fill: none; stroke: #e8e8e8; stroke-width: 0.6; stroke-linecap: square"/>
     </g>
     <g id="line2d_93">
      <g>
       <use xlink:href="#m3f68ed9a66" x="277.745" y="57.722926" style="fill: #1a1a1a; stroke: #1a1a1a; stroke-width: 0.6"/>
      </g>
     </g>
    </g>
    <g id="ytick_37">
     <g id="line2d_94">
      <path d="M 277.745 54.423969 
L 473.066901 54.423969 
" clip-path="url(#p71f94af0f5)" style="fill: none; stroke: #e8e8e8; stroke-width: 0.6; stroke-linecap: square"/>
     </g>
     <g id="line2d_95">
      <g>
       <use xlink:href="#m3f68ed9a66" x="277.745" y="54.423969" style="fill: #1a1a1a; stroke: #1a1a1a; stroke-width: 0.6"/>
      </g>
     </g>
    </g>
    <g id="ytick_38">
     <g id="line2d_96">
      <path d="M 277.745 32.058752 
L 473.066901 32.058752 
" clip-path="url(#p71f94af0f5)" style="fill: none; stroke: #e8e8e8; stroke-width: 0.6; stroke-linecap: square"/>
     </g>
     <g id="line2d_97">
      <g>
       <use xlink:href="#m3f68ed9a66" x="277.745" y="32.058752" style="fill: #1a1a1a; stroke: #1a1a1a; stroke-width: 0.6"/>
      </g>
     </g>
    </g>
    <g id="ytick_39">
     <g id="line2d_98">
      <path d="M 277.745 20.702174 
L 473.066901 20.702174 
" clip-path="url(#p71f94af0f5)" style="fill: none; stroke: #e8e8e8; stroke-width: 0.6; stroke-linecap: square"/>
     </g>
     <g id="line2d_99">
      <g>
       <use xlink:href="#m3f68ed9a66" x="277.745" y="20.702174" style="fill: #1a1a1a; stroke: #1a1a1a; stroke-width: 0.6"/>
      </g>
     </g>
    </g>
   </g>
   <g id="line2d_100">
    <path d="M 286.623268 119.124894 
L 311.989749 118.619665 
L 337.356229 118.748366 
L 362.72271 118.288163 
L 388.089191 117.973147 
L 413.455671 117.048273 
L 438.822152 108.393421 
L 464.188632 106.012805 
" clip-path="url(#p71f94af0f5)" style="fill: none; stroke: #2b4f81; stroke-width: 1.2; stroke-linecap: square"/>
    <g clip-path="url(#p71f94af0f5)">
     <use xlink:href="#me97f9a0a83" x="286.623268" y="119.124894" style="fill: #2b4f81; stroke: #2b4f81"/>
     <use xlink:href="#me97f9a0a83" x="311.989749" y="118.619665" style="fill: #2b4f81; stroke: #2b4f81"/>
     <use xlink:href="#me97f9a0a83" x="337.356229" y="118.748366" style="fill: #2b4f81; stroke: #2b4f81"/>
     <use xlink:href="#me97f9a0a83" x="362.72271" y="118.288163" style="fill: #2b4f81; stroke: #2b4f81"/>
     <use xlink:href="#me97f9a0a83" x="388.089191" y="117.973147" style="fill: #2b4f81; stroke: #2b4f81"/>
     <use xlink:href="#me97f9a0a83" x="413.455671" y="117.048273" style="fill: #2b4f81; stroke: #2b4f81"/>
     <use xlink:href="#me97f9a0a83" x="438.822152" y="108.393421" style="fill: #2b4f81; stroke: #2b4f81"/>
     <use xlink:href="#me97f9a0a83" x="464.188632" y="106.012805" style="fill: #2b4f81; stroke: #2b4f81"/>
    </g>
   </g>
   <g id="line2d_101">
    <path d="M 286.623268 163.801091 
L 311.989749 150.078436 
L 337.356229 134.506179 
L 362.72271 117.181938 
L 388.089191 98.390204 
L 413.455671 78.183369 
L 438.822152 50.225595 
L 464.188632 26.942909 
" clip-path="url(#p71f94af0f5)" style="fill: none; stroke: #9e2b25; stroke-width: 1.2; stroke-linecap: square"/>
    <g clip-path="url(#p71f94af0f5)">
     <use xlink:href="#m7d2ca64265" x="286.623268" y="163.801091" style="fill: #9e2b25; stroke: #9e2b25"/>
     <use xlink:href="#m7d2ca64265" x="311.989749" y="150.078436" style="fill: #9e2b25; stroke: #9e2b25"/>
     <use xlink:href="#m7d2ca64265" x="337.356229" y="134.506179" style="fill: #9e2b25; stroke: #9e2b25"/>
     <use xlink:href="#m7d2ca64265" x="362.72271" y="117.181938" style="fill: #9e2b25; stroke: #9e2b25"/>
     <use xlink:href="#m7d2ca64265" x="388.089191" y="98.390204" style="fill: #9e2b25; stroke: #9e2b25"/>
     <use xlink:href="#m7d2ca64265" x="413.455671" y="78.183369" style="fill: #9e2b25; stroke: #9e2b25"/>
     <use xlink:href="#m7d2ca64265" x="438.822152" y="50.225595" style="fill: #9e2b25; stroke: #9e2b25"/>
     <use xlink:href="#m7d2ca64265" x="464.188632" y="26.942909" style="fill: #9e2b25; stroke: #9e2b25"/>
    </g>
   </g>
   <g id="line2d_102">
    <path d="M 388.089191 170.644 
L 388.089191 20.1 
" clip-path="url(#p71f94af0f5)" style="fill: none; stroke-dasharray: 3.33,1.44; stroke-dashoffset: 0; stroke: #8a8a8a; stroke-width: 0.9"/>
   </g>
   <g id="patch_6">
    <path d="M 277.745 170.644 
L 277.745 20.1 
" style="fill: none; stroke: #1a1a1a; stroke-width: 0.8; stroke-linejoin: miter; stroke-linecap: square"/>
   </g>
   <g id="patch_7">
    <path d="M 277.745 170.644 
L 473.066901 170.644 
" style="fill: none; stroke: #1a1a1a; stroke-width: 0.8; stroke-linejoin: miter; stroke-linecap: square"/>
   </g>
   <g id="text_21">
    <!-- $n = m$ -->
    <g style="fill: #8a8a8a" transform="translate(392.236578 32.268479) scale(0.09 -0.09)">
     <use xlink:href="#STIXGeneral-Italic-6e" transform="translate(0 0.90625)"/>
     <use xlink:href="#STIXGeneral-Regular-3d" transform="translate(64.439981 0.90625)"/>
     <use xlink:href="#STIXGeneral-Italic-6d" transform="translate(147.379962 0.90625)"/>
    </g>
   </g>
   <g id="text_22">
    <!-- inputs fixed at $n = 16$ -->
    <g style="fill: #1a1a1a" transform="translate(333.15595 14.1) scale(0.1 -0.1)">
     <use xlink:href="#STIXGeneral-Regular-69" transform="translate(0 0.59375)"/>
     <use xlink:href="#STIXGeneral-Regular-6e" transform="translate(27.799988 0.59375)"/>
     <use xlink:href="#STIXGeneral-Regular-70" transform="translate(77.799973 0.59375)"/>
     <use xlink:href="#STIXGeneral-Regular-75" transform="translate(127.799957 0.59375)"/>
     <use xlink:href="#STIXGeneral-Regular-74" transform="translate(177.799942 0.59375)"/>
     <use xlink:href="#STIXGeneral-Regular-73" transform="translate(205.59993 0.59375)"/>
     <use xlink:href="#STIXGeneral-Regular-20" transform="translate(244.499924 0.59375)"/>
     <use xlink:href="#STIXGeneral-Regular-66" transform="translate(269.499908 0.59375)"/>
     <use xlink:href="#STIXGeneral-Regular-69" transform="translate(302.799896 0.59375)"/>
     <use xlink:href="#STIXGeneral-Regular-78" transform="translate(330.599884 0.59375)"/>
     <use xlink:href="#STIXGeneral-Regular-65" transform="translate(380.599869 0.59375)"/>
     <use xlink:href="#STIXGeneral-Regular-64" transform="translate(424.999863 0.59375)"/>
     <use xlink:href="#STIXGeneral-Regular-20" transform="translate(474.999847 0.59375)"/>
     <use xlink:href="#STIXGeneral-Regular-61" transform="translate(499.999832 0.59375)"/>
     <use xlink:href="#STIXGeneral-Regular-74" transform="translate(544.399826 0.59375)"/>
     <use xlink:href="#STIXGeneral-Regular-20" transform="translate(572.199814 0.59375)"/>
     <use xlink:href="#STIXGeneral-Italic-6e" transform="translate(597.199799 0.59375)"/>
     <use xlink:href="#STIXGeneral-Regular-3d" transform="translate(661.63978 0.59375)"/>
     <use xlink:href="#STIXGeneral-Regular-31" transform="translate(744.579761 0.59375)"/>
     <use xlink:href="#STIXGeneral-Regular-36" transform="translate(794.579745 0.59375)"/>
    </g>
   </g>
  </g>
 </g>
 <defs>
  <clipPath id="p9d029a871d">
   <rect x="45.7" y="20.1" width="195.321901" height="150.544"/>
  </clipPath>
  <clipPath id="p71f94af0f5">
   <rect x="277.745" y="20.1" width="195.321901" height="150.544"/>
  </clipPath>
 </defs>
</svg>
