<?xml version="1.0" encoding="utf-8" standalone="no"?>
<!DOCTYPE svg PUBLIC "-//W3C//DTD SVG 1.1//EN"
  "http://www.w3.org/Graphics/SVG/1.1/DTD/svg11.dtd">
<svg xmlns:xlink="http://www.w3.org/1999/xlink" width="391.392pt" height="269.424pt" viewBox="0 0 391.392 269.424" xmlns="http://www.w3.org/2000/svg" version="1.1">
 <metadata>
  <rdf:RDF xmlns:dc="http://purl.org/dc/elements/1.1/" xmlns:cc="http://creativecommons.org/ns#" xmlns:rdf="http://www.w3.org/1999/02/22-rdf-syntax-ns#">
   <cc:Work>
    <dc:type rdf:resource="http://purl.org/dc/dcmitype/StillImage"/>
    <dc:date>2026-06-09T15:24:40.245414</dc:date>
    <dc:format>image/svg+xml</dc:format>
    <dc:creator>
     <cc:Agent>
      <dc:title>Matplotlib v3.10.9, https://matplotlib.org/</dc:title>
     </cc:Agent>
    </dc:creator>
   </cc:Work>
  </rdf:RDF>
 </metadata>
 <defs>
  <style type="text/css">*{stroke-linejoin: round; stroke-linecap: butt}</style>
 </defs>
 <g id="figure_1">
  <g id="patch_1">
   <path d="M 0 269.424 
L 391.392 269.424 
L 391.392 0 
L 0 0 
z
" style="fill: #ffffff"/>
  </g>
  <g id="axes_1">
   <g id="patch_2">
    <path d="M 108.98784 53.747424 
Q 128.77992 53.747424 147.342163 53.747424 
" clip-path="url(#pb08d74c9be)" style="fill: none; stroke: #2b4f81; stroke-width: 1.1; stroke-linecap: round"/>
    <path d="M 142.942163 51.547424 
L 147.342163 53.747424 
L 142.942163 55.947424 
z
" clip-path="url(#pb08d74c9be)" style="fill: #2b4f81; stroke: #2b4f81; stroke-width: 1.1; stroke-linecap: round"/>
   </g>
   <g id="patch_3">
    <path d="M 148.572 63.549216 
Q 128.77992 63.549216 110.217677 63.549216 
" clip-path="url(#pb08d74c9be)" style="fill: none; stroke-dasharray: 5.5,3.3; stroke-dashoffset: 0; stroke: #9e2b25; stroke-width: 1.1; stroke-linecap: round"/>
    <path d="M 114.617677 65.749216 
L 110.217677 63.549216 
L 114.617677 61.349216 
z
" clip-path="url(#pb08d74c9be)" style="fill: #9e2b25; stroke-dasharray: 5.5,3.3; stroke-dashoffset: 0; stroke: #9e2b25; stroke-width: 1.1; stroke-linecap: round"/>
   </g>
   <g id="patch_4">
    <path d="M 105.789892 126.563054 
Q 126.14746 109.032926 145.573096 92.305295 
" clip-path="url(#pb08d74c9be)" style="fill: none; stroke: #2b4f81; stroke-width: 1.1; stroke-linecap: round"/>
    <path d="M 140.803362 93.509306 
L 145.573096 92.305295 
L 143.674464 96.843488 
z
" clip-path="url(#pb08d74c9be)" style="fill: #2b4f81; stroke: #2b4f81; stroke-width: 1.1; stroke-linecap: round"/>
   </g>
   <g id="patch_5">
    <path d="M 152.900924 98.93029 
Q 132.543356 116.460418 113.11772 133.188049 
" clip-path="url(#pb08d74c9be)" style="fill: none; stroke-dasharray: 5.5,3.3; stroke-dashoffset: 0; stroke: #9e2b25; stroke-width: 1.1; stroke-linecap: round"/>
    <path d="M 117.887454 131.984038 
L 113.11772 133.188049 
L 115.016352 128.649856 
z
" clip-path="url(#pb08d74c9be)" style="fill: #9e2b25; stroke-dasharray: 5.5,3.3; stroke-dashoffset: 0; stroke: #9e2b25; stroke-width: 1.1; stroke-linecap: round"/>
   </g>
   <g id="patch_6">
    <path d="M 245.241089 69.466884 
Q 261.828737 78.891684 277.347095 87.708933 
" clip-path="url(#pb08d74c9be)" style="fill: none; stroke: #2b4f81; stroke-width: 1.1; stroke-linecap: round"/>
    <path d="M 274.608306 83.622487 
L 277.347095 87.708933 
L 272.434665 87.448096 
z
" clip-path="url(#pb08d74c9be)" style="fill: #2b4f81; stroke: #2b4f81; stroke-width: 1.1; stroke-linecap: round"/>
   </g>
   <g id="patch_7">
    <path d="M 273.574207 96.838716 
Q 256.986559 87.413916 241.468201 78.596667 
" clip-path="url(#pb08d74c9be)" style="fill: none; stroke-dasharray: 5.5,3.3; stroke-dashoffset: 0; stroke: #9e2b25; stroke-width: 1.1; stroke-linecap: round"/>
    <path d="M 244.20699 82.683113 
L 241.468201 78.596667 
L 246.380631 78.857504 
z
" clip-path="url(#pb08d74c9be)" style="fill: #9e2b25; stroke-dasharray: 5.5,3.3; stroke-dashoffset: 0; stroke: #9e2b25; stroke-width: 1.1; stroke-linecap: round"/>
   </g>
   <g id="patch_8">
    <path d="M 107.908696 166.96531 
Q 200.837224 189.867574 273.964256 130.044824 
" clip-path="url(#pb08d74c9be)" style="fill: none; stroke: #2b4f81; stroke-width: 1.1; stroke-linecap: round"/>
    <path d="M 269.165646 131.128032 
L 273.964256 130.044824 
L 271.951656 134.533637 
z
" clip-path="url(#pb08d74c9be)" style="fill: #2b4f81; stroke: #2b4f81; stroke-width: 1.1; stroke-linecap: round"/>
   </g>
   <g id="patch_9">
    <path d="M 277.07444 138.82733 
Q 202.995512 199.428794 111.261093 176.820818 
" clip-path="url(#pb08d74c9be)" style="fill: none; stroke-dasharray: 5.5,3.3; stroke-dashoffset: 0; stroke: #9e2b25; stroke-width: 1.1; stroke-linecap: round"/>
    <path d="M 115.006825 180.009782 
L 111.261093 176.820818 
L 116.059703 175.73761 
z
" clip-path="url(#pb08d74c9be)" style="fill: #9e2b25; stroke-dasharray: 5.5,3.3; stroke-dashoffset: 0; stroke: #9e2b25; stroke-width: 1.1; stroke-linecap: round"/>
   </g>
   <g id="patch_10">
    <path d="M 30.573504 94.46256 
L 104.463936 94.46256 
Q 108.98784 94.46256 108.98784 89.938656 
L 108.98784 27.357984 
Q 108.98784 22.83408 104.463936 22.83408 
L 30.573504 22.83408 
Q 26.0496 22.83408 26.0496 27.357984 
L 26.0496 89.938656 
Q 26.0496 94.46256 30.573504 94.46256 
z
" clip-path="url(#pb08d74c9be)" style="fill: #ffffff; stroke: #1a1a1a; stroke-width: 0.9; stroke-linejoin: miter"/>
   </g>
   <g id="patch_11">
    <path d="M 30.573504 200.02032 
L 104.463936 200.02032 
Q 108.98784 200.02032 108.98784 195.496416 
L 108.98784 132.915744 
Q 108.98784 128.39184 104.463936 128.39184 
L 30.573504 128.39184 
Q 26.0496 128.39184 26.0496 132.915744 
L 26.0496 195.496416 
Q 26.0496 200.02032 30.573504 200.02032 
z
" clip-path="url(#pb08d74c9be)" style="fill: #ffffff; stroke: #1a1a1a; stroke-width: 0.9; stroke-linejoin: miter"/>
   </g>
   <g id="patch_12">
    <path d="M 153.095904 94.46256 
L 238.296096 94.46256 
Q 242.82 94.46256 242.82 89.938656 
L 242.82 27.357984 
Q 242.82 22.83408 238.296096 22.83408 
L 153.095904 22.83408 
Q 148.572 22.83408 148.572 27.357984 
L 148.572 89.938656 
Q 148.572 94.46256 153.095904 94.46256 
z
" clip-path="url(#pb08d74c9be)" style="fill: #ffffff; stroke: #1a1a1a; stroke-width: 0.9; stroke-linejoin: miter"/>
   </g>
   <g id="patch_13">
    <path d="M 281.273184 147.24144 
L 374.013216 147.24144 
Q 378.53712 147.24144 378.53712 142.717536 
L 378.53712 80.136864 
Q 378.53712 75.61296 374.013216 75.61296 
L 281.273184 75.61296 
Q 276.74928 75.61296 276.74928 80.136864 
L 276.74928 142.717536 
Q 276.74928 147.24144 281.273184 147.24144 
z
" clip-path="url(#pb08d74c9be)" style="fill: #ffffff; stroke: #1a1a1a; stroke-width: 0.9; stroke-linejoin: miter"/>
   </g>
   <g id="text_1">
    <!-- $\partial z/\partial y = 3 + 1 = 4$ -->
    <g style="fill: #1a1a1a" transform="translate(160.056 232.742336) scale(0.11 -0.11)">
     <defs>
      <path id="STIXGeneral-Regular-2202" d="M 1248 4000 
L 1184 4128 
Q 1427 4275 1811 4275 
Q 3014 4275 3014 2611 
Q 3014 2298 2963 1965 
Q 2912 1632 2777 1261 
Q 2643 890 2438 598 
Q 2234 307 1894 118 
Q 1555 -70 1126 -70 
Q 685 -70 470 224 
Q 256 518 256 966 
Q 256 1664 739 2224 
Q 1222 2784 1901 2784 
Q 2342 2784 2515 2477 
Q 2560 2726 2560 2925 
Q 2560 3418 2365 3750 
Q 2170 4083 1722 4083 
Q 1510 4083 1248 4000 
z
M 2349 2042 
Q 2349 2323 2230 2457 
Q 2112 2592 1958 2592 
Q 1491 2592 1132 2013 
Q 774 1434 774 749 
Q 774 122 1203 122 
Q 1549 122 1827 499 
Q 2106 877 2253 1414 
Q 2349 1766 2349 2042 
z
" transform="scale(0.015625)"/>
      <path id="STIXGeneral-Italic-7a" d="M 2432 2669 
L 582 467 
Q 877 403 1021 307 
Q 1165 211 1350 -64 
Q 1568 -384 1798 -384 
Q 1971 -384 1971 -288 
Q 1971 -256 1939 -192 
Q 1888 -90 1888 -13 
Q 1894 70 1958 137 
Q 2022 205 2099 205 
Q 2202 205 2262 141 
Q 2323 77 2323 -32 
Q 2323 -230 2156 -374 
Q 1990 -518 1728 -518 
Q 1459 -518 1005 -237 
Q 570 32 333 32 
Q 186 32 45 -83 
L -13 -26 
L 1971 2355 
L 1101 2355 
Q 845 2355 729 2281 
Q 614 2208 518 1971 
L 416 1997 
L 621 2739 
L 2432 2739 
L 2432 2669 
z
" transform="scale(0.015625)"/>
      <path id="STIXGeneral-Regular-2f" d="M 1837 4326 
L 378 -90 
L -58 -90 
L 1408 4326 
L 1837 4326 
z
" transform="scale(0.015625)"/>
      <path id="STIXGeneral-Italic-79" d="M 1555 1190 
L 1690 486 
Q 2118 1190 2294 1558 
Q 2470 1926 2470 2131 
Q 2470 2234 2304 2336 
Q 2138 2445 2138 2586 
Q 2138 2688 2211 2755 
Q 2285 2822 2394 2822 
Q 2534 2822 2630 2720 
Q 2726 2618 2726 2470 
Q 2726 1914 1888 518 
Q 1389 -307 918 -812 
Q 448 -1318 173 -1318 
Q 26 -1318 -64 -1241 
Q -154 -1165 -154 -1043 
Q -154 -934 -80 -860 
Q -6 -787 96 -787 
Q 218 -787 314 -876 
Q 410 -966 486 -966 
Q 602 -966 794 -755 
Q 877 -672 1040 -457 
Q 1203 -243 1248 -173 
Q 1312 -45 1312 51 
Q 1312 243 1113 1046 
Q 915 1850 787 2176 
Q 698 2413 592 2499 
Q 486 2586 294 2586 
Q 192 2586 96 2560 
L 96 2669 
Q 237 2694 301 2707 
Q 563 2758 986 2822 
L 1011 2822 
Q 1082 2822 1277 2227 
Q 1472 1632 1555 1190 
z
" transform="scale(0.015625)"/>
      <path id="STIXGeneral-Regular-3d" d="M 4077 2048 
L 307 2048 
L 307 2470 
L 4077 2470 
L 4077 2048 
z
M 4077 768 
L 307 768 
L 307 1190 
L 4077 1190 
L 4077 768 
z
" transform="scale(0.015625)"/>
      <path id="STIXGeneral-Regular-33" d="M 390 3264 
L 288 3290 
Q 435 3770 748 4048 
Q 1062 4326 1542 4326 
Q 1990 4326 2265 4083 
Q 2541 3840 2541 3450 
Q 2541 2925 1946 2566 
Q 2298 2413 2477 2227 
Q 2758 1914 2758 1402 
Q 2758 890 2464 506 
Q 2246 211 1840 60 
Q 1434 -90 979 -90 
Q 262 -90 262 275 
Q 262 378 339 442 
Q 416 506 525 506 
Q 685 506 915 339 
Q 1197 141 1466 141 
Q 1818 141 2058 425 
Q 2298 710 2298 1120 
Q 2298 1856 1632 2048 
Q 1434 2112 979 2112 
L 979 2202 
Q 1338 2323 1517 2432 
Q 2035 2726 2035 3290 
Q 2035 3610 1852 3776 
Q 1670 3942 1344 3942 
Q 768 3942 390 3264 
z
" transform="scale(0.015625)"/>
      <path id="STIXGeneral-Regular-2b" d="M 4070 1408 
L 2400 1408 
L 2400 -262 
L 1978 -262 
L 1978 1408 
L 307 1408 
L 307 1830 
L 1978 1830 
L 1978 3501 
L 2400 3501 
L 2400 1830 
L 4070 1830 
L 4070 1408 
z
" transform="scale(0.015625)"/>
      <path id="STIXGeneral-Regular-31" d="M 2522 0 
L 755 0 
L 755 96 
Q 1107 115 1235 227 
Q 1363 339 1363 608 
L 1363 3482 
Q 1363 3795 1171 3795 
Q 1082 3795 883 3718 
L 710 3654 
L 710 3744 
L 1856 4326 
L 1914 4307 
L 1914 486 
Q 1914 275 2042 185 
Q 2170 96 2522 96 
L 2522 0 
z
" transform="scale(0.015625)"/>
      <path id="STIXGeneral-Regular-34" d="M 3027 1069 
L 2368 1069 
L 2368 0 
L 1869 0 
L 1869 1069 
L 77 1069 
L 77 1478 
L 2086 4326 
L 2368 4326 
L 2368 1478 
L 3027 1478 
L 3027 1069 
z
M 1869 1478 
L 1869 3674 
L 333 1478 
L 1869 1478 
z
" transform="scale(0.015625)"/>
     </defs>
     <use xlink:href="#STIXGeneral-Regular-2202" transform="translate(0 0.40625)"/>
     <use xlink:href="#STIXGeneral-Italic-7a" transform="translate(47.099991 0.40625)"/>
     <use xlink:href="#STIXGeneral-Regular-2f" transform="translate(85.999985 0.40625)"/>
     <use xlink:href="#STIXGeneral-Regular-2202" transform="translate(113.799973 0.40625)"/>
     <use xlink:href="#STIXGeneral-Italic-79" transform="translate(160.899963 0.40625)"/>
     <use xlink:href="#STIXGeneral-Regular-3d" transform="translate(219.739954 0.40625)"/>
     <use xlink:href="#STIXGeneral-Regular-33" transform="translate(302.679935 0.40625)"/>
     <use xlink:href="#STIXGeneral-Regular-2b" transform="translate(367.119916 0.40625)"/>
     <use xlink:href="#STIXGeneral-Regular-31" transform="translate(450.059897 0.40625)"/>
     <use xlink:href="#STIXGeneral-Regular-3d" transform="translate(514.499878 0.40625)"/>
     <use xlink:href="#STIXGeneral-Regular-34" transform="translate(597.439859 0.40625)"/>
    </g>
   </g>
   <g id="text_2">
    <!-- $y$ feeds both the product and the sum, so its gradient is the sum of the two paths -->
    <g style="fill: #8a8a8a" transform="translate(60.631 251.02678) scale(0.085 -0.085)">
     <defs>
      <path id="STIXGeneral-Regular-20" transform="scale(0.015625)"/>
      <path id="STIXGeneral-Regular-66" d="M 134 2880 
L 659 2880 
Q 666 3264 710 3478 
Q 755 3693 883 3910 
Q 1152 4371 1786 4371 
Q 2074 4371 2262 4259 
Q 2451 4147 2451 3974 
Q 2451 3866 2374 3789 
Q 2298 3712 2182 3712 
Q 2029 3712 1894 3942 
Q 1741 4192 1555 4192 
Q 1197 4192 1197 3622 
L 1197 2880 
L 1978 2880 
L 1978 2675 
L 1197 2675 
L 1197 666 
Q 1197 307 1299 208 
Q 1402 109 1792 96 
L 1792 0 
L 128 0 
L 128 96 
Q 474 115 566 214 
Q 659 314 659 666 
L 659 2675 
L 134 2675 
L 134 2880 
z
" transform="scale(0.015625)"/>
      <path id="STIXGeneral-Regular-65" d="M 2611 1050 
L 2714 1005 
Q 2330 -64 1376 -64 
Q 813 -64 486 329 
Q 160 723 160 1389 
Q 160 2074 525 2509 
Q 890 2944 1485 2944 
Q 2061 2944 2374 2502 
Q 2560 2246 2592 1773 
L 621 1773 
Q 646 1370 700 1158 
Q 755 947 915 730 
Q 1184 378 1626 378 
Q 1939 378 2153 531 
Q 2368 685 2611 1050 
z
M 634 1978 
L 1939 1978 
Q 1882 2381 1750 2547 
Q 1619 2714 1312 2714 
Q 1043 2714 864 2525 
Q 685 2336 634 1978 
z
" transform="scale(0.015625)"/>
      <path id="STIXGeneral-Regular-64" d="M 3142 269 
L 2202 -64 
L 2176 -45 
L 2176 365 
Q 1869 -64 1357 -64 
Q 826 -64 499 317 
Q 173 698 173 1312 
Q 173 1990 563 2467 
Q 954 2944 1504 2944 
Q 1850 2944 2176 2669 
L 2176 3667 
Q 2176 3866 2118 3930 
Q 2061 3994 1882 3994 
Q 1792 3994 1741 3987 
L 1741 4090 
Q 2323 4243 2682 4371 
L 2714 4358 
L 2714 730 
Q 2714 506 2768 435 
Q 2822 365 2995 365 
Q 3034 365 3142 371 
L 3142 269 
z
M 2176 653 
L 2176 2125 
Q 2176 2381 1981 2573 
Q 1786 2765 1523 2765 
Q 1158 2765 940 2438 
Q 723 2112 723 1568 
Q 723 979 963 624 
Q 1203 269 1606 269 
Q 1907 269 2080 474 
Q 2176 582 2176 653 
z
" transform="scale(0.015625)"/>
      <path id="STIXGeneral-Regular-73" d="M 998 1926 
L 1664 1523 
Q 1984 1331 2105 1164 
Q 2227 998 2227 736 
Q 2227 416 1961 176 
Q 1696 -64 1331 -64 
Q 1030 -64 864 -6 
Q 691 51 570 51 
Q 461 51 416 -26 
L 333 -26 
L 333 979 
L 435 979 
Q 538 512 730 294 
Q 922 77 1248 77 
Q 1485 77 1632 211 
Q 1779 346 1779 550 
Q 1779 845 1440 1030 
L 1094 1222 
Q 326 1651 326 2150 
Q 326 2522 566 2730 
Q 806 2938 1210 2938 
Q 1491 2938 1638 2867 
Q 1754 2816 1818 2816 
Q 1862 2816 1920 2880 
L 1990 2880 
L 2022 2010 
L 1926 2010 
Q 1818 2445 1654 2621 
Q 1491 2797 1203 2797 
Q 986 2797 854 2688 
Q 723 2579 723 2362 
Q 723 2253 796 2128 
Q 870 2003 998 1926 
z
" transform="scale(0.015625)"/>
      <path id="STIXGeneral-Regular-62" d="M 979 4358 
L 979 2406 
Q 1082 2650 1315 2797 
Q 1549 2944 1843 2944 
Q 2349 2944 2672 2541 
Q 2995 2138 2995 1536 
Q 2995 832 2566 384 
Q 2138 -64 1498 -64 
Q 1107 -64 774 67 
Q 442 198 442 358 
L 442 3622 
Q 442 3859 384 3926 
Q 326 3994 128 3994 
Q 83 3994 19 3981 
L 19 4090 
L 211 4147 
Q 864 4346 947 4371 
L 979 4358 
z
M 979 2035 
L 979 474 
Q 979 326 1161 233 
Q 1344 141 1600 141 
Q 1978 141 2195 416 
Q 2432 710 2432 1261 
Q 2432 1888 2182 2240 
Q 1971 2541 1613 2541 
Q 1357 2541 1168 2390 
Q 979 2240 979 2035 
z
" transform="scale(0.015625)"/>
      <path id="STIXGeneral-Regular-6f" d="M 3008 1478 
Q 3008 806 2608 371 
Q 2208 -64 1568 -64 
Q 979 -64 582 368 
Q 186 800 186 1459 
Q 186 2125 582 2534 
Q 979 2944 1626 2944 
Q 2221 2944 2614 2537 
Q 3008 2131 3008 1478 
z
M 2432 1306 
Q 2432 2035 2112 2445 
Q 1856 2765 1504 2765 
Q 1171 2765 966 2493 
Q 762 2221 762 1747 
Q 762 928 1101 435 
Q 1318 115 1677 115 
Q 2029 115 2230 432 
Q 2432 749 2432 1306 
z
" transform="scale(0.015625)"/>
      <path id="STIXGeneral-Regular-74" d="M 1702 493 
L 1786 422 
Q 1478 -64 1011 -64 
Q 448 -64 448 749 
L 448 2675 
L 109 2675 
Q 83 2694 83 2720 
Q 83 2771 192 2842 
Q 435 2982 813 3526 
Q 826 3546 874 3606 
Q 922 3667 941 3706 
Q 986 3706 986 3622 
L 986 2880 
L 1632 2880 
L 1632 2675 
L 986 2675 
L 986 845 
Q 986 538 1062 403 
Q 1139 269 1318 269 
Q 1510 269 1702 493 
z
" transform="scale(0.015625)"/>
      <path id="STIXGeneral-Regular-68" d="M 3117 0 
L 1760 0 
L 1760 96 
Q 2042 128 2118 224 
Q 2195 320 2195 653 
L 2195 1920 
Q 2195 2598 1722 2598 
Q 1530 2598 1370 2508 
Q 1210 2419 1005 2195 
L 1005 653 
Q 1005 320 1081 224 
Q 1158 128 1440 96 
L 1440 0 
L 58 0 
L 58 96 
Q 333 134 400 224 
Q 467 314 467 653 
L 467 3667 
Q 467 3872 406 3933 
Q 346 3994 141 3994 
Q 83 3994 64 3987 
L 64 4090 
L 237 4141 
Q 730 4288 973 4371 
L 1005 4352 
L 1005 2406 
Q 1229 2694 1446 2819 
Q 1664 2944 1946 2944 
Q 2733 2944 2733 1926 
L 2733 653 
Q 2733 320 2793 233 
Q 2854 147 3117 96 
L 3117 0 
z
" transform="scale(0.015625)"/>
      <path id="STIXGeneral-Regular-70" d="M 1018 2931 
L 1018 2438 
Q 1421 2944 1939 2944 
Q 2406 2944 2707 2560 
Q 3008 2176 3008 1581 
Q 3008 883 2621 409 
Q 2234 -64 1664 -64 
Q 1466 -64 1328 -6 
Q 1190 51 1018 211 
L 1018 -794 
Q 1018 -1094 1120 -1180 
Q 1222 -1267 1581 -1274 
L 1581 -1389 
L 32 -1389 
L 32 -1280 
Q 314 -1254 397 -1171 
Q 480 -1088 480 -838 
L 480 2157 
Q 480 2381 429 2451 
Q 378 2522 218 2522 
Q 115 2522 58 2515 
L 58 2618 
Q 506 2752 979 2944 
L 1018 2931 
z
M 1018 2138 
L 1018 563 
Q 1018 422 1238 281 
Q 1459 141 1683 141 
Q 2029 141 2243 467 
Q 2458 794 2458 1325 
Q 2458 1888 2243 2224 
Q 2029 2560 1670 2560 
Q 1446 2560 1232 2419 
Q 1018 2278 1018 2138 
z
" transform="scale(0.015625)"/>
      <path id="STIXGeneral-Regular-72" d="M 1024 2931 
L 1024 2342 
Q 1267 2688 1430 2816 
Q 1594 2944 1792 2944 
Q 1958 2944 2051 2854 
Q 2144 2765 2144 2605 
Q 2144 2470 2077 2393 
Q 2010 2317 1894 2317 
Q 1773 2317 1638 2445 
Q 1536 2541 1472 2541 
Q 1338 2541 1181 2355 
Q 1024 2170 1024 2016 
L 1024 576 
Q 1024 301 1133 205 
Q 1242 109 1568 96 
L 1568 0 
L 32 0 
L 32 96 
Q 339 154 412 224 
Q 486 294 486 538 
L 486 2138 
Q 486 2349 438 2435 
Q 390 2522 269 2522 
Q 166 2522 45 2496 
L 45 2598 
Q 448 2726 992 2944 
L 1024 2931 
z
" transform="scale(0.015625)"/>
      <path id="STIXGeneral-Regular-75" d="M 3072 320 
L 3072 230 
Q 2573 96 2195 -58 
L 2163 -38 
L 2163 486 
L 2150 486 
Q 1747 -64 1235 -64 
Q 870 -64 662 160 
Q 454 384 454 755 
L 454 2362 
Q 454 2598 371 2688 
Q 288 2778 58 2790 
L 58 2880 
L 992 2880 
L 992 813 
Q 992 595 1123 451 
Q 1254 307 1446 307 
Q 1760 307 1984 506 
Q 2067 582 2099 649 
Q 2131 717 2131 877 
L 2131 2355 
Q 2131 2605 2041 2678 
Q 1952 2752 1658 2771 
L 1658 2880 
L 2669 2880 
L 2669 685 
Q 2669 461 2742 390 
Q 2816 320 3034 320 
L 3072 320 
z
" transform="scale(0.015625)"/>
      <path id="STIXGeneral-Regular-63" d="M 2547 998 
L 2637 941 
Q 2362 403 2112 205 
Q 1786 -64 1376 -64 
Q 845 -64 502 336 
Q 160 736 160 1357 
Q 160 2170 698 2618 
Q 1094 2944 1562 2944 
Q 1965 2944 2256 2749 
Q 2547 2554 2547 2285 
Q 2547 2176 2457 2096 
Q 2368 2016 2246 2016 
Q 2022 2016 1939 2310 
L 1901 2451 
Q 1850 2630 1773 2694 
Q 1696 2758 1523 2758 
Q 1133 2758 893 2451 
Q 653 2144 653 1645 
Q 653 1094 928 745 
Q 1203 397 1645 397 
Q 1920 397 2118 528 
Q 2317 659 2547 998 
z
" transform="scale(0.015625)"/>
      <path id="STIXGeneral-Regular-61" d="M 2829 422 
L 2829 243 
Q 2586 -64 2253 -64 
Q 1888 -64 1843 403 
L 1837 403 
Q 1427 -64 909 -64 
Q 608 -64 422 112 
Q 237 288 237 602 
Q 237 1050 685 1350 
Q 992 1555 1837 1869 
L 1837 2214 
Q 1837 2502 1699 2646 
Q 1562 2790 1338 2790 
Q 1146 2790 1018 2697 
Q 890 2605 890 2477 
Q 890 2419 909 2348 
Q 928 2278 928 2208 
Q 928 2112 841 2029 
Q 755 1946 634 1946 
Q 525 1946 441 2029 
Q 358 2112 358 2240 
Q 358 2547 685 2752 
Q 986 2944 1421 2944 
Q 1939 2944 2176 2656 
Q 2291 2522 2323 2384 
Q 2355 2246 2355 1946 
L 2355 723 
Q 2355 301 2554 301 
Q 2682 301 2829 422 
z
M 1837 813 
L 1837 1715 
Q 1248 1510 1018 1293 
Q 800 1094 800 800 
Q 800 557 921 432 
Q 1043 307 1242 307 
Q 1453 307 1613 410 
Q 1747 506 1792 589 
Q 1837 672 1837 813 
z
" transform="scale(0.015625)"/>
      <path id="STIXGeneral-Regular-6e" d="M 3104 0 
L 1773 0 
L 1779 96 
Q 2016 115 2096 233 
Q 2176 352 2176 672 
L 2176 1946 
Q 2176 2592 1709 2592 
Q 1549 2592 1408 2515 
Q 1267 2438 1050 2227 
L 1050 461 
Q 1050 269 1136 192 
Q 1222 115 1466 96 
L 1466 0 
L 115 0 
L 115 96 
Q 358 115 435 214 
Q 512 314 512 602 
L 512 2157 
Q 512 2394 467 2483 
Q 422 2573 288 2573 
Q 160 2573 102 2547 
L 102 2656 
Q 550 2784 979 2944 
L 1030 2925 
L 1030 2426 
L 1037 2426 
Q 1491 2944 1958 2944 
Q 2323 2944 2518 2688 
Q 2714 2432 2714 1958 
L 2714 544 
Q 2714 288 2790 205 
Q 2867 122 3104 96 
L 3104 0 
z
" transform="scale(0.015625)"/>
      <path id="STIXGeneral-Regular-6d" d="M 4960 0 
L 3565 0 
L 3565 96 
Q 3834 122 3907 208 
Q 3981 294 3981 576 
L 3981 1894 
Q 3981 2278 3869 2444 
Q 3757 2611 3488 2611 
Q 3264 2611 3107 2521 
Q 2950 2432 2803 2221 
L 2803 608 
Q 2803 301 2896 201 
Q 2989 102 3264 96 
L 3264 0 
L 1830 0 
L 1830 96 
Q 2112 115 2189 188 
Q 2266 262 2266 550 
L 2266 1901 
Q 2266 2611 1850 2611 
Q 1670 2611 1468 2531 
Q 1267 2451 1171 2336 
Q 1088 2240 1088 2227 
L 1088 448 
Q 1088 243 1177 176 
Q 1267 109 1523 96 
L 1523 0 
L 102 0 
L 102 96 
Q 371 102 460 195 
Q 550 288 550 563 
L 550 2150 
Q 550 2387 499 2480 
Q 448 2573 326 2573 
Q 230 2573 122 2547 
L 122 2656 
Q 557 2778 1011 2944 
L 1062 2925 
L 1062 2451 
L 1075 2451 
Q 1363 2752 1584 2848 
Q 1805 2944 2054 2944 
Q 2560 2944 2733 2406 
Q 3232 2944 3776 2944 
Q 4518 2944 4518 1792 
L 4518 493 
Q 4518 282 4582 202 
Q 4646 122 4794 109 
L 4960 96 
L 4960 0 
z
" transform="scale(0.015625)"/>
      <path id="STIXGeneral-Regular-2c" d="M 531 -902 
L 467 -781 
Q 998 -422 998 -96 
Q 998 -13 909 -13 
Q 883 -13 822 -25 
Q 762 -38 723 -38 
Q 352 -38 352 288 
Q 352 454 457 553 
Q 563 653 736 653 
Q 954 653 1101 496 
Q 1248 339 1248 96 
Q 1248 -198 1053 -473 
Q 858 -749 531 -902 
z
" transform="scale(0.015625)"/>
      <path id="STIXGeneral-Regular-69" d="M 1152 4045 
Q 1152 3904 1056 3811 
Q 960 3718 819 3718 
Q 685 3718 592 3811 
Q 499 3904 499 4045 
Q 499 4179 595 4275 
Q 691 4371 826 4371 
Q 966 4371 1059 4275 
Q 1152 4179 1152 4045 
z
M 1619 0 
L 102 0 
L 102 96 
Q 435 115 521 211 
Q 608 307 608 666 
L 608 2118 
Q 608 2342 563 2432 
Q 518 2522 397 2522 
Q 243 2522 128 2490 
L 128 2592 
L 1120 2944 
L 1146 2918 
L 1146 672 
Q 1146 314 1226 218 
Q 1306 122 1619 96 
L 1619 0 
z
" transform="scale(0.015625)"/>
      <path id="STIXGeneral-Regular-67" d="M 3008 2483 
L 2477 2483 
Q 2598 2208 2598 1946 
Q 2598 1453 2265 1203 
Q 1933 954 1600 954 
Q 1530 954 1357 973 
L 1235 986 
Q 1107 947 979 812 
Q 851 678 851 582 
Q 851 435 1350 410 
L 2176 371 
Q 2528 358 2739 172 
Q 2950 -13 2950 -314 
Q 2950 -685 2566 -986 
Q 2035 -1395 1286 -1395 
Q 826 -1395 502 -1212 
Q 179 -1030 179 -774 
Q 179 -595 320 -419 
Q 461 -243 806 6 
Q 602 102 534 172 
Q 467 243 467 346 
Q 467 531 762 787 
Q 909 915 1037 1043 
Q 717 1203 579 1401 
Q 442 1600 442 1901 
Q 442 2336 752 2640 
Q 1062 2944 1510 2944 
Q 1766 2944 2022 2848 
L 2163 2797 
Q 2349 2733 2515 2733 
L 3008 2733 
L 3008 2483 
z
M 973 2163 
L 973 2144 
Q 973 1683 1155 1398 
Q 1338 1114 1632 1114 
Q 1850 1114 1978 1270 
Q 2106 1427 2106 1690 
Q 2106 2112 1914 2464 
Q 1754 2765 1446 2765 
Q 1222 2765 1097 2605 
Q 973 2445 973 2163 
z
M 2771 -410 
Q 2771 -230 2595 -163 
Q 2419 -96 1978 -96 
Q 1344 -96 941 -13 
Q 749 -243 688 -348 
Q 627 -454 627 -563 
Q 627 -774 880 -902 
Q 1133 -1030 1555 -1030 
Q 2099 -1030 2435 -860 
Q 2771 -691 2771 -410 
z
" transform="scale(0.015625)"/>
      <path id="STIXGeneral-Regular-77" d="M 4442 2880 
L 4442 2784 
Q 4346 2752 4301 2691 
Q 4256 2630 4179 2438 
L 3296 224 
Q 3168 -90 3117 -90 
Q 3085 -90 3062 -48 
Q 3040 -6 2963 186 
L 2381 1696 
L 1664 160 
Q 1549 -90 1504 -90 
Q 1446 -90 1338 192 
L 474 2381 
Q 378 2630 314 2700 
Q 250 2771 134 2784 
L 134 2880 
L 1286 2880 
L 1286 2784 
Q 1120 2765 1056 2720 
Q 992 2675 992 2573 
Q 992 2477 1030 2381 
L 1664 710 
L 2246 1984 
L 2118 2342 
Q 2029 2598 1942 2681 
Q 1856 2765 1677 2784 
L 1677 2880 
L 2976 2880 
L 2976 2784 
Q 2752 2752 2678 2707 
Q 2605 2662 2605 2560 
Q 2605 2458 2714 2176 
L 3251 742 
L 3827 2163 
Q 3936 2432 3936 2592 
Q 3936 2669 3875 2710 
Q 3814 2752 3654 2784 
L 3654 2880 
L 4442 2880 
z
" transform="scale(0.015625)"/>
     </defs>
     <use xlink:href="#STIXGeneral-Italic-79" transform="translate(0 0.703125)"/>
     <use xlink:href="#STIXGeneral-Regular-20" transform="translate(44.399994 0.703125)"/>
     <use xlink:href="#STIXGeneral-Regular-66" transform="translate(69.399979 0.703125)"/>
     <use xlink:href="#STIXGeneral-Regular-65" transform="translate(102.699966 0.703125)"/>
     <use xlink:href="#STIXGeneral-Regular-65" transform="translate(147.09996 0.703125)"/>
     <use xlink:href="#STIXGeneral-Regular-64" transform="translate(191.499954 0.703125)"/>
     <use xlink:href="#STIXGeneral-Regular-73" transform="translate(241.499939 0.703125)"/>
     <use xlink:href="#STIXGeneral-Regular-20" transform="translate(280.399933 0.703125)"/>
     <use xlink:href="#STIXGeneral-Regular-62" transform="translate(305.399918 0.703125)"/>
     <use xlink:href="#STIXGeneral-Regular-6f" transform="translate(355.399902 0.703125)"/>
     <use xlink:href="#STIXGeneral-Regular-74" transform="translate(405.399887 0.703125)"/>
     <use xlink:href="#STIXGeneral-Regular-68" transform="translate(433.199875 0.703125)"/>
     <use xlink:href="#STIXGeneral-Regular-20" transform="translate(483.19986 0.703125)"/>
     <use xlink:href="#STIXGeneral-Regular-74" transform="translate(508.199844 0.703125)"/>
     <use xlink:href="#STIXGeneral-Regular-68" transform="translate(535.999832 0.703125)"/>
     <use xlink:href="#STIXGeneral-Regular-65" transform="translate(585.999817 0.703125)"/>
     <use xlink:href="#STIXGeneral-Regular-20" transform="translate(630.399811 0.703125)"/>
     <use xlink:href="#STIXGeneral-Regular-70" transform="translate(655.399796 0.703125)"/>
     <use xlink:href="#STIXGeneral-Regular-72" transform="translate(705.39978 0.703125)"/>
     <use xlink:href="#STIXGeneral-Regular-6f" transform="translate(738.699768 0.703125)"/>
     <use xlink:href="#STIXGeneral-Regular-64" transform="translate(788.699753 0.703125)"/>
     <use xlink:href="#STIXGeneral-Regular-75" transform="translate(838.699738 0.703125)"/>
     <use xlink:href="#STIXGeneral-Regular-63" transform="translate(888.699722 0.703125)"/>
     <use xlink:href="#STIXGeneral-Regular-74" transform="translate(933.099716 0.703125)"/>
     <use xlink:href="#STIXGeneral-Regular-20" transform="translate(960.899704 0.703125)"/>
     <use xlink:href="#STIXGeneral-Regular-61" transform="translate(985.899689 0.703125)"/>
     <use xlink:href="#STIXGeneral-Regular-6e" transform="translate(1030.299683 0.703125)"/>
     <use xlink:href="#STIXGeneral-Regular-64" transform="translate(1080.299667 0.703125)"/>
     <use xlink:href="#STIXGeneral-Regular-20" transform="translate(1130.299652 0.703125)"/>
     <use xlink:href="#STIXGeneral-Regular-74" transform="translate(1155.299637 0.703125)"/>
     <use xlink:href="#STIXGeneral-Regular-68" transform="translate(1183.099625 0.703125)"/>
     <use xlink:href="#STIXGeneral-Regular-65" transform="translate(1233.099609 0.703125)"/>
     <use xlink:href="#STIXGeneral-Regular-20" transform="translate(1277.499603 0.703125)"/>
     <use xlink:href="#STIXGeneral-Regular-73" transform="translate(1302.499588 0.703125)"/>
     <use xlink:href="#STIXGeneral-Regular-75" transform="translate(1341.399582 0.703125)"/>
     <use xlink:href="#STIXGeneral-Regular-6d" transform="translate(1391.399567 0.703125)"/>
     <use xlink:href="#STIXGeneral-Regular-2c" transform="translate(1469.199554 0.703125)"/>
     <use xlink:href="#STIXGeneral-Regular-20" transform="translate(1494.199539 0.703125)"/>
     <use xlink:href="#STIXGeneral-Regular-73" transform="translate(1519.199524 0.703125)"/>
     <use xlink:href="#STIXGeneral-Regular-6f" transform="translate(1558.099518 0.703125)"/>
     <use xlink:href="#STIXGeneral-Regular-20" transform="translate(1608.099503 0.703125)"/>
     <use xlink:href="#STIXGeneral-Regular-69" transform="translate(1633.099487 0.703125)"/>
     <use xlink:href="#STIXGeneral-Regular-74" transform="translate(1660.899475 0.703125)"/>
     <use xlink:href="#STIXGeneral-Regular-73" transform="translate(1688.699463 0.703125)"/>
     <use xlink:href="#STIXGeneral-Regular-20" transform="translate(1727.599457 0.703125)"/>
     <use xlink:href="#STIXGeneral-Regular-67" transform="translate(1752.599442 0.703125)"/>
     <use xlink:href="#STIXGeneral-Regular-72" transform="translate(1802.599426 0.703125)"/>
     <use xlink:href="#STIXGeneral-Regular-61" transform="translate(1835.899414 0.703125)"/>
     <use xlink:href="#STIXGeneral-Regular-64" transform="translate(1880.299408 0.703125)"/>
     <use xlink:href="#STIXGeneral-Regular-69" transform="translate(1930.299393 0.703125)"/>
     <use xlink:href="#STIXGeneral-Regular-65" transform="translate(1958.09938 0.703125)"/>
     <use xlink:href="#STIXGeneral-Regular-6e" transform="translate(2002.499374 0.703125)"/>
     <use xlink:href="#STIXGeneral-Regular-74" transform="translate(2052.499359 0.703125)"/>
     <use xlink:href="#STIXGeneral-Regular-20" transform="translate(2080.299347 0.703125)"/>
     <use xlink:href="#STIXGeneral-Regular-69" transform="translate(2105.299332 0.703125)"/>
     <use xlink:href="#STIXGeneral-Regular-73" transform="translate(2133.099319 0.703125)"/>
     <use xlink:href="#STIXGeneral-Regular-20" transform="translate(2171.999313 0.703125)"/>
     <use xlink:href="#STIXGeneral-Regular-74" transform="translate(2196.999298 0.703125)"/>
     <use xlink:href="#STIXGeneral-Regular-68" transform="translate(2224.799286 0.703125)"/>
     <use xlink:href="#STIXGeneral-Regular-65" transform="translate(2274.799271 0.703125)"/>
     <use xlink:href="#STIXGeneral-Regular-20" transform="translate(2319.199265 0.703125)"/>
     <use xlink:href="#STIXGeneral-Regular-73" transform="translate(2344.199249 0.703125)"/>
     <use xlink:href="#STIXGeneral-Regular-75" transform="translate(2383.099243 0.703125)"/>
     <use xlink:href="#STIXGeneral-Regular-6d" transform="translate(2433.099228 0.703125)"/>
     <use xlink:href="#STIXGeneral-Regular-20" transform="translate(2510.899216 0.703125)"/>
     <use xlink:href="#STIXGeneral-Regular-6f" transform="translate(2535.8992 0.703125)"/>
     <use xlink:href="#STIXGeneral-Regular-66" transform="translate(2585.899185 0.703125)"/>
     <use xlink:href="#STIXGeneral-Regular-20" transform="translate(2619.199173 0.703125)"/>
     <use xlink:href="#STIXGeneral-Regular-74" transform="translate(2644.199158 0.703125)"/>
     <use xlink:href="#STIXGeneral-Regular-68" transform="translate(2671.999146 0.703125)"/>
     <use xlink:href="#STIXGeneral-Regular-65" transform="translate(2721.99913 0.703125)"/>
     <use xlink:href="#STIXGeneral-Regular-20" transform="translate(2766.399124 0.703125)"/>
     <use xlink:href="#STIXGeneral-Regular-74" transform="translate(2791.399109 0.703125)"/>
     <use xlink:href="#STIXGeneral-Regular-77" transform="translate(2819.199097 0.703125)"/>
     <use xlink:href="#STIXGeneral-Regular-6f" transform="translate(2891.399078 0.703125)"/>
     <use xlink:href="#STIXGeneral-Regular-20" transform="translate(2941.399063 0.703125)"/>
     <use xlink:href="#STIXGeneral-Regular-70" transform="translate(2966.399048 0.703125)"/>
     <use xlink:href="#STIXGeneral-Regular-61" transform="translate(3016.399033 0.703125)"/>
     <use xlink:href="#STIXGeneral-Regular-74" transform="translate(3060.799026 0.703125)"/>
     <use xlink:href="#STIXGeneral-Regular-68" transform="translate(3088.599014 0.703125)"/>
     <use xlink:href="#STIXGeneral-Regular-73" transform="translate(3138.598999 0.703125)"/>
    </g>
   </g>
   <g id="text_3">
    <!-- $x$ -->
    <g style="fill: #1a1a1a" transform="translate(65.04372 46.131296) scale(0.11 -0.11)">
     <defs>
      <path id="STIXGeneral-Italic-78" d="M 1555 2272 
L 1632 1907 
Q 1971 2426 2179 2624 
Q 2387 2822 2598 2822 
Q 2714 2822 2787 2755 
Q 2861 2688 2861 2585 
Q 2861 2483 2800 2419 
Q 2739 2355 2643 2355 
Q 2586 2355 2490 2409 
Q 2394 2464 2310 2464 
Q 2125 2464 1683 1690 
Q 1683 1606 1734 1402 
L 1939 544 
Q 2003 282 2131 282 
Q 2234 282 2432 538 
Q 2451 563 2476 598 
Q 2502 634 2521 662 
Q 2541 691 2566 717 
L 2662 659 
Q 2387 230 2227 80 
Q 2067 -70 1882 -70 
Q 1728 -70 1645 26 
Q 1562 122 1504 365 
L 1318 1126 
L 755 365 
Q 557 96 432 13 
Q 307 -70 147 -70 
Q 0 -70 -86 0 
Q -173 70 -173 198 
Q -173 294 -112 361 
Q -51 429 45 429 
Q 122 429 250 358 
Q 346 301 416 301 
Q 525 301 742 614 
L 1267 1357 
L 1088 2150 
Q 1024 2432 969 2509 
Q 915 2586 794 2586 
Q 717 2586 544 2541 
L 429 2509 
L 410 2611 
L 480 2637 
Q 992 2822 1229 2822 
Q 1350 2822 1420 2707 
Q 1491 2592 1555 2272 
z
" transform="scale(0.015625)"/>
     </defs>
     <use xlink:href="#STIXGeneral-Italic-78" transform="translate(0 0.90625)"/>
    </g>
   </g>
   <g id="text_4">
    <!-- value 3 -->
    <g style="fill: #1a1a1a" transform="translate(55.125322 60.628554) scale(0.085 -0.085)">
     <defs>
      <path id="STIXGeneral-Regular-76" d="M 3053 2880 
L 3053 2784 
Q 2906 2771 2835 2688 
Q 2765 2605 2637 2285 
L 1818 230 
Q 1690 -90 1638 -90 
Q 1587 -90 1523 77 
Q 1510 96 1497 141 
Q 1485 186 1472 211 
L 704 2048 
Q 499 2534 403 2652 
Q 307 2771 122 2784 
L 122 2880 
L 1376 2880 
L 1376 2784 
Q 1210 2771 1146 2732 
Q 1082 2694 1082 2611 
Q 1082 2509 1139 2368 
L 1792 730 
L 2426 2387 
Q 2464 2483 2464 2579 
Q 2464 2758 2163 2784 
L 2163 2880 
L 3053 2880 
z
" transform="scale(0.015625)"/>
      <path id="STIXGeneral-Regular-6c" d="M 1645 0 
L 134 0 
L 134 96 
Q 435 122 531 221 
Q 627 320 627 589 
L 627 3590 
Q 627 3821 569 3910 
Q 512 4000 358 4000 
Q 224 4000 122 3987 
L 122 4090 
Q 730 4237 1133 4371 
L 1165 4346 
L 1165 557 
Q 1165 288 1254 201 
Q 1344 115 1645 96 
L 1645 0 
z
" transform="scale(0.015625)"/>
     </defs>
     <use xlink:href="#STIXGeneral-Regular-76"/>
     <use xlink:href="#STIXGeneral-Regular-61" transform="translate(49.999985 0)"/>
     <use xlink:href="#STIXGeneral-Regular-6c" transform="translate(94.399979 0)"/>
     <use xlink:href="#STIXGeneral-Regular-75" transform="translate(122.199966 0)"/>
     <use xlink:href="#STIXGeneral-Regular-65" transform="translate(172.199951 0)"/>
     <use xlink:href="#STIXGeneral-Regular-20" transform="translate(216.599945 0)"/>
     <use xlink:href="#STIXGeneral-Regular-33" transform="translate(241.59993 0)"/>
    </g>
   </g>
   <g id="text_5">
    <!-- grad 2 -->
    <g style="fill: #9e2b25" transform="translate(56.778837 75.70425) scale(0.085 -0.085)">
     <defs>
      <path id="STIXGeneral-Regular-32" d="M 3034 877 
L 2688 0 
L 186 0 
L 186 77 
L 1325 1286 
Q 1773 1754 1965 2144 
Q 2157 2534 2157 2950 
Q 2157 3379 1920 3616 
Q 1683 3853 1267 3853 
Q 922 3853 720 3673 
Q 518 3494 326 3021 
L 192 3053 
Q 301 3648 630 3987 
Q 960 4326 1523 4326 
Q 2054 4326 2380 4006 
Q 2707 3686 2707 3200 
Q 2707 2477 1888 1613 
L 832 486 
L 2330 486 
Q 2541 486 2665 569 
Q 2790 653 2944 915 
L 3034 877 
z
" transform="scale(0.015625)"/>
     </defs>
     <use xlink:href="#STIXGeneral-Regular-67"/>
     <use xlink:href="#STIXGeneral-Regular-72" transform="translate(49.999985 0)"/>
     <use xlink:href="#STIXGeneral-Regular-61" transform="translate(83.299973 0)"/>
     <use xlink:href="#STIXGeneral-Regular-64" transform="translate(127.699966 0)"/>
     <use xlink:href="#STIXGeneral-Regular-20" transform="translate(177.699951 0)"/>
     <use xlink:href="#STIXGeneral-Regular-32" transform="translate(202.699936 0)"/>
    </g>
   </g>
   <g id="text_6">
    <!-- $y$ -->
    <g style="fill: #1a1a1a" transform="translate(65.04372 151.689056) scale(0.11 -0.11)">
     <use xlink:href="#STIXGeneral-Italic-79" transform="translate(0 0.90625)"/>
    </g>
   </g>
   <g id="text_7">
    <!-- value 2 -->
    <g style="fill: #1a1a1a" transform="translate(55.125322 166.186314) scale(0.085 -0.085)">
     <use xlink:href="#STIXGeneral-Regular-76"/>
     <use xlink:href="#STIXGeneral-Regular-61" transform="translate(49.999985 0)"/>
     <use xlink:href="#STIXGeneral-Regular-6c" transform="translate(94.399979 0)"/>
     <use xlink:href="#STIXGeneral-Regular-75" transform="translate(122.199966 0)"/>
     <use xlink:href="#STIXGeneral-Regular-65" transform="translate(172.199951 0)"/>
     <use xlink:href="#STIXGeneral-Regular-20" transform="translate(216.599945 0)"/>
     <use xlink:href="#STIXGeneral-Regular-32" transform="translate(241.59993 0)"/>
    </g>
   </g>
   <g id="text_8">
    <!-- grad 4 -->
    <g style="fill: #9e2b25" transform="translate(56.778837 181.26201) scale(0.085 -0.085)">
     <use xlink:href="#STIXGeneral-Regular-67"/>
     <use xlink:href="#STIXGeneral-Regular-72" transform="translate(49.999985 0)"/>
     <use xlink:href="#STIXGeneral-Regular-61" transform="translate(83.299973 0)"/>
     <use xlink:href="#STIXGeneral-Regular-64" transform="translate(127.699966 0)"/>
     <use xlink:href="#STIXGeneral-Regular-20" transform="translate(177.699951 0)"/>
     <use xlink:href="#STIXGeneral-Regular-34" transform="translate(202.699936 0)"/>
    </g>
   </g>
   <g id="text_9">
    <!-- $h = x y$ -->
    <g style="fill: #1a1a1a" transform="translate(182.661 46.131296) scale(0.11 -0.11)">
     <defs>
      <path id="STIXGeneral-Italic-68" d="M 2976 755 
L 3059 672 
Q 2765 256 2566 99 
Q 2368 -58 2125 -58 
Q 1997 -58 1920 16 
Q 1843 90 1843 211 
Q 1843 320 1971 800 
L 2323 2125 
Q 2368 2304 2368 2336 
Q 2368 2496 2189 2496 
Q 2016 2496 1744 2240 
Q 1472 1984 1216 1600 
Q 1018 1293 902 1001 
Q 787 710 602 0 
L 122 0 
L 1056 3546 
Q 1139 3866 1139 3942 
Q 1139 4019 1056 4060 
Q 973 4102 877 4102 
L 704 4102 
L 704 4198 
Q 1190 4256 1709 4371 
L 1754 4333 
L 979 1472 
Q 1811 2822 2451 2822 
Q 2662 2822 2764 2704 
Q 2867 2586 2867 2394 
Q 2867 2118 2560 1158 
Q 2349 512 2349 358 
Q 2349 243 2451 243 
Q 2528 243 2621 336 
Q 2714 429 2976 755 
z
" transform="scale(0.015625)"/>
     </defs>
     <use xlink:href="#STIXGeneral-Italic-68" transform="translate(0 0.703125)"/>
     <use xlink:href="#STIXGeneral-Regular-3d" transform="translate(64.439981 0.703125)"/>
     <use xlink:href="#STIXGeneral-Italic-78" transform="translate(147.379962 0.703125)"/>
     <use xlink:href="#STIXGeneral-Italic-79" transform="translate(191.779956 0.703125)"/>
    </g>
   </g>
   <g id="text_10">
    <!-- value 6 -->
    <g style="fill: #1a1a1a" transform="translate(183.302602 60.628554) scale(0.085 -0.085)">
     <defs>
      <path id="STIXGeneral-Regular-36" d="M 2854 4378 
L 2867 4275 
Q 2112 4154 1606 3664 
Q 1101 3174 973 2451 
Q 1344 2739 1786 2739 
Q 2349 2739 2672 2380 
Q 2995 2022 2995 1402 
Q 2995 774 2669 378 
Q 2291 -90 1651 -90 
Q 870 -90 518 557 
Q 218 1107 218 1786 
Q 218 2835 915 3552 
Q 1312 3962 1731 4131 
Q 2150 4301 2854 4378 
z
M 2419 1203 
Q 2419 2445 1555 2445 
Q 1235 2445 1024 2275 
Q 813 2106 813 1702 
Q 813 954 1046 522 
Q 1280 90 1722 90 
Q 2061 90 2240 394 
Q 2419 698 2419 1203 
z
" transform="scale(0.015625)"/>
     </defs>
     <use xlink:href="#STIXGeneral-Regular-76"/>
     <use xlink:href="#STIXGeneral-Regular-61" transform="translate(49.999985 0)"/>
     <use xlink:href="#STIXGeneral-Regular-6c" transform="translate(94.399979 0)"/>
     <use xlink:href="#STIXGeneral-Regular-75" transform="translate(122.199966 0)"/>
     <use xlink:href="#STIXGeneral-Regular-65" transform="translate(172.199951 0)"/>
     <use xlink:href="#STIXGeneral-Regular-20" transform="translate(216.599945 0)"/>
     <use xlink:href="#STIXGeneral-Regular-36" transform="translate(241.59993 0)"/>
    </g>
   </g>
   <g id="text_11">
    <!-- grad 1 -->
    <g style="fill: #9e2b25" transform="translate(184.956117 75.70425) scale(0.085 -0.085)">
     <use xlink:href="#STIXGeneral-Regular-67"/>
     <use xlink:href="#STIXGeneral-Regular-72" transform="translate(49.999985 0)"/>
     <use xlink:href="#STIXGeneral-Regular-61" transform="translate(83.299973 0)"/>
     <use xlink:href="#STIXGeneral-Regular-64" transform="translate(127.699966 0)"/>
     <use xlink:href="#STIXGeneral-Regular-20" transform="translate(177.699951 0)"/>
     <use xlink:href="#STIXGeneral-Regular-31" transform="translate(202.699936 0)"/>
    </g>
   </g>
   <g id="text_12">
    <!-- $z = h + y$ -->
    <g style="fill: #1a1a1a" transform="translate(309.5482 98.910176) scale(0.11 -0.11)">
     <use xlink:href="#STIXGeneral-Italic-7a" transform="translate(0 0.703125)"/>
     <use xlink:href="#STIXGeneral-Regular-3d" transform="translate(53.33999 0.703125)"/>
     <use xlink:href="#STIXGeneral-Italic-68" transform="translate(136.279971 0.703125)"/>
     <use xlink:href="#STIXGeneral-Regular-2b" transform="translate(200.719952 0.703125)"/>
     <use xlink:href="#STIXGeneral-Italic-79" transform="translate(283.659933 0.703125)"/>
    </g>
   </g>
   <g id="text_13">
    <!-- value 8 -->
    <g style="fill: #1a1a1a" transform="translate(315.249802 113.407434) scale(0.085 -0.085)">
     <defs>
      <path id="STIXGeneral-Regular-38" d="M 2848 992 
Q 2848 499 2505 204 
Q 2163 -90 1587 -90 
Q 1050 -90 704 204 
Q 358 499 358 954 
Q 358 1293 524 1533 
Q 691 1773 1190 2125 
Q 710 2522 553 2765 
Q 397 3008 397 3328 
Q 397 3782 745 4054 
Q 1094 4326 1638 4326 
Q 2106 4326 2410 4060 
Q 2714 3795 2714 3411 
Q 2714 3059 2531 2848 
Q 2349 2637 1856 2374 
Q 2432 1990 2640 1689 
Q 2848 1389 2848 992 
z
M 2272 3411 
Q 2272 3744 2086 3945 
Q 1901 4147 1574 4147 
Q 1248 4147 1059 3977 
Q 870 3808 870 3513 
Q 870 3219 1059 2979 
Q 1248 2739 1670 2490 
Q 1997 2682 2134 2896 
Q 2272 3110 2272 3411 
z
M 1734 1741 
L 1357 1997 
Q 1075 1766 960 1545 
Q 845 1325 845 1011 
Q 845 576 1065 333 
Q 1286 90 1658 90 
Q 1971 90 2166 285 
Q 2362 480 2362 794 
Q 2362 1082 2214 1299 
Q 2067 1517 1734 1741 
z
" transform="scale(0.015625)"/>
     </defs>
     <use xlink:href="#STIXGeneral-Regular-76"/>
     <use xlink:href="#STIXGeneral-Regular-61" transform="translate(49.999985 0)"/>
     <use xlink:href="#STIXGeneral-Regular-6c" transform="translate(94.399979 0)"/>
     <use xlink:href="#STIXGeneral-Regular-75" transform="translate(122.199966 0)"/>
     <use xlink:href="#STIXGeneral-Regular-65" transform="translate(172.199951 0)"/>
     <use xlink:href="#STIXGeneral-Regular-20" transform="translate(216.599945 0)"/>
     <use xlink:href="#STIXGeneral-Regular-38" transform="translate(241.59993 0)"/>
    </g>
   </g>
   <g id="text_14">
    <!-- grad 1 (seed) -->
    <g style="fill: #9e2b25" transform="translate(305.457536 128.48313) scale(0.085 -0.085)">
     <defs>
      <path id="STIXGeneral-Regular-28" d="M 1946 -1030 
L 1869 -1133 
Q 1126 -710 716 32 
Q 307 774 307 1613 
Q 307 3386 1888 4326 
L 1946 4224 
Q 1293 3667 1075 3126 
Q 858 2586 858 1632 
Q 858 685 1082 96 
Q 1306 -493 1946 -1030 
z
" transform="scale(0.015625)"/>
      <path id="STIXGeneral-Regular-29" d="M 186 4224 
L 262 4326 
Q 992 3891 1408 3148 
Q 1824 2406 1824 1581 
Q 1824 -166 243 -1133 
L 186 -1030 
Q 845 -486 1059 54 
Q 1274 595 1274 1562 
Q 1274 2534 1059 3120 
Q 845 3706 186 4224 
z
" transform="scale(0.015625)"/>
     </defs>
     <use xlink:href="#STIXGeneral-Regular-67"/>
     <use xlink:href="#STIXGeneral-Regular-72" transform="translate(49.999985 0)"/>
     <use xlink:href="#STIXGeneral-Regular-61" transform="translate(83.299973 0)"/>
     <use xlink:href="#STIXGeneral-Regular-64" transform="translate(127.699966 0)"/>
     <use xlink:href="#STIXGeneral-Regular-20" transform="translate(177.699951 0)"/>
     <use xlink:href="#STIXGeneral-Regular-31" transform="translate(202.699936 0)"/>
     <use xlink:href="#STIXGeneral-Regular-20" transform="translate(252.699921 0)"/>
     <use xlink:href="#STIXGeneral-Regular-28" transform="translate(277.699905 0)"/>
     <use xlink:href="#STIXGeneral-Regular-73" transform="translate(310.999893 0)"/>
     <use xlink:href="#STIXGeneral-Regular-65" transform="translate(349.899887 0)"/>
     <use xlink:href="#STIXGeneral-Regular-65" transform="translate(394.299881 0)"/>
     <use xlink:href="#STIXGeneral-Regular-64" transform="translate(438.699875 0)"/>
     <use xlink:href="#STIXGeneral-Regular-29" transform="translate(488.69986 0)"/>
    </g>
   </g>
   <g id="legend_1">
    <g id="line2d_1">
     <path d="M 280.651375 17.825 
L 290.851375 17.825 
L 301.051375 17.825 
" style="fill: none; stroke: #2b4f81; stroke-width: 1.1; stroke-linecap: square"/>
    </g>
    <g id="text_15">
     <!-- forward: values -->
     <g style="fill: #1a1a1a" transform="translate(307.851375 20.8) scale(0.085 -0.085)">
      <defs>
       <path id="STIXGeneral-Regular-3a" d="M 1123 2832 
Q 1229 2726 1229 2579 
Q 1229 2432 1126 2329 
Q 1024 2227 877 2227 
Q 730 2227 624 2332 
Q 518 2438 518 2579 
Q 518 2733 620 2835 
Q 723 2938 877 2938 
Q 1018 2938 1123 2832 
z
M 1229 282 
Q 1229 141 1126 35 
Q 1024 -70 877 -70 
Q 730 -70 624 35 
Q 518 141 518 282 
Q 518 435 620 537 
Q 723 640 877 640 
Q 1018 640 1123 534 
Q 1229 429 1229 282 
z
" transform="scale(0.015625)"/>
      </defs>
      <use xlink:href="#STIXGeneral-Regular-66"/>
      <use xlink:href="#STIXGeneral-Regular-6f" transform="translate(33.299988 0)"/>
      <use xlink:href="#STIXGeneral-Regular-72" transform="translate(83.299973 0)"/>
      <use xlink:href="#STIXGeneral-Regular-77" transform="translate(116.59996 0)"/>
      <use xlink:href="#STIXGeneral-Regular-61" transform="translate(188.799942 0)"/>
      <use xlink:href="#STIXGeneral-Regular-72" transform="translate(233.199936 0)"/>
      <use xlink:href="#STIXGeneral-Regular-64" transform="translate(266.499924 0)"/>
      <use xlink:href="#STIXGeneral-Regular-3a" transform="translate(316.499908 0)"/>
      <use xlink:href="#STIXGeneral-Regular-20" transform="translate(344.299896 0)"/>
      <use xlink:href="#STIXGeneral-Regular-76" transform="translate(369.299881 0)"/>
      <use xlink:href="#STIXGeneral-Regular-61" transform="translate(419.299866 0)"/>
      <use xlink:href="#STIXGeneral-Regular-6c" transform="translate(463.69986 0)"/>
      <use xlink:href="#STIXGeneral-Regular-75" transform="translate(491.499847 0)"/>
      <use xlink:href="#STIXGeneral-Regular-65" transform="translate(541.499832 0)"/>
      <use xlink:href="#STIXGeneral-Regular-73" transform="translate(585.899826 0)"/>
     </g>
    </g>
    <g id="line2d_2">
     <path d="M 280.651375 29.869766 
L 290.851375 29.869766 
L 301.051375 29.869766 
" style="fill: none; stroke-dasharray: 5.5,3.3; stroke-dashoffset: 0; stroke: #9e2b25; stroke-width: 1.1"/>
    </g>
    <g id="text_16">
     <!-- backward: gradients -->
     <g style="fill: #1a1a1a" transform="translate(307.851375 32.844766) scale(0.085 -0.085)">
      <defs>
       <path id="STIXGeneral-Regular-6b" d="M 3232 0 
L 1837 0 
L 1837 96 
L 1958 96 
Q 2093 96 2093 192 
Q 2093 250 2022 339 
L 1062 1606 
L 1062 429 
Q 1062 262 1142 185 
Q 1222 109 1414 102 
L 1542 96 
L 1542 0 
L 45 0 
L 45 96 
Q 390 154 457 214 
Q 525 275 525 525 
L 525 3610 
Q 525 3840 467 3920 
Q 410 4000 250 4000 
Q 211 4000 45 3987 
L 45 4090 
L 237 4141 
Q 621 4243 1037 4371 
L 1062 4358 
L 1062 1670 
L 1939 2451 
Q 2086 2586 2086 2675 
Q 2086 2739 2019 2761 
Q 1952 2784 1766 2790 
L 1766 2880 
L 3072 2880 
L 3072 2784 
Q 2752 2784 2505 2646 
Q 2259 2509 1690 1978 
L 1504 1805 
L 2483 563 
Q 2829 122 3232 96 
L 3232 0 
z
" transform="scale(0.015625)"/>
      </defs>
      <use xlink:href="#STIXGeneral-Regular-62"/>
      <use xlink:href="#STIXGeneral-Regular-61" transform="translate(49.999985 0)"/>
      <use xlink:href="#STIXGeneral-Regular-63" transform="translate(94.399979 0)"/>
      <use xlink:href="#STIXGeneral-Regular-6b" transform="translate(138.799973 0)"/>
      <use xlink:href="#STIXGeneral-Regular-77" transform="translate(188.799957 0)"/>
      <use xlink:href="#STIXGeneral-Regular-61" transform="translate(260.999939 0)"/>
      <use xlink:href="#STIXGeneral-Regular-72" transform="translate(305.399933 0)"/>
      <use xlink:href="#STIXGeneral-Regular-64" transform="translate(338.699921 0)"/>
      <use xlink:href="#STIXGeneral-Regular-3a" transform="translate(388.699905 0)"/>
      <use xlink:href="#STIXGeneral-Regular-20" transform="translate(416.499893 0)"/>
      <use xlink:href="#STIXGeneral-Regular-67" transform="translate(441.499878 0)"/>
      <use xlink:href="#STIXGeneral-Regular-72" transform="translate(491.499863 0)"/>
      <use xlink:href="#STIXGeneral-Regular-61" transform="translate(524.79985 0)"/>
      <use xlink:href="#STIXGeneral-Regular-64" transform="translate(569.199844 0)"/>
      <use xlink:href="#STIXGeneral-Regular-69" transform="translate(619.199829 0)"/>
      <use xlink:href="#STIXGeneral-Regular-65" transform="translate(646.999817 0)"/>
      <use xlink:href="#STIXGeneral-Regular-6e" transform="translate(691.399811 0)"/>
      <use xlink:href="#STIXGeneral-Regular-74" transform="translate(741.399796 0)"/>
      <use xlink:href="#STIXGeneral-Regular-73" transform="translate(769.199783 0)"/>
     </g>
    </g>
   </g>
  </g>
 </g>
 <defs>
  <clipPath id="pb08d74c9be">
   <rect x="7.2" y="7.2" width="376.992" height="255.024"/>
  </clipPath>
 </defs>
</svg>
