<?xml version="1.0" encoding="utf-8" standalone="no"?>
<!DOCTYPE svg PUBLIC "-//W3C//DTD SVG 1.1//EN"
  "http://www.w3.org/Graphics/SVG/1.1/DTD/svg11.dtd">
<svg xmlns:xlink="http://www.w3.org/1999/xlink" width="391.392pt" height="219.528pt" viewBox="0 0 391.392 219.528" xmlns="http://www.w3.org/2000/svg" version="1.1">
 <metadata>
  <rdf:RDF xmlns:dc="http://purl.org/dc/elements/1.1/" xmlns:cc="http://creativecommons.org/ns#" xmlns:rdf="http://www.w3.org/1999/02/22-rdf-syntax-ns#">
   <cc:Work>
    <dc:type rdf:resource="http://purl.org/dc/dcmitype/StillImage"/>
    <dc:date>2026-06-11T23:49:12.051533</dc:date>
    <dc:format>image/svg+xml</dc:format>
    <dc:creator>
     <cc:Agent>
      <dc:title>Matplotlib v3.10.9, https://matplotlib.org/</dc:title>
     </cc:Agent>
    </dc:creator>
   </cc:Work>
  </rdf:RDF>
 </metadata>
 <defs>
  <style type="text/css">*{stroke-linejoin: round; stroke-linecap: butt}</style>
 </defs>
 <g id="figure_1">
  <g id="patch_1">
   <path d="M 0 219.528 
L 391.392 219.528 
L 391.392 0 
L 0 0 
z
" style="fill: #ffffff"/>
  </g>
  <g id="axes_1">
   <g id="patch_2">
    <path d="M 129.7224 67.18608 
Q 195.696 67.18608 260.439763 67.18608 
" clip-path="url(#pf8d24e6b13)" style="fill: none; stroke: #2b4f81; stroke-width: 1.1; stroke-linecap: round"/>
    <path d="M 256.039763 64.98608 
L 260.439763 67.18608 
L 256.039763 69.38608 
z
" clip-path="url(#pf8d24e6b13)" style="fill: #2b4f81; stroke: #2b4f81; stroke-width: 1.1; stroke-linecap: round"/>
   </g>
   <g id="patch_3">
    <path d="M 297.48384 104.88528 
Q 266.193504 106.581744 245.548309 128.494627 
" clip-path="url(#pf8d24e6b13)" style="fill: none; stroke-dasharray: 5.5,3.3; stroke-dashoffset: 0; stroke: #9e2b25; stroke-width: 1.1; stroke-linecap: round"/>
    <path d="M 250.166827 126.800729 
L 245.548309 128.494627 
L 246.964301 123.783474 
z
" clip-path="url(#pf8d24e6b13)" style="fill: #9e2b25; stroke-dasharray: 5.5,3.3; stroke-dashoffset: 0; stroke: #9e2b25; stroke-width: 1.1; stroke-linecap: round"/>
   </g>
   <g id="patch_4">
    <path d="M 146.68704 129.38976 
Q 125.198496 106.581744 95.136194 104.95186 
" clip-path="url(#pf8d24e6b13)" style="fill: none; stroke: #1a1a1a; stroke-width: 1.1; stroke-linecap: round"/>
    <path d="M 99.410639 107.386838 
L 95.136194 104.95186 
L 99.648843 102.993291 
z
" clip-path="url(#pf8d24e6b13)" style="fill: #1a1a1a; stroke: #1a1a1a; stroke-width: 1.1; stroke-linecap: round"/>
   </g>
   <g id="patch_5">
    <path d="M 21.148704 103.00032 
L 125.198496 103.00032 
Q 129.7224 103.00032 129.7224 98.476416 
L 129.7224 35.895744 
Q 129.7224 31.37184 125.198496 31.37184 
L 21.148704 31.37184 
Q 16.6248 31.37184 16.6248 35.895744 
L 16.6248 98.476416 
Q 16.6248 103.00032 21.148704 103.00032 
z
" clip-path="url(#pf8d24e6b13)" style="fill: #ffffff; stroke: #1a1a1a; stroke-width: 0.9; stroke-linejoin: miter"/>
   </g>
   <g id="patch_6">
    <path d="M 266.193504 103.00032 
L 370.243296 103.00032 
Q 374.7672 103.00032 374.7672 98.476416 
L 374.7672 35.895744 
Q 374.7672 31.37184 370.243296 31.37184 
L 266.193504 31.37184 
Q 261.6696 31.37184 261.6696 35.895744 
L 261.6696 98.476416 
Q 261.6696 103.00032 266.193504 103.00032 
z
" clip-path="url(#pf8d24e6b13)" style="fill: #ffffff; stroke: #1a1a1a; stroke-width: 0.9; stroke-linejoin: miter"/>
   </g>
   <g id="patch_7">
    <path d="M 138.016224 193.4784 
L 253.375776 193.4784 
Q 257.89968 193.4784 257.89968 188.954496 
L 257.89968 126.373824 
Q 257.89968 121.84992 253.375776 121.84992 
L 138.016224 121.84992 
Q 133.49232 121.84992 133.49232 126.373824 
L 133.49232 188.954496 
Q 133.49232 193.4784 138.016224 193.4784 
z
" clip-path="url(#pf8d24e6b13)" style="fill: #ffffff; stroke: #1a1a1a; stroke-width: 0.9; stroke-linejoin: miter"/>
   </g>
   <g id="text_1">
    <!-- forward pass -->
    <g style="fill: #2b4f81" transform="translate(172.578656 53.923039) scale(0.09 -0.09)">
     <defs>
      <path id="STIXGeneral-Regular-66" d="M 134 2880 
L 659 2880 
Q 666 3264 710 3478 
Q 755 3693 883 3910 
Q 1152 4371 1786 4371 
Q 2074 4371 2262 4259 
Q 2451 4147 2451 3974 
Q 2451 3866 2374 3789 
Q 2298 3712 2182 3712 
Q 2029 3712 1894 3942 
Q 1741 4192 1555 4192 
Q 1197 4192 1197 3622 
L 1197 2880 
L 1978 2880 
L 1978 2675 
L 1197 2675 
L 1197 666 
Q 1197 307 1299 208 
Q 1402 109 1792 96 
L 1792 0 
L 128 0 
L 128 96 
Q 474 115 566 214 
Q 659 314 659 666 
L 659 2675 
L 134 2675 
L 134 2880 
z
" transform="scale(0.015625)"/>
      <path id="STIXGeneral-Regular-6f" d="M 3008 1478 
Q 3008 806 2608 371 
Q 2208 -64 1568 -64 
Q 979 -64 582 368 
Q 186 800 186 1459 
Q 186 2125 582 2534 
Q 979 2944 1626 2944 
Q 2221 2944 2614 2537 
Q 3008 2131 3008 1478 
z
M 2432 1306 
Q 2432 2035 2112 2445 
Q 1856 2765 1504 2765 
Q 1171 2765 966 2493 
Q 762 2221 762 1747 
Q 762 928 1101 435 
Q 1318 115 1677 115 
Q 2029 115 2230 432 
Q 2432 749 2432 1306 
z
" transform="scale(0.015625)"/>
      <path id="STIXGeneral-Regular-72" d="M 1024 2931 
L 1024 2342 
Q 1267 2688 1430 2816 
Q 1594 2944 1792 2944 
Q 1958 2944 2051 2854 
Q 2144 2765 2144 2605 
Q 2144 2470 2077 2393 
Q 2010 2317 1894 2317 
Q 1773 2317 1638 2445 
Q 1536 2541 1472 2541 
Q 1338 2541 1181 2355 
Q 1024 2170 1024 2016 
L 1024 576 
Q 1024 301 1133 205 
Q 1242 109 1568 96 
L 1568 0 
L 32 0 
L 32 96 
Q 339 154 412 224 
Q 486 294 486 538 
L 486 2138 
Q 486 2349 438 2435 
Q 390 2522 269 2522 
Q 166 2522 45 2496 
L 45 2598 
Q 448 2726 992 2944 
L 1024 2931 
z
" transform="scale(0.015625)"/>
      <path id="STIXGeneral-Regular-77" d="M 4442 2880 
L 4442 2784 
Q 4346 2752 4301 2691 
Q 4256 2630 4179 2438 
L 3296 224 
Q 3168 -90 3117 -90 
Q 3085 -90 3062 -48 
Q 3040 -6 2963 186 
L 2381 1696 
L 1664 160 
Q 1549 -90 1504 -90 
Q 1446 -90 1338 192 
L 474 2381 
Q 378 2630 314 2700 
Q 250 2771 134 2784 
L 134 2880 
L 1286 2880 
L 1286 2784 
Q 1120 2765 1056 2720 
Q 992 2675 992 2573 
Q 992 2477 1030 2381 
L 1664 710 
L 2246 1984 
L 2118 2342 
Q 2029 2598 1942 2681 
Q 1856 2765 1677 2784 
L 1677 2880 
L 2976 2880 
L 2976 2784 
Q 2752 2752 2678 2707 
Q 2605 2662 2605 2560 
Q 2605 2458 2714 2176 
L 3251 742 
L 3827 2163 
Q 3936 2432 3936 2592 
Q 3936 2669 3875 2710 
Q 3814 2752 3654 2784 
L 3654 2880 
L 4442 2880 
z
" transform="scale(0.015625)"/>
      <path id="STIXGeneral-Regular-61" d="M 2829 422 
L 2829 243 
Q 2586 -64 2253 -64 
Q 1888 -64 1843 403 
L 1837 403 
Q 1427 -64 909 -64 
Q 608 -64 422 112 
Q 237 288 237 602 
Q 237 1050 685 1350 
Q 992 1555 1837 1869 
L 1837 2214 
Q 1837 2502 1699 2646 
Q 1562 2790 1338 2790 
Q 1146 2790 1018 2697 
Q 890 2605 890 2477 
Q 890 2419 909 2348 
Q 928 2278 928 2208 
Q 928 2112 841 2029 
Q 755 1946 634 1946 
Q 525 1946 441 2029 
Q 358 2112 358 2240 
Q 358 2547 685 2752 
Q 986 2944 1421 2944 
Q 1939 2944 2176 2656 
Q 2291 2522 2323 2384 
Q 2355 2246 2355 1946 
L 2355 723 
Q 2355 301 2554 301 
Q 2682 301 2829 422 
z
M 1837 813 
L 1837 1715 
Q 1248 1510 1018 1293 
Q 800 1094 800 800 
Q 800 557 921 432 
Q 1043 307 1242 307 
Q 1453 307 1613 410 
Q 1747 506 1792 589 
Q 1837 672 1837 813 
z
" transform="scale(0.015625)"/>
      <path id="STIXGeneral-Regular-64" d="M 3142 269 
L 2202 -64 
L 2176 -45 
L 2176 365 
Q 1869 -64 1357 -64 
Q 826 -64 499 317 
Q 173 698 173 1312 
Q 173 1990 563 2467 
Q 954 2944 1504 2944 
Q 1850 2944 2176 2669 
L 2176 3667 
Q 2176 3866 2118 3930 
Q 2061 3994 1882 3994 
Q 1792 3994 1741 3987 
L 1741 4090 
Q 2323 4243 2682 4371 
L 2714 4358 
L 2714 730 
Q 2714 506 2768 435 
Q 2822 365 2995 365 
Q 3034 365 3142 371 
L 3142 269 
z
M 2176 653 
L 2176 2125 
Q 2176 2381 1981 2573 
Q 1786 2765 1523 2765 
Q 1158 2765 940 2438 
Q 723 2112 723 1568 
Q 723 979 963 624 
Q 1203 269 1606 269 
Q 1907 269 2080 474 
Q 2176 582 2176 653 
z
" transform="scale(0.015625)"/>
      <path id="STIXGeneral-Regular-20" transform="scale(0.015625)"/>
      <path id="STIXGeneral-Regular-70" d="M 1018 2931 
L 1018 2438 
Q 1421 2944 1939 2944 
Q 2406 2944 2707 2560 
Q 3008 2176 3008 1581 
Q 3008 883 2621 409 
Q 2234 -64 1664 -64 
Q 1466 -64 1328 -6 
Q 1190 51 1018 211 
L 1018 -794 
Q 1018 -1094 1120 -1180 
Q 1222 -1267 1581 -1274 
L 1581 -1389 
L 32 -1389 
L 32 -1280 
Q 314 -1254 397 -1171 
Q 480 -1088 480 -838 
L 480 2157 
Q 480 2381 429 2451 
Q 378 2522 218 2522 
Q 115 2522 58 2515 
L 58 2618 
Q 506 2752 979 2944 
L 1018 2931 
z
M 1018 2138 
L 1018 563 
Q 1018 422 1238 281 
Q 1459 141 1683 141 
Q 2029 141 2243 467 
Q 2458 794 2458 1325 
Q 2458 1888 2243 2224 
Q 2029 2560 1670 2560 
Q 1446 2560 1232 2419 
Q 1018 2278 1018 2138 
z
" transform="scale(0.015625)"/>
      <path id="STIXGeneral-Regular-73" d="M 998 1926 
L 1664 1523 
Q 1984 1331 2105 1164 
Q 2227 998 2227 736 
Q 2227 416 1961 176 
Q 1696 -64 1331 -64 
Q 1030 -64 864 -6 
Q 691 51 570 51 
Q 461 51 416 -26 
L 333 -26 
L 333 979 
L 435 979 
Q 538 512 730 294 
Q 922 77 1248 77 
Q 1485 77 1632 211 
Q 1779 346 1779 550 
Q 1779 845 1440 1030 
L 1094 1222 
Q 326 1651 326 2150 
Q 326 2522 566 2730 
Q 806 2938 1210 2938 
Q 1491 2938 1638 2867 
Q 1754 2816 1818 2816 
Q 1862 2816 1920 2880 
L 1990 2880 
L 2022 2010 
L 1926 2010 
Q 1818 2445 1654 2621 
Q 1491 2797 1203 2797 
Q 986 2797 854 2688 
Q 723 2579 723 2362 
Q 723 2253 796 2128 
Q 870 2003 998 1926 
z
" transform="scale(0.015625)"/>
     </defs>
     <use xlink:href="#STIXGeneral-Regular-66"/>
     <use xlink:href="#STIXGeneral-Regular-6f" transform="translate(33.299988 0)"/>
     <use xlink:href="#STIXGeneral-Regular-72" transform="translate(83.299973 0)"/>
     <use xlink:href="#STIXGeneral-Regular-77" transform="translate(116.59996 0)"/>
     <use xlink:href="#STIXGeneral-Regular-61" transform="translate(188.799942 0)"/>
     <use xlink:href="#STIXGeneral-Regular-72" transform="translate(233.199936 0)"/>
     <use xlink:href="#STIXGeneral-Regular-64" transform="translate(266.499924 0)"/>
     <use xlink:href="#STIXGeneral-Regular-20" transform="translate(316.499908 0)"/>
     <use xlink:href="#STIXGeneral-Regular-70" transform="translate(341.499893 0)"/>
     <use xlink:href="#STIXGeneral-Regular-61" transform="translate(391.499878 0)"/>
     <use xlink:href="#STIXGeneral-Regular-73" transform="translate(435.899872 0)"/>
     <use xlink:href="#STIXGeneral-Regular-73" transform="translate(474.799866 0)"/>
    </g>
   </g>
   <g id="text_2">
    <!-- loss.backward() -->
    <g style="fill: #9e2b25" transform="translate(299.3688 131.486479) scale(0.09 -0.09)">
     <defs>
      <path id="STIXGeneral-Regular-6c" d="M 1645 0 
L 134 0 
L 134 96 
Q 435 122 531 221 
Q 627 320 627 589 
L 627 3590 
Q 627 3821 569 3910 
Q 512 4000 358 4000 
Q 224 4000 122 3987 
L 122 4090 
Q 730 4237 1133 4371 
L 1165 4346 
L 1165 557 
Q 1165 288 1254 201 
Q 1344 115 1645 96 
L 1645 0 
z
" transform="scale(0.015625)"/>
      <path id="STIXGeneral-Regular-2e" d="M 1158 275 
Q 1158 134 1052 32 
Q 947 -70 800 -70 
Q 653 -70 550 32 
Q 448 134 448 281 
Q 448 429 553 534 
Q 659 640 806 640 
Q 947 640 1052 531 
Q 1158 422 1158 275 
z
" transform="scale(0.015625)"/>
      <path id="STIXGeneral-Regular-62" d="M 979 4358 
L 979 2406 
Q 1082 2650 1315 2797 
Q 1549 2944 1843 2944 
Q 2349 2944 2672 2541 
Q 2995 2138 2995 1536 
Q 2995 832 2566 384 
Q 2138 -64 1498 -64 
Q 1107 -64 774 67 
Q 442 198 442 358 
L 442 3622 
Q 442 3859 384 3926 
Q 326 3994 128 3994 
Q 83 3994 19 3981 
L 19 4090 
L 211 4147 
Q 864 4346 947 4371 
L 979 4358 
z
M 979 2035 
L 979 474 
Q 979 326 1161 233 
Q 1344 141 1600 141 
Q 1978 141 2195 416 
Q 2432 710 2432 1261 
Q 2432 1888 2182 2240 
Q 1971 2541 1613 2541 
Q 1357 2541 1168 2390 
Q 979 2240 979 2035 
z
" transform="scale(0.015625)"/>
      <path id="STIXGeneral-Regular-63" d="M 2547 998 
L 2637 941 
Q 2362 403 2112 205 
Q 1786 -64 1376 -64 
Q 845 -64 502 336 
Q 160 736 160 1357 
Q 160 2170 698 2618 
Q 1094 2944 1562 2944 
Q 1965 2944 2256 2749 
Q 2547 2554 2547 2285 
Q 2547 2176 2457 2096 
Q 2368 2016 2246 2016 
Q 2022 2016 1939 2310 
L 1901 2451 
Q 1850 2630 1773 2694 
Q 1696 2758 1523 2758 
Q 1133 2758 893 2451 
Q 653 2144 653 1645 
Q 653 1094 928 745 
Q 1203 397 1645 397 
Q 1920 397 2118 528 
Q 2317 659 2547 998 
z
" transform="scale(0.015625)"/>
      <path id="STIXGeneral-Regular-6b" d="M 3232 0 
L 1837 0 
L 1837 96 
L 1958 96 
Q 2093 96 2093 192 
Q 2093 250 2022 339 
L 1062 1606 
L 1062 429 
Q 1062 262 1142 185 
Q 1222 109 1414 102 
L 1542 96 
L 1542 0 
L 45 0 
L 45 96 
Q 390 154 457 214 
Q 525 275 525 525 
L 525 3610 
Q 525 3840 467 3920 
Q 410 4000 250 4000 
Q 211 4000 45 3987 
L 45 4090 
L 237 4141 
Q 621 4243 1037 4371 
L 1062 4358 
L 1062 1670 
L 1939 2451 
Q 2086 2586 2086 2675 
Q 2086 2739 2019 2761 
Q 1952 2784 1766 2790 
L 1766 2880 
L 3072 2880 
L 3072 2784 
Q 2752 2784 2505 2646 
Q 2259 2509 1690 1978 
L 1504 1805 
L 2483 563 
Q 2829 122 3232 96 
L 3232 0 
z
" transform="scale(0.015625)"/>
      <path id="STIXGeneral-Regular-28" d="M 1946 -1030 
L 1869 -1133 
Q 1126 -710 716 32 
Q 307 774 307 1613 
Q 307 3386 1888 4326 
L 1946 4224 
Q 1293 3667 1075 3126 
Q 858 2586 858 1632 
Q 858 685 1082 96 
Q 1306 -493 1946 -1030 
z
" transform="scale(0.015625)"/>
      <path id="STIXGeneral-Regular-29" d="M 186 4224 
L 262 4326 
Q 992 3891 1408 3148 
Q 1824 2406 1824 1581 
Q 1824 -166 243 -1133 
L 186 -1030 
Q 845 -486 1059 54 
Q 1274 595 1274 1562 
Q 1274 2534 1059 3120 
Q 845 3706 186 4224 
z
" transform="scale(0.015625)"/>
     </defs>
     <use xlink:href="#STIXGeneral-Regular-6c"/>
     <use xlink:href="#STIXGeneral-Regular-6f" transform="translate(27.799988 0)"/>
     <use xlink:href="#STIXGeneral-Regular-73" transform="translate(77.799973 0)"/>
     <use xlink:href="#STIXGeneral-Regular-73" transform="translate(116.699966 0)"/>
     <use xlink:href="#STIXGeneral-Regular-2e" transform="translate(155.59996 0)"/>
     <use xlink:href="#STIXGeneral-Regular-62" transform="translate(180.599945 0)"/>
     <use xlink:href="#STIXGeneral-Regular-61" transform="translate(230.59993 0)"/>
     <use xlink:href="#STIXGeneral-Regular-63" transform="translate(274.999924 0)"/>
     <use xlink:href="#STIXGeneral-Regular-6b" transform="translate(319.399918 0)"/>
     <use xlink:href="#STIXGeneral-Regular-77" transform="translate(369.399902 0)"/>
     <use xlink:href="#STIXGeneral-Regular-61" transform="translate(441.599884 0)"/>
     <use xlink:href="#STIXGeneral-Regular-72" transform="translate(485.999878 0)"/>
     <use xlink:href="#STIXGeneral-Regular-64" transform="translate(519.299866 0)"/>
     <use xlink:href="#STIXGeneral-Regular-28" transform="translate(569.29985 0)"/>
     <use xlink:href="#STIXGeneral-Regular-29" transform="translate(602.599838 0)"/>
    </g>
   </g>
   <g id="text_3">
    <!-- opt.step() -->
    <g style="fill: #1a1a1a" transform="translate(57.7782 131.486479) scale(0.09 -0.09)">
     <defs>
      <path id="STIXGeneral-Regular-74" d="M 1702 493 
L 1786 422 
Q 1478 -64 1011 -64 
Q 448 -64 448 749 
L 448 2675 
L 109 2675 
Q 83 2694 83 2720 
Q 83 2771 192 2842 
Q 435 2982 813 3526 
Q 826 3546 874 3606 
Q 922 3667 941 3706 
Q 986 3706 986 3622 
L 986 2880 
L 1632 2880 
L 1632 2675 
L 986 2675 
L 986 845 
Q 986 538 1062 403 
Q 1139 269 1318 269 
Q 1510 269 1702 493 
z
" transform="scale(0.015625)"/>
      <path id="STIXGeneral-Regular-65" d="M 2611 1050 
L 2714 1005 
Q 2330 -64 1376 -64 
Q 813 -64 486 329 
Q 160 723 160 1389 
Q 160 2074 525 2509 
Q 890 2944 1485 2944 
Q 2061 2944 2374 2502 
Q 2560 2246 2592 1773 
L 621 1773 
Q 646 1370 700 1158 
Q 755 947 915 730 
Q 1184 378 1626 378 
Q 1939 378 2153 531 
Q 2368 685 2611 1050 
z
M 634 1978 
L 1939 1978 
Q 1882 2381 1750 2547 
Q 1619 2714 1312 2714 
Q 1043 2714 864 2525 
Q 685 2336 634 1978 
z
" transform="scale(0.015625)"/>
     </defs>
     <use xlink:href="#STIXGeneral-Regular-6f"/>
     <use xlink:href="#STIXGeneral-Regular-70" transform="translate(49.999985 0)"/>
     <use xlink:href="#STIXGeneral-Regular-74" transform="translate(99.999969 0)"/>
     <use xlink:href="#STIXGeneral-Regular-2e" transform="translate(127.799957 0)"/>
     <use xlink:href="#STIXGeneral-Regular-73" transform="translate(152.799942 0)"/>
     <use xlink:href="#STIXGeneral-Regular-74" transform="translate(191.699936 0)"/>
     <use xlink:href="#STIXGeneral-Regular-65" transform="translate(219.499924 0)"/>
     <use xlink:href="#STIXGeneral-Regular-70" transform="translate(263.899918 0)"/>
     <use xlink:href="#STIXGeneral-Regular-28" transform="translate(313.899902 0)"/>
     <use xlink:href="#STIXGeneral-Regular-29" transform="translate(347.19989 0)"/>
    </g>
   </g>
   <g id="text_4">
    <!-- step: $\theta \leftarrow \theta - \eta\,\theta$.grad;   opt.zero_grad() clears grads first, because += accumulates -->
    <g style="fill: #8a8a8a" transform="translate(55.6585 204.9007) scale(0.085 -0.085)">
     <defs>
      <path id="STIXGeneral-Regular-3a" d="M 1123 2832 
Q 1229 2726 1229 2579 
Q 1229 2432 1126 2329 
Q 1024 2227 877 2227 
Q 730 2227 624 2332 
Q 518 2438 518 2579 
Q 518 2733 620 2835 
Q 723 2938 877 2938 
Q 1018 2938 1123 2832 
z
M 1229 282 
Q 1229 141 1126 35 
Q 1024 -70 877 -70 
Q 730 -70 624 35 
Q 518 141 518 282 
Q 518 435 620 537 
Q 723 640 877 640 
Q 1018 640 1123 534 
Q 1229 429 1229 282 
z
" transform="scale(0.015625)"/>
      <path id="STIXGeneral-Italic-3b8" d="M 3162 3270 
Q 3162 2534 2925 1862 
Q 2688 1190 2304 678 
Q 1741 -70 992 -70 
Q 608 -70 390 224 
Q 173 518 173 1030 
Q 173 1997 592 2813 
Q 1011 3629 1594 4070 
Q 1952 4339 2374 4339 
Q 2733 4339 2947 4076 
Q 3162 3814 3162 3270 
z
M 941 2221 
L 2432 2221 
Q 2624 2874 2624 3533 
Q 2624 4205 2285 4205 
Q 2029 4205 1728 3814 
Q 1427 3424 1232 2992 
Q 1037 2560 941 2221 
z
M 2387 2016 
L 896 2016 
Q 710 1530 710 960 
Q 710 64 1069 64 
Q 1286 64 1510 275 
Q 1734 486 1904 806 
Q 2074 1126 2198 1440 
Q 2323 1754 2387 2016 
z
" transform="scale(0.015625)"/>
      <path id="STIXGeneral-Regular-2190" d="M 5485 1408 
L 1651 1408 
Q 1600 1408 1542 1360 
Q 1485 1312 1485 1267 
Q 1485 1197 1574 1107 
Q 1901 794 2099 493 
L 1971 371 
Q 1178 1286 454 1587 
L 454 1651 
Q 1190 1965 1978 2874 
L 2106 2752 
Q 1926 2496 1581 2138 
Q 1491 2048 1491 1958 
Q 1491 1830 1658 1830 
L 5485 1830 
L 5485 1408 
z
" transform="scale(0.015625)"/>
      <path id="STIXGeneral-Regular-2212" d="M 3974 1408 
L 410 1408 
L 410 1830 
L 3974 1830 
L 3974 1408 
z
" transform="scale(0.015625)"/>
      <path id="STIXGeneral-Italic-3b7" d="M 947 1459 
L 960 1453 
Q 1811 2822 2374 2822 
Q 2573 2822 2701 2729 
Q 2829 2637 2829 2458 
Q 2829 2304 2765 2054 
L 2208 0 
Q 2016 -698 2016 -1094 
Q 2016 -1190 2067 -1312 
L 1600 -1312 
Q 1530 -1229 1530 -1030 
Q 1530 -710 1741 58 
L 2221 1811 
Q 2310 2112 2310 2272 
Q 2310 2496 2150 2496 
Q 1894 2496 1427 1897 
Q 960 1299 774 678 
L 570 0 
L 90 0 
L 614 1952 
Q 704 2272 704 2349 
Q 704 2458 614 2458 
Q 589 2458 560 2445 
Q 531 2432 499 2403 
Q 467 2374 438 2348 
Q 410 2323 374 2281 
Q 339 2240 316 2211 
Q 294 2182 259 2140 
Q 224 2099 211 2086 
L 134 2150 
Q 218 2291 320 2413 
Q 634 2803 941 2803 
Q 1197 2803 1197 2515 
Q 1197 2253 947 1459 
z
" transform="scale(0.015625)"/>
      <path id="STIXGeneral-Regular-67" d="M 3008 2483 
L 2477 2483 
Q 2598 2208 2598 1946 
Q 2598 1453 2265 1203 
Q 1933 954 1600 954 
Q 1530 954 1357 973 
L 1235 986 
Q 1107 947 979 812 
Q 851 678 851 582 
Q 851 435 1350 410 
L 2176 371 
Q 2528 358 2739 172 
Q 2950 -13 2950 -314 
Q 2950 -685 2566 -986 
Q 2035 -1395 1286 -1395 
Q 826 -1395 502 -1212 
Q 179 -1030 179 -774 
Q 179 -595 320 -419 
Q 461 -243 806 6 
Q 602 102 534 172 
Q 467 243 467 346 
Q 467 531 762 787 
Q 909 915 1037 1043 
Q 717 1203 579 1401 
Q 442 1600 442 1901 
Q 442 2336 752 2640 
Q 1062 2944 1510 2944 
Q 1766 2944 2022 2848 
L 2163 2797 
Q 2349 2733 2515 2733 
L 3008 2733 
L 3008 2483 
z
M 973 2163 
L 973 2144 
Q 973 1683 1155 1398 
Q 1338 1114 1632 1114 
Q 1850 1114 1978 1270 
Q 2106 1427 2106 1690 
Q 2106 2112 1914 2464 
Q 1754 2765 1446 2765 
Q 1222 2765 1097 2605 
Q 973 2445 973 2163 
z
M 2771 -410 
Q 2771 -230 2595 -163 
Q 2419 -96 1978 -96 
Q 1344 -96 941 -13 
Q 749 -243 688 -348 
Q 627 -454 627 -563 
Q 627 -774 880 -902 
Q 1133 -1030 1555 -1030 
Q 2099 -1030 2435 -860 
Q 2771 -691 2771 -410 
z
" transform="scale(0.015625)"/>
      <path id="STIXGeneral-Regular-3b" d="M 1116 2832 
Q 1222 2726 1222 2579 
Q 1222 2432 1116 2329 
Q 1011 2227 870 2227 
Q 723 2227 617 2332 
Q 512 2438 512 2579 
Q 512 2733 614 2835 
Q 717 2938 870 2938 
Q 1011 2938 1116 2832 
z
M 685 -902 
L 621 -781 
Q 1152 -435 1152 -102 
Q 1152 -70 1126 -41 
Q 1101 -13 1062 -13 
Q 1043 -13 979 -25 
Q 915 -38 883 -38 
Q 512 -38 512 294 
Q 512 448 621 550 
Q 730 653 890 653 
Q 1107 653 1254 496 
Q 1402 339 1402 83 
Q 1402 -218 1210 -480 
Q 1018 -742 685 -902 
z
" transform="scale(0.015625)"/>
      <path id="STIXGeneral-Regular-7a" d="M 2675 870 
L 2579 0 
L 173 0 
L 173 96 
L 1875 2688 
L 1011 2688 
Q 710 2688 604 2582 
Q 499 2477 454 2125 
L 339 2125 
L 365 2880 
L 2579 2880 
L 2579 2784 
L 858 192 
L 1709 192 
Q 2246 192 2387 365 
Q 2477 474 2560 896 
L 2675 870 
z
" transform="scale(0.015625)"/>
      <path id="STIXGeneral-Regular-5f" d="M 3200 -800 
L 0 -800 
L 0 -480 
L 3200 -480 
L 3200 -800 
z
" transform="scale(0.015625)"/>
      <path id="STIXGeneral-Regular-69" d="M 1152 4045 
Q 1152 3904 1056 3811 
Q 960 3718 819 3718 
Q 685 3718 592 3811 
Q 499 3904 499 4045 
Q 499 4179 595 4275 
Q 691 4371 826 4371 
Q 966 4371 1059 4275 
Q 1152 4179 1152 4045 
z
M 1619 0 
L 102 0 
L 102 96 
Q 435 115 521 211 
Q 608 307 608 666 
L 608 2118 
Q 608 2342 563 2432 
Q 518 2522 397 2522 
Q 243 2522 128 2490 
L 128 2592 
L 1120 2944 
L 1146 2918 
L 1146 672 
Q 1146 314 1226 218 
Q 1306 122 1619 96 
L 1619 0 
z
" transform="scale(0.015625)"/>
      <path id="STIXGeneral-Regular-2c" d="M 531 -902 
L 467 -781 
Q 998 -422 998 -96 
Q 998 -13 909 -13 
Q 883 -13 822 -25 
Q 762 -38 723 -38 
Q 352 -38 352 288 
Q 352 454 457 553 
Q 563 653 736 653 
Q 954 653 1101 496 
Q 1248 339 1248 96 
Q 1248 -198 1053 -473 
Q 858 -749 531 -902 
z
" transform="scale(0.015625)"/>
      <path id="STIXGeneral-Regular-75" d="M 3072 320 
L 3072 230 
Q 2573 96 2195 -58 
L 2163 -38 
L 2163 486 
L 2150 486 
Q 1747 -64 1235 -64 
Q 870 -64 662 160 
Q 454 384 454 755 
L 454 2362 
Q 454 2598 371 2688 
Q 288 2778 58 2790 
L 58 2880 
L 992 2880 
L 992 813 
Q 992 595 1123 451 
Q 1254 307 1446 307 
Q 1760 307 1984 506 
Q 2067 582 2099 649 
Q 2131 717 2131 877 
L 2131 2355 
Q 2131 2605 2041 2678 
Q 1952 2752 1658 2771 
L 1658 2880 
L 2669 2880 
L 2669 685 
Q 2669 461 2742 390 
Q 2816 320 3034 320 
L 3072 320 
z
" transform="scale(0.015625)"/>
      <path id="STIXGeneral-Regular-2b" d="M 4070 1408 
L 2400 1408 
L 2400 -262 
L 1978 -262 
L 1978 1408 
L 307 1408 
L 307 1830 
L 1978 1830 
L 1978 3501 
L 2400 3501 
L 2400 1830 
L 4070 1830 
L 4070 1408 
z
" transform="scale(0.015625)"/>
      <path id="STIXGeneral-Regular-3d" d="M 4077 2048 
L 307 2048 
L 307 2470 
L 4077 2470 
L 4077 2048 
z
M 4077 768 
L 307 768 
L 307 1190 
L 4077 1190 
L 4077 768 
z
" transform="scale(0.015625)"/>
      <path id="STIXGeneral-Regular-6d" d="M 4960 0 
L 3565 0 
L 3565 96 
Q 3834 122 3907 208 
Q 3981 294 3981 576 
L 3981 1894 
Q 3981 2278 3869 2444 
Q 3757 2611 3488 2611 
Q 3264 2611 3107 2521 
Q 2950 2432 2803 2221 
L 2803 608 
Q 2803 301 2896 201 
Q 2989 102 3264 96 
L 3264 0 
L 1830 0 
L 1830 96 
Q 2112 115 2189 188 
Q 2266 262 2266 550 
L 2266 1901 
Q 2266 2611 1850 2611 
Q 1670 2611 1468 2531 
Q 1267 2451 1171 2336 
Q 1088 2240 1088 2227 
L 1088 448 
Q 1088 243 1177 176 
Q 1267 109 1523 96 
L 1523 0 
L 102 0 
L 102 96 
Q 371 102 460 195 
Q 550 288 550 563 
L 550 2150 
Q 550 2387 499 2480 
Q 448 2573 326 2573 
Q 230 2573 122 2547 
L 122 2656 
Q 557 2778 1011 2944 
L 1062 2925 
L 1062 2451 
L 1075 2451 
Q 1363 2752 1584 2848 
Q 1805 2944 2054 2944 
Q 2560 2944 2733 2406 
Q 3232 2944 3776 2944 
Q 4518 2944 4518 1792 
L 4518 493 
Q 4518 282 4582 202 
Q 4646 122 4794 109 
L 4960 96 
L 4960 0 
z
" transform="scale(0.015625)"/>
     </defs>
     <use xlink:href="#STIXGeneral-Regular-73" transform="translate(0 0.703125)"/>
     <use xlink:href="#STIXGeneral-Regular-74" transform="translate(38.899994 0.703125)"/>
     <use xlink:href="#STIXGeneral-Regular-65" transform="translate(66.699982 0.703125)"/>
     <use xlink:href="#STIXGeneral-Regular-70" transform="translate(111.099976 0.703125)"/>
     <use xlink:href="#STIXGeneral-Regular-3a" transform="translate(161.09996 0.703125)"/>
     <use xlink:href="#STIXGeneral-Regular-20" transform="translate(188.899948 0.703125)"/>
     <use xlink:href="#STIXGeneral-Italic-3b8" transform="translate(213.899933 0.703125)"/>
     <use xlink:href="#STIXGeneral-Regular-2190" transform="translate(276.339914 0.703125)"/>
     <use xlink:href="#STIXGeneral-Italic-3b8" transform="translate(383.379901 0.703125)"/>
     <use xlink:href="#STIXGeneral-Regular-2212" transform="translate(445.819882 0.703125)"/>
     <use xlink:href="#STIXGeneral-Italic-3b7" transform="translate(528.759863 0.703125)"/>
     <use xlink:href="#STIXGeneral-Italic-3b8" transform="translate(588.193428 0.703125)"/>
     <use xlink:href="#STIXGeneral-Regular-2e" transform="translate(636.193413 0.703125)"/>
     <use xlink:href="#STIXGeneral-Regular-67" transform="translate(661.193398 0.703125)"/>
     <use xlink:href="#STIXGeneral-Regular-72" transform="translate(711.193382 0.703125)"/>
     <use xlink:href="#STIXGeneral-Regular-61" transform="translate(744.49337 0.703125)"/>
     <use xlink:href="#STIXGeneral-Regular-64" transform="translate(788.893364 0.703125)"/>
     <use xlink:href="#STIXGeneral-Regular-3b" transform="translate(838.893349 0.703125)"/>
     <use xlink:href="#STIXGeneral-Regular-20" transform="translate(866.693337 0.703125)"/>
     <use xlink:href="#STIXGeneral-Regular-20" transform="translate(891.693321 0.703125)"/>
     <use xlink:href="#STIXGeneral-Regular-20" transform="translate(916.693306 0.703125)"/>
     <use xlink:href="#STIXGeneral-Regular-6f" transform="translate(941.693291 0.703125)"/>
     <use xlink:href="#STIXGeneral-Regular-70" transform="translate(991.693276 0.703125)"/>
     <use xlink:href="#STIXGeneral-Regular-74" transform="translate(1041.69326 0.703125)"/>
     <use xlink:href="#STIXGeneral-Regular-2e" transform="translate(1069.493248 0.703125)"/>
     <use xlink:href="#STIXGeneral-Regular-7a" transform="translate(1094.493233 0.703125)"/>
     <use xlink:href="#STIXGeneral-Regular-65" transform="translate(1138.893227 0.703125)"/>
     <use xlink:href="#STIXGeneral-Regular-72" transform="translate(1183.293221 0.703125)"/>
     <use xlink:href="#STIXGeneral-Regular-6f" transform="translate(1216.593208 0.703125)"/>
     <use xlink:href="#STIXGeneral-Regular-5f" transform="translate(1266.593193 0.703125)"/>
     <use xlink:href="#STIXGeneral-Regular-67" transform="translate(1316.593178 0.703125)"/>
     <use xlink:href="#STIXGeneral-Regular-72" transform="translate(1366.593163 0.703125)"/>
     <use xlink:href="#STIXGeneral-Regular-61" transform="translate(1399.89315 0.703125)"/>
     <use xlink:href="#STIXGeneral-Regular-64" transform="translate(1444.293144 0.703125)"/>
     <use xlink:href="#STIXGeneral-Regular-28" transform="translate(1494.293129 0.703125)"/>
     <use xlink:href="#STIXGeneral-Regular-29" transform="translate(1527.593117 0.703125)"/>
     <use xlink:href="#STIXGeneral-Regular-20" transform="translate(1560.893105 0.703125)"/>
     <use xlink:href="#STIXGeneral-Regular-63" transform="translate(1585.893089 0.703125)"/>
     <use xlink:href="#STIXGeneral-Regular-6c" transform="translate(1630.293083 0.703125)"/>
     <use xlink:href="#STIXGeneral-Regular-65" transform="translate(1658.093071 0.703125)"/>
     <use xlink:href="#STIXGeneral-Regular-61" transform="translate(1702.493065 0.703125)"/>
     <use xlink:href="#STIXGeneral-Regular-72" transform="translate(1746.893059 0.703125)"/>
     <use xlink:href="#STIXGeneral-Regular-73" transform="translate(1780.193047 0.703125)"/>
     <use xlink:href="#STIXGeneral-Regular-20" transform="translate(1819.093041 0.703125)"/>
     <use xlink:href="#STIXGeneral-Regular-67" transform="translate(1844.093025 0.703125)"/>
     <use xlink:href="#STIXGeneral-Regular-72" transform="translate(1894.09301 0.703125)"/>
     <use xlink:href="#STIXGeneral-Regular-61" transform="translate(1927.392998 0.703125)"/>
     <use xlink:href="#STIXGeneral-Regular-64" transform="translate(1971.792992 0.703125)"/>
     <use xlink:href="#STIXGeneral-Regular-73" transform="translate(2021.792976 0.703125)"/>
     <use xlink:href="#STIXGeneral-Regular-20" transform="translate(2060.69297 0.703125)"/>
     <use xlink:href="#STIXGeneral-Regular-66" transform="translate(2085.692955 0.703125)"/>
     <use xlink:href="#STIXGeneral-Regular-69" transform="translate(2118.992943 0.703125)"/>
     <use xlink:href="#STIXGeneral-Regular-72" transform="translate(2146.792931 0.703125)"/>
     <use xlink:href="#STIXGeneral-Regular-73" transform="translate(2180.092918 0.703125)"/>
     <use xlink:href="#STIXGeneral-Regular-74" transform="translate(2218.992912 0.703125)"/>
     <use xlink:href="#STIXGeneral-Regular-2c" transform="translate(2246.7929 0.703125)"/>
     <use xlink:href="#STIXGeneral-Regular-20" transform="translate(2271.792885 0.703125)"/>
     <use xlink:href="#STIXGeneral-Regular-62" transform="translate(2296.79287 0.703125)"/>
     <use xlink:href="#STIXGeneral-Regular-65" transform="translate(2346.792854 0.703125)"/>
     <use xlink:href="#STIXGeneral-Regular-63" transform="translate(2391.192848 0.703125)"/>
     <use xlink:href="#STIXGeneral-Regular-61" transform="translate(2435.592842 0.703125)"/>
     <use xlink:href="#STIXGeneral-Regular-75" transform="translate(2479.992836 0.703125)"/>
     <use xlink:href="#STIXGeneral-Regular-73" transform="translate(2529.992821 0.703125)"/>
     <use xlink:href="#STIXGeneral-Regular-65" transform="translate(2568.892815 0.703125)"/>
     <use xlink:href="#STIXGeneral-Regular-20" transform="translate(2613.292809 0.703125)"/>
     <use xlink:href="#STIXGeneral-Regular-2b" transform="translate(2638.292793 0.703125)"/>
     <use xlink:href="#STIXGeneral-Regular-3d" transform="translate(2706.792778 0.703125)"/>
     <use xlink:href="#STIXGeneral-Regular-20" transform="translate(2775.292763 0.703125)"/>
     <use xlink:href="#STIXGeneral-Regular-61" transform="translate(2800.292748 0.703125)"/>
     <use xlink:href="#STIXGeneral-Regular-63" transform="translate(2844.692741 0.703125)"/>
     <use xlink:href="#STIXGeneral-Regular-63" transform="translate(2889.092735 0.703125)"/>
     <use xlink:href="#STIXGeneral-Regular-75" transform="translate(2933.492729 0.703125)"/>
     <use xlink:href="#STIXGeneral-Regular-6d" transform="translate(2983.492714 0.703125)"/>
     <use xlink:href="#STIXGeneral-Regular-75" transform="translate(3061.292702 0.703125)"/>
     <use xlink:href="#STIXGeneral-Regular-6c" transform="translate(3111.292687 0.703125)"/>
     <use xlink:href="#STIXGeneral-Regular-61" transform="translate(3139.092674 0.703125)"/>
     <use xlink:href="#STIXGeneral-Regular-74" transform="translate(3183.492668 0.703125)"/>
     <use xlink:href="#STIXGeneral-Regular-65" transform="translate(3211.292656 0.703125)"/>
     <use xlink:href="#STIXGeneral-Regular-73" transform="translate(3255.69265 0.703125)"/>
    </g>
   </g>
   <g id="text_5">
    <!-- parameters -->
    <g style="fill: #8a8a8a" transform="translate(54.528053 57.856554) scale(0.085 -0.085)">
     <use xlink:href="#STIXGeneral-Regular-70"/>
     <use xlink:href="#STIXGeneral-Regular-61" transform="translate(49.999985 0)"/>
     <use xlink:href="#STIXGeneral-Regular-72" transform="translate(94.399979 0)"/>
     <use xlink:href="#STIXGeneral-Regular-61" transform="translate(127.699966 0)"/>
     <use xlink:href="#STIXGeneral-Regular-6d" transform="translate(172.09996 0)"/>
     <use xlink:href="#STIXGeneral-Regular-65" transform="translate(249.899948 0)"/>
     <use xlink:href="#STIXGeneral-Regular-74" transform="translate(294.299942 0)"/>
     <use xlink:href="#STIXGeneral-Regular-65" transform="translate(322.09993 0)"/>
     <use xlink:href="#STIXGeneral-Regular-72" transform="translate(366.499924 0)"/>
     <use xlink:href="#STIXGeneral-Regular-73" transform="translate(399.799911 0)"/>
    </g>
   </g>
   <g id="text_6">
    <!-- $\theta$ (every weight) -->
    <g style="fill: #1a1a1a" transform="translate(41.8711 80.72834) scale(0.095 -0.095)">
     <defs>
      <path id="STIXGeneral-Regular-76" d="M 3053 2880 
L 3053 2784 
Q 2906 2771 2835 2688 
Q 2765 2605 2637 2285 
L 1818 230 
Q 1690 -90 1638 -90 
Q 1587 -90 1523 77 
Q 1510 96 1497 141 
Q 1485 186 1472 211 
L 704 2048 
Q 499 2534 403 2652 
Q 307 2771 122 2784 
L 122 2880 
L 1376 2880 
L 1376 2784 
Q 1210 2771 1146 2732 
Q 1082 2694 1082 2611 
Q 1082 2509 1139 2368 
L 1792 730 
L 2426 2387 
Q 2464 2483 2464 2579 
Q 2464 2758 2163 2784 
L 2163 2880 
L 3053 2880 
z
" transform="scale(0.015625)"/>
      <path id="STIXGeneral-Regular-79" d="M 3040 2880 
L 3040 2784 
Q 2925 2771 2854 2700 
Q 2784 2630 2720 2458 
L 1760 -160 
Q 1510 -838 1257 -1116 
Q 1005 -1395 640 -1395 
Q 435 -1395 313 -1289 
Q 192 -1184 192 -1024 
Q 192 -902 272 -816 
Q 352 -730 467 -730 
Q 653 -730 800 -813 
Q 883 -858 966 -858 
Q 1101 -858 1286 -576 
Q 1376 -448 1459 -211 
Q 1542 26 1542 115 
Q 1542 198 1274 762 
L 429 2566 
Q 346 2752 90 2790 
L 90 2880 
L 1402 2880 
L 1402 2784 
Q 1197 2778 1117 2739 
Q 1037 2701 1037 2611 
Q 1037 2541 1120 2349 
L 1837 749 
L 2458 2515 
Q 2483 2573 2483 2630 
Q 2483 2784 2189 2784 
L 2189 2880 
L 3040 2880 
z
" transform="scale(0.015625)"/>
      <path id="STIXGeneral-Regular-68" d="M 3117 0 
L 1760 0 
L 1760 96 
Q 2042 128 2118 224 
Q 2195 320 2195 653 
L 2195 1920 
Q 2195 2598 1722 2598 
Q 1530 2598 1370 2508 
Q 1210 2419 1005 2195 
L 1005 653 
Q 1005 320 1081 224 
Q 1158 128 1440 96 
L 1440 0 
L 58 0 
L 58 96 
Q 333 134 400 224 
Q 467 314 467 653 
L 467 3667 
Q 467 3872 406 3933 
Q 346 3994 141 3994 
Q 83 3994 64 3987 
L 64 4090 
L 237 4141 
Q 730 4288 973 4371 
L 1005 4352 
L 1005 2406 
Q 1229 2694 1446 2819 
Q 1664 2944 1946 2944 
Q 2733 2944 2733 1926 
L 2733 653 
Q 2733 320 2793 233 
Q 2854 147 3117 96 
L 3117 0 
z
" transform="scale(0.015625)"/>
     </defs>
     <use xlink:href="#STIXGeneral-Italic-3b8" transform="translate(0 0.703125)"/>
     <use xlink:href="#STIXGeneral-Regular-20" transform="translate(47.999985 0.703125)"/>
     <use xlink:href="#STIXGeneral-Regular-28" transform="translate(72.999969 0.703125)"/>
     <use xlink:href="#STIXGeneral-Regular-65" transform="translate(106.299957 0.703125)"/>
     <use xlink:href="#STIXGeneral-Regular-76" transform="translate(150.699951 0.703125)"/>
     <use xlink:href="#STIXGeneral-Regular-65" transform="translate(200.699936 0.703125)"/>
     <use xlink:href="#STIXGeneral-Regular-72" transform="translate(245.09993 0.703125)"/>
     <use xlink:href="#STIXGeneral-Regular-79" transform="translate(278.399918 0.703125)"/>
     <use xlink:href="#STIXGeneral-Regular-20" transform="translate(328.399902 0.703125)"/>
     <use xlink:href="#STIXGeneral-Regular-77" transform="translate(353.399887 0.703125)"/>
     <use xlink:href="#STIXGeneral-Regular-65" transform="translate(425.599869 0.703125)"/>
     <use xlink:href="#STIXGeneral-Regular-69" transform="translate(469.999863 0.703125)"/>
     <use xlink:href="#STIXGeneral-Regular-67" transform="translate(497.79985 0.703125)"/>
     <use xlink:href="#STIXGeneral-Regular-68" transform="translate(547.799835 0.703125)"/>
     <use xlink:href="#STIXGeneral-Regular-74" transform="translate(597.79982 0.703125)"/>
     <use xlink:href="#STIXGeneral-Regular-29" transform="translate(625.599808 0.703125)"/>
    </g>
   </g>
   <g id="text_7">
    <!-- scalar loss -->
    <g style="fill: #8a8a8a" transform="translate(300.630705 57.856554) scale(0.085 -0.085)">
     <use xlink:href="#STIXGeneral-Regular-73"/>
     <use xlink:href="#STIXGeneral-Regular-63" transform="translate(38.899994 0)"/>
     <use xlink:href="#STIXGeneral-Regular-61" transform="translate(83.299988 0)"/>
     <use xlink:href="#STIXGeneral-Regular-6c" transform="translate(127.699982 0)"/>
     <use xlink:href="#STIXGeneral-Regular-61" transform="translate(155.499969 0)"/>
     <use xlink:href="#STIXGeneral-Regular-72" transform="translate(199.899963 0)"/>
     <use xlink:href="#STIXGeneral-Regular-20" transform="translate(233.199951 0)"/>
     <use xlink:href="#STIXGeneral-Regular-6c" transform="translate(258.199936 0)"/>
     <use xlink:href="#STIXGeneral-Regular-6f" transform="translate(285.999924 0)"/>
     <use xlink:href="#STIXGeneral-Regular-73" transform="translate(335.999908 0)"/>
     <use xlink:href="#STIXGeneral-Regular-73" transform="translate(374.899902 0)"/>
    </g>
   </g>
   <g id="text_8">
    <!-- $L = f(\theta,\, \mathrm{batch})$ -->
    <g style="fill: #1a1a1a" transform="translate(291.4284 80.709043) scale(0.095 -0.095)">
     <defs>
      <path id="STIXGeneral-Italic-4c" d="M 3578 1152 
L 3206 0 
L -51 0 
L -51 102 
Q 218 128 301 211 
Q 384 294 474 602 
L 1254 3405 
Q 1325 3642 1325 3802 
Q 1325 3942 1225 4000 
Q 1126 4058 832 4077 
L 832 4179 
L 2579 4179 
L 2579 4077 
Q 2285 4058 2147 3955 
Q 2010 3853 1933 3584 
L 1165 838 
Q 1101 595 1101 493 
Q 1101 346 1241 288 
Q 1382 230 1773 230 
Q 2266 230 2480 275 
Q 2694 320 2925 474 
Q 3187 646 3450 1190 
L 3578 1152 
z
" transform="scale(0.015625)"/>
      <path id="STIXGeneral-Italic-66" d="M 262 2739 
L 858 2739 
Q 1107 3546 1318 3846 
Q 1664 4339 2163 4339 
Q 2400 4339 2557 4227 
Q 2714 4115 2714 3942 
Q 2714 3834 2634 3750 
Q 2554 3667 2445 3667 
Q 2355 3667 2281 3737 
Q 2208 3808 2208 3917 
Q 2208 3981 2240 4038 
Q 2272 4096 2272 4115 
Q 2272 4198 2131 4198 
Q 1862 4198 1676 3849 
Q 1491 3501 1350 2739 
L 2035 2739 
L 1997 2534 
L 1306 2534 
L 845 486 
Q 435 -1325 -435 -1325 
Q -653 -1325 -797 -1213 
Q -941 -1101 -941 -934 
Q -941 -826 -870 -746 
Q -800 -666 -698 -666 
Q -589 -666 -521 -733 
Q -454 -800 -454 -902 
Q -454 -947 -483 -1001 
Q -512 -1056 -512 -1088 
Q -512 -1190 -384 -1190 
Q 13 -1190 237 -154 
L 800 2534 
L 218 2534 
L 262 2739 
z
" transform="scale(0.015625)"/>
     </defs>
     <use xlink:href="#STIXGeneral-Italic-4c" transform="translate(0 0.703125)"/>
     <use xlink:href="#STIXGeneral-Regular-3d" transform="translate(70.039987 0.703125)"/>
     <use xlink:href="#STIXGeneral-Italic-66" transform="translate(152.979968 0.703125)"/>
     <use xlink:href="#STIXGeneral-Regular-28" transform="translate(180.779956 0.703125)"/>
     <use xlink:href="#STIXGeneral-Italic-3b8" transform="translate(214.079944 0.703125)"/>
     <use xlink:href="#STIXGeneral-Regular-2c" transform="translate(262.079929 0.703125)"/>
     <use xlink:href="#STIXGeneral-Regular-62" transform="translate(313.553481 0.703125)"/>
     <use xlink:href="#STIXGeneral-Regular-61" transform="translate(363.553465 0.703125)"/>
     <use xlink:href="#STIXGeneral-Regular-74" transform="translate(407.953459 0.703125)"/>
     <use xlink:href="#STIXGeneral-Regular-63" transform="translate(435.753447 0.703125)"/>
     <use xlink:href="#STIXGeneral-Regular-68" transform="translate(480.153441 0.703125)"/>
     <use xlink:href="#STIXGeneral-Regular-29" transform="translate(530.153426 0.703125)"/>
    </g>
   </g>
   <g id="text_9">
    <!-- gradients -->
    <g style="fill: #8a8a8a" transform="translate(180.115102 148.33065) scale(0.085 -0.085)">
     <defs>
      <path id="STIXGeneral-Regular-6e" d="M 3104 0 
L 1773 0 
L 1779 96 
Q 2016 115 2096 233 
Q 2176 352 2176 672 
L 2176 1946 
Q 2176 2592 1709 2592 
Q 1549 2592 1408 2515 
Q 1267 2438 1050 2227 
L 1050 461 
Q 1050 269 1136 192 
Q 1222 115 1466 96 
L 1466 0 
L 115 0 
L 115 96 
Q 358 115 435 214 
Q 512 314 512 602 
L 512 2157 
Q 512 2394 467 2483 
Q 422 2573 288 2573 
Q 160 2573 102 2547 
L 102 2656 
Q 550 2784 979 2944 
L 1030 2925 
L 1030 2426 
L 1037 2426 
Q 1491 2944 1958 2944 
Q 2323 2944 2518 2688 
Q 2714 2432 2714 1958 
L 2714 544 
Q 2714 288 2790 205 
Q 2867 122 3104 96 
L 3104 0 
z
" transform="scale(0.015625)"/>
     </defs>
     <use xlink:href="#STIXGeneral-Regular-67"/>
     <use xlink:href="#STIXGeneral-Regular-72" transform="translate(49.999985 0)"/>
     <use xlink:href="#STIXGeneral-Regular-61" transform="translate(83.299973 0)"/>
     <use xlink:href="#STIXGeneral-Regular-64" transform="translate(127.699966 0)"/>
     <use xlink:href="#STIXGeneral-Regular-69" transform="translate(177.699951 0)"/>
     <use xlink:href="#STIXGeneral-Regular-65" transform="translate(205.499939 0)"/>
     <use xlink:href="#STIXGeneral-Regular-6e" transform="translate(249.899933 0)"/>
     <use xlink:href="#STIXGeneral-Regular-74" transform="translate(299.899918 0)"/>
     <use xlink:href="#STIXGeneral-Regular-73" transform="translate(327.699905 0)"/>
    </g>
   </g>
   <g id="text_10">
    <!-- $\theta$.grad $= \nabla_{\theta} L$ -->
    <g style="fill: #1a1a1a" transform="translate(169.951 171.20642) scale(0.095 -0.095)">
     <defs>
      <path id="STIXGeneral-Regular-2207" d="M 4269 4237 
L 2426 -77 
L 2298 -77 
L 403 4237 
L 4269 4237 
z
M 3866 3974 
L 1190 3974 
L 2522 813 
L 3866 3974 
z
" transform="scale(0.015625)"/>
     </defs>
     <use xlink:href="#STIXGeneral-Italic-3b8" transform="translate(0 0.703125)"/>
     <use xlink:href="#STIXGeneral-Regular-2e" transform="translate(47.999985 0.703125)"/>
     <use xlink:href="#STIXGeneral-Regular-67" transform="translate(72.999969 0.703125)"/>
     <use xlink:href="#STIXGeneral-Regular-72" transform="translate(122.999954 0.703125)"/>
     <use xlink:href="#STIXGeneral-Regular-61" transform="translate(156.299942 0.703125)"/>
     <use xlink:href="#STIXGeneral-Regular-64" transform="translate(200.699936 0.703125)"/>
     <use xlink:href="#STIXGeneral-Regular-20" transform="translate(250.699921 0.703125)"/>
     <use xlink:href="#STIXGeneral-Regular-3d" transform="translate(290.139902 0.703125)"/>
     <use xlink:href="#STIXGeneral-Regular-2207" transform="translate(373.079883 0.703125)"/>
     <use xlink:href="#STIXGeneral-Italic-3b8" transform="translate(447.723155 -12.525) scale(0.7)"/>
     <use xlink:href="#STIXGeneral-Italic-4c" transform="translate(485.732519 0.703125)"/>
    </g>
   </g>
  </g>
 </g>
 <defs>
  <clipPath id="pf8d24e6b13">
   <rect x="7.2" y="7.2" width="376.992" height="205.128"/>
  </clipPath>
 </defs>
</svg>
