<?xml version="1.0" encoding="utf-8" standalone="no"?>
<!DOCTYPE svg PUBLIC "-//W3C//DTD SVG 1.1//EN"
  "http://www.w3.org/Graphics/SVG/1.1/DTD/svg11.dtd">
<svg xmlns:xlink="http://www.w3.org/1999/xlink" width="391.392pt" height="302.688pt" viewBox="0 0 391.392 302.688" xmlns="http://www.w3.org/2000/svg" version="1.1">
 <metadata>
  <rdf:RDF xmlns:dc="http://purl.org/dc/elements/1.1/" xmlns:cc="http://creativecommons.org/ns#" xmlns:rdf="http://www.w3.org/1999/02/22-rdf-syntax-ns#">
   <cc:Work>
    <dc:type rdf:resource="http://purl.org/dc/dcmitype/StillImage"/>
    <dc:date>2026-06-09T15:24:40.331796</dc:date>
    <dc:format>image/svg+xml</dc:format>
    <dc:creator>
     <cc:Agent>
      <dc:title>Matplotlib v3.10.9, https://matplotlib.org/</dc:title>
     </cc:Agent>
    </dc:creator>
   </cc:Work>
  </rdf:RDF>
 </metadata>
 <defs>
  <style type="text/css">*{stroke-linejoin: round; stroke-linecap: butt}</style>
 </defs>
 <g id="figure_1">
  <g id="patch_1">
   <path d="M 0 302.688 
L 391.392 302.688 
L 391.392 0 
L 0 0 
z
" style="fill: #ffffff"/>
  </g>
  <g id="axes_1">
   <g id="patch_2">
    <path d="M 210.77568 45.919296 
L 237.919104 45.919296 
L 237.919104 24.05376 
L 210.77568 24.05376 
z
" clip-path="url(#p65498c4051)" style="fill: #ffffff; stroke: #1a1a1a; stroke-width: 0.7; stroke-linejoin: miter"/>
   </g>
   <g id="patch_3">
    <path d="M 241.689024 45.919296 
L 268.832448 45.919296 
L 268.832448 24.05376 
L 241.689024 24.05376 
z
" clip-path="url(#p65498c4051)" style="fill: #ffffff; stroke: #1a1a1a; stroke-width: 0.7; stroke-linejoin: miter"/>
   </g>
   <g id="patch_4">
    <path d="M 272.602368 45.919296 
L 299.745792 45.919296 
L 299.745792 24.05376 
L 272.602368 24.05376 
z
" clip-path="url(#p65498c4051)" style="fill: #ffffff; stroke: #1a1a1a; stroke-width: 0.7; stroke-linejoin: miter"/>
   </g>
   <g id="patch_5">
    <path d="M 210.77568 71.554752 
L 237.919104 71.554752 
L 237.919104 49.689216 
L 210.77568 49.689216 
z
" clip-path="url(#p65498c4051)" style="fill: #ffffff; stroke: #1a1a1a; stroke-width: 0.7; stroke-linejoin: miter"/>
   </g>
   <g id="patch_6">
    <path d="M 241.689024 71.554752 
L 268.832448 71.554752 
L 268.832448 49.689216 
L 241.689024 49.689216 
z
" clip-path="url(#p65498c4051)" style="fill: #ffffff; stroke: #1a1a1a; stroke-width: 0.7; stroke-linejoin: miter"/>
   </g>
   <g id="patch_7">
    <path d="M 272.602368 71.554752 
L 299.745792 71.554752 
L 299.745792 49.689216 
L 272.602368 49.689216 
z
" clip-path="url(#p65498c4051)" style="fill: #ffffff; stroke: #1a1a1a; stroke-width: 0.7; stroke-linejoin: miter"/>
   </g>
   <g id="patch_8">
    <path d="M 210.77568 97.190208 
L 237.919104 97.190208 
L 237.919104 75.324672 
L 210.77568 75.324672 
z
" clip-path="url(#p65498c4051)" style="fill: #ffffff; stroke: #1a1a1a; stroke-width: 0.7; stroke-linejoin: miter"/>
   </g>
   <g id="patch_9">
    <path d="M 241.689024 97.190208 
L 268.832448 97.190208 
L 268.832448 75.324672 
L 241.689024 75.324672 
z
" clip-path="url(#p65498c4051)" style="fill: #ffffff; stroke: #1a1a1a; stroke-width: 0.7; stroke-linejoin: miter"/>
   </g>
   <g id="patch_10">
    <path d="M 272.602368 97.190208 
L 299.745792 97.190208 
L 299.745792 75.324672 
L 272.602368 75.324672 
z
" clip-path="url(#p65498c4051)" style="fill: #ffffff; stroke: #1a1a1a; stroke-width: 0.7; stroke-linejoin: miter"/>
   </g>
   <g id="patch_11">
    <path d="M 210.77568 122.825664 
L 237.919104 122.825664 
L 237.919104 100.960128 
L 210.77568 100.960128 
z
" clip-path="url(#p65498c4051)" style="fill: #ffffff; stroke: #1a1a1a; stroke-width: 0.7; stroke-linejoin: miter"/>
   </g>
   <g id="patch_12">
    <path d="M 241.689024 122.825664 
L 268.832448 122.825664 
L 268.832448 100.960128 
L 241.689024 100.960128 
z
" clip-path="url(#p65498c4051)" style="fill: #ffffff; stroke: #1a1a1a; stroke-width: 0.7; stroke-linejoin: miter"/>
   </g>
   <g id="patch_13">
    <path d="M 272.602368 122.825664 
L 299.745792 122.825664 
L 299.745792 100.960128 
L 272.602368 100.960128 
z
" clip-path="url(#p65498c4051)" style="fill: #ffffff; stroke: #1a1a1a; stroke-width: 0.7; stroke-linejoin: miter"/>
   </g>
   <g id="patch_14">
    <path d="M 24.16464 84.37248 
L 51.308064 84.37248 
L 51.308064 62.506944 
L 24.16464 62.506944 
z
" clip-path="url(#p65498c4051)" style="fill: #ffffff; stroke: #1a1a1a; stroke-width: 0.7; stroke-linejoin: miter"/>
   </g>
   <g id="patch_15">
    <path d="M 55.077984 84.37248 
L 82.221408 84.37248 
L 82.221408 62.506944 
L 55.077984 62.506944 
z
" clip-path="url(#p65498c4051)" style="fill: #ffffff; stroke: #1a1a1a; stroke-width: 0.7; stroke-linejoin: miter"/>
   </g>
   <g id="patch_16">
    <path d="M 85.991328 84.37248 
L 113.134752 84.37248 
L 113.134752 62.506944 
L 85.991328 62.506944 
z
" clip-path="url(#p65498c4051)" style="fill: #ffffff; stroke: #1a1a1a; stroke-width: 0.7; stroke-linejoin: miter"/>
   </g>
   <g id="patch_17">
    <path d="M 210.77568 192.946176 
L 237.919104 192.946176 
L 237.919104 171.08064 
L 210.77568 171.08064 
z
" clip-path="url(#p65498c4051)" style="fill: #ffffff; stroke: #1a1a1a; stroke-width: 0.7; stroke-linejoin: miter"/>
   </g>
   <g id="patch_18">
    <path d="M 241.689024 192.946176 
L 268.832448 192.946176 
L 268.832448 171.08064 
L 241.689024 171.08064 
z
" clip-path="url(#p65498c4051)" style="fill: #ffffff; stroke: #1a1a1a; stroke-width: 0.7; stroke-linejoin: miter"/>
   </g>
   <g id="patch_19">
    <path d="M 272.602368 192.946176 
L 299.745792 192.946176 
L 299.745792 171.08064 
L 272.602368 171.08064 
z
" clip-path="url(#p65498c4051)" style="fill: #ffffff; stroke: #1a1a1a; stroke-width: 0.7; stroke-linejoin: miter"/>
   </g>
   <g id="patch_20">
    <path d="M 210.77568 218.581632 
L 237.919104 218.581632 
L 237.919104 196.716096 
L 210.77568 196.716096 
z
" clip-path="url(#p65498c4051)" style="fill: #ffffff; stroke: #1a1a1a; stroke-width: 0.7; stroke-linejoin: miter"/>
   </g>
   <g id="patch_21">
    <path d="M 241.689024 218.581632 
L 268.832448 218.581632 
L 268.832448 196.716096 
L 241.689024 196.716096 
z
" clip-path="url(#p65498c4051)" style="fill: #ffffff; stroke: #1a1a1a; stroke-width: 0.7; stroke-linejoin: miter"/>
   </g>
   <g id="patch_22">
    <path d="M 272.602368 218.581632 
L 299.745792 218.581632 
L 299.745792 196.716096 
L 272.602368 196.716096 
z
" clip-path="url(#p65498c4051)" style="fill: #ffffff; stroke: #1a1a1a; stroke-width: 0.7; stroke-linejoin: miter"/>
   </g>
   <g id="patch_23">
    <path d="M 210.77568 244.217088 
L 237.919104 244.217088 
L 237.919104 222.351552 
L 210.77568 222.351552 
z
" clip-path="url(#p65498c4051)" style="fill: #ffffff; stroke: #1a1a1a; stroke-width: 0.7; stroke-linejoin: miter"/>
   </g>
   <g id="patch_24">
    <path d="M 241.689024 244.217088 
L 268.832448 244.217088 
L 268.832448 222.351552 
L 241.689024 222.351552 
z
" clip-path="url(#p65498c4051)" style="fill: #ffffff; stroke: #1a1a1a; stroke-width: 0.7; stroke-linejoin: miter"/>
   </g>
   <g id="patch_25">
    <path d="M 272.602368 244.217088 
L 299.745792 244.217088 
L 299.745792 222.351552 
L 272.602368 222.351552 
z
" clip-path="url(#p65498c4051)" style="fill: #ffffff; stroke: #1a1a1a; stroke-width: 0.7; stroke-linejoin: miter"/>
   </g>
   <g id="patch_26">
    <path d="M 210.77568 269.852544 
L 237.919104 269.852544 
L 237.919104 247.987008 
L 210.77568 247.987008 
z
" clip-path="url(#p65498c4051)" style="fill: #ffffff; stroke: #1a1a1a; stroke-width: 0.7; stroke-linejoin: miter"/>
   </g>
   <g id="patch_27">
    <path d="M 241.689024 269.852544 
L 268.832448 269.852544 
L 268.832448 247.987008 
L 241.689024 247.987008 
z
" clip-path="url(#p65498c4051)" style="fill: #ffffff; stroke: #1a1a1a; stroke-width: 0.7; stroke-linejoin: miter"/>
   </g>
   <g id="patch_28">
    <path d="M 272.602368 269.852544 
L 299.745792 269.852544 
L 299.745792 247.987008 
L 272.602368 247.987008 
z
" clip-path="url(#p65498c4051)" style="fill: #ffffff; stroke: #1a1a1a; stroke-width: 0.7; stroke-linejoin: miter"/>
   </g>
   <g id="patch_29">
    <path d="M 24.16464 231.39936 
L 63.7488 231.39936 
L 63.7488 209.533824 
L 24.16464 209.533824 
z
" clip-path="url(#p65498c4051)" style="fill: #ffffff; stroke: #1a1a1a; stroke-width: 0.7; stroke-linejoin: miter"/>
   </g>
   <g id="patch_30">
    <path d="M 67.51872 231.39936 
L 107.10288 231.39936 
L 107.10288 209.533824 
L 67.51872 209.533824 
z
" clip-path="url(#p65498c4051)" style="fill: #ffffff; stroke: #1a1a1a; stroke-width: 0.7; stroke-linejoin: miter"/>
   </g>
   <g id="patch_31">
    <path d="M 110.8728 231.39936 
L 150.45696 231.39936 
L 150.45696 209.533824 
L 110.8728 209.533824 
z
" clip-path="url(#p65498c4051)" style="fill: #ffffff; stroke: #1a1a1a; stroke-width: 0.7; stroke-linejoin: miter"/>
   </g>
   <g id="patch_32">
    <path d="M 124.06752 73.439712 
Q 162.7092 73.439712 200.121043 73.439712 
" clip-path="url(#p65498c4051)" style="fill: none; stroke: #2b4f81; stroke-width: 1.1; stroke-linecap: round"/>
    <path d="M 195.721043 71.239712 
L 200.121043 73.439712 
L 195.721043 75.639712 
z
" clip-path="url(#p65498c4051)" style="fill: #2b4f81; stroke: #2b4f81; stroke-width: 1.1; stroke-linecap: round"/>
   </g>
   <g id="patch_33">
    <path d="M 203.23584 220.466592 
Q 179.67384 220.466592 157.341677 220.466592 
" clip-path="url(#p65498c4051)" style="fill: none; stroke-dasharray: 5.5,3.3; stroke-dashoffset: 0; stroke: #9e2b25; stroke-width: 1.1; stroke-linecap: round"/>
    <path d="M 161.741677 222.666592 
L 157.341677 220.466592 
L 161.741677 218.266592 
z
" clip-path="url(#p65498c4051)" style="fill: #9e2b25; stroke-dasharray: 5.5,3.3; stroke-dashoffset: 0; stroke: #9e2b25; stroke-width: 1.1; stroke-linecap: round"/>
   </g>
   <g id="text_1">
    <!-- forward -->
    <g style="fill: #8a8a8a" transform="translate(24.16464 16.725679) scale(0.09 -0.09)">
     <defs>
      <path id="STIXGeneral-Regular-66" d="M 134 2880 
L 659 2880 
Q 666 3264 710 3478 
Q 755 3693 883 3910 
Q 1152 4371 1786 4371 
Q 2074 4371 2262 4259 
Q 2451 4147 2451 3974 
Q 2451 3866 2374 3789 
Q 2298 3712 2182 3712 
Q 2029 3712 1894 3942 
Q 1741 4192 1555 4192 
Q 1197 4192 1197 3622 
L 1197 2880 
L 1978 2880 
L 1978 2675 
L 1197 2675 
L 1197 666 
Q 1197 307 1299 208 
Q 1402 109 1792 96 
L 1792 0 
L 128 0 
L 128 96 
Q 474 115 566 214 
Q 659 314 659 666 
L 659 2675 
L 134 2675 
L 134 2880 
z
" transform="scale(0.015625)"/>
      <path id="STIXGeneral-Regular-6f" d="M 3008 1478 
Q 3008 806 2608 371 
Q 2208 -64 1568 -64 
Q 979 -64 582 368 
Q 186 800 186 1459 
Q 186 2125 582 2534 
Q 979 2944 1626 2944 
Q 2221 2944 2614 2537 
Q 3008 2131 3008 1478 
z
M 2432 1306 
Q 2432 2035 2112 2445 
Q 1856 2765 1504 2765 
Q 1171 2765 966 2493 
Q 762 2221 762 1747 
Q 762 928 1101 435 
Q 1318 115 1677 115 
Q 2029 115 2230 432 
Q 2432 749 2432 1306 
z
" transform="scale(0.015625)"/>
      <path id="STIXGeneral-Regular-72" d="M 1024 2931 
L 1024 2342 
Q 1267 2688 1430 2816 
Q 1594 2944 1792 2944 
Q 1958 2944 2051 2854 
Q 2144 2765 2144 2605 
Q 2144 2470 2077 2393 
Q 2010 2317 1894 2317 
Q 1773 2317 1638 2445 
Q 1536 2541 1472 2541 
Q 1338 2541 1181 2355 
Q 1024 2170 1024 2016 
L 1024 576 
Q 1024 301 1133 205 
Q 1242 109 1568 96 
L 1568 0 
L 32 0 
L 32 96 
Q 339 154 412 224 
Q 486 294 486 538 
L 486 2138 
Q 486 2349 438 2435 
Q 390 2522 269 2522 
Q 166 2522 45 2496 
L 45 2598 
Q 448 2726 992 2944 
L 1024 2931 
z
" transform="scale(0.015625)"/>
      <path id="STIXGeneral-Regular-77" d="M 4442 2880 
L 4442 2784 
Q 4346 2752 4301 2691 
Q 4256 2630 4179 2438 
L 3296 224 
Q 3168 -90 3117 -90 
Q 3085 -90 3062 -48 
Q 3040 -6 2963 186 
L 2381 1696 
L 1664 160 
Q 1549 -90 1504 -90 
Q 1446 -90 1338 192 
L 474 2381 
Q 378 2630 314 2700 
Q 250 2771 134 2784 
L 134 2880 
L 1286 2880 
L 1286 2784 
Q 1120 2765 1056 2720 
Q 992 2675 992 2573 
Q 992 2477 1030 2381 
L 1664 710 
L 2246 1984 
L 2118 2342 
Q 2029 2598 1942 2681 
Q 1856 2765 1677 2784 
L 1677 2880 
L 2976 2880 
L 2976 2784 
Q 2752 2752 2678 2707 
Q 2605 2662 2605 2560 
Q 2605 2458 2714 2176 
L 3251 742 
L 3827 2163 
Q 3936 2432 3936 2592 
Q 3936 2669 3875 2710 
Q 3814 2752 3654 2784 
L 3654 2880 
L 4442 2880 
z
" transform="scale(0.015625)"/>
      <path id="STIXGeneral-Regular-61" d="M 2829 422 
L 2829 243 
Q 2586 -64 2253 -64 
Q 1888 -64 1843 403 
L 1837 403 
Q 1427 -64 909 -64 
Q 608 -64 422 112 
Q 237 288 237 602 
Q 237 1050 685 1350 
Q 992 1555 1837 1869 
L 1837 2214 
Q 1837 2502 1699 2646 
Q 1562 2790 1338 2790 
Q 1146 2790 1018 2697 
Q 890 2605 890 2477 
Q 890 2419 909 2348 
Q 928 2278 928 2208 
Q 928 2112 841 2029 
Q 755 1946 634 1946 
Q 525 1946 441 2029 
Q 358 2112 358 2240 
Q 358 2547 685 2752 
Q 986 2944 1421 2944 
Q 1939 2944 2176 2656 
Q 2291 2522 2323 2384 
Q 2355 2246 2355 1946 
L 2355 723 
Q 2355 301 2554 301 
Q 2682 301 2829 422 
z
M 1837 813 
L 1837 1715 
Q 1248 1510 1018 1293 
Q 800 1094 800 800 
Q 800 557 921 432 
Q 1043 307 1242 307 
Q 1453 307 1613 410 
Q 1747 506 1792 589 
Q 1837 672 1837 813 
z
" transform="scale(0.015625)"/>
      <path id="STIXGeneral-Regular-64" d="M 3142 269 
L 2202 -64 
L 2176 -45 
L 2176 365 
Q 1869 -64 1357 -64 
Q 826 -64 499 317 
Q 173 698 173 1312 
Q 173 1990 563 2467 
Q 954 2944 1504 2944 
Q 1850 2944 2176 2669 
L 2176 3667 
Q 2176 3866 2118 3930 
Q 2061 3994 1882 3994 
Q 1792 3994 1741 3987 
L 1741 4090 
Q 2323 4243 2682 4371 
L 2714 4358 
L 2714 730 
Q 2714 506 2768 435 
Q 2822 365 2995 365 
Q 3034 365 3142 371 
L 3142 269 
z
M 2176 653 
L 2176 2125 
Q 2176 2381 1981 2573 
Q 1786 2765 1523 2765 
Q 1158 2765 940 2438 
Q 723 2112 723 1568 
Q 723 979 963 624 
Q 1203 269 1606 269 
Q 1907 269 2080 474 
Q 2176 582 2176 653 
z
" transform="scale(0.015625)"/>
     </defs>
     <use xlink:href="#STIXGeneral-Regular-66"/>
     <use xlink:href="#STIXGeneral-Regular-6f" transform="translate(33.299988 0)"/>
     <use xlink:href="#STIXGeneral-Regular-72" transform="translate(83.299973 0)"/>
     <use xlink:href="#STIXGeneral-Regular-77" transform="translate(116.59996 0)"/>
     <use xlink:href="#STIXGeneral-Regular-61" transform="translate(188.799942 0)"/>
     <use xlink:href="#STIXGeneral-Regular-72" transform="translate(233.199936 0)"/>
     <use xlink:href="#STIXGeneral-Regular-64" transform="translate(266.499924 0)"/>
    </g>
   </g>
   <g id="text_2">
    <!-- $b_0$ -->
    <g style="fill: #2b4f81" transform="translate(220.297392 37.083247) scale(0.09 -0.09)">
     <defs>
      <path id="STIXGeneral-Italic-62" d="M 1043 1856 
L 1050 1856 
Q 1370 2387 1654 2604 
Q 1939 2822 2285 2822 
Q 2618 2822 2822 2617 
Q 3027 2413 3027 2054 
Q 3027 1562 2726 1062 
Q 2426 563 1942 246 
Q 1459 -70 979 -70 
Q 685 -70 416 32 
Q 147 134 147 269 
L 147 307 
L 1056 3654 
Q 1114 3885 1114 3955 
Q 1114 4058 1053 4080 
Q 992 4102 704 4115 
L 704 4224 
Q 1184 4282 1683 4371 
L 1715 4339 
L 1581 3814 
L 1043 1856 
z
M 2483 1958 
Q 2483 2509 2035 2509 
Q 1594 2509 1158 1773 
Q 954 1427 826 1008 
Q 698 589 698 294 
Q 698 77 992 77 
Q 1414 77 1779 454 
Q 2074 762 2278 1187 
Q 2483 1613 2483 1958 
z
" transform="scale(0.015625)"/>
      <path id="STIXGeneral-Regular-30" d="M 3046 2112 
Q 3046 1683 2963 1302 
Q 2880 922 2717 602 
Q 2554 282 2266 96 
Q 1978 -90 1600 -90 
Q 1210 -90 915 108 
Q 621 307 461 640 
Q 301 973 227 1350 
Q 154 1728 154 2150 
Q 154 2746 301 3222 
Q 448 3699 790 4012 
Q 1133 4326 1626 4326 
Q 2253 4326 2649 3712 
Q 3046 3098 3046 2112 
z
M 2432 2080 
Q 2432 3091 2217 3625 
Q 2003 4160 1587 4160 
Q 1190 4160 979 3622 
Q 768 3085 768 2106 
Q 768 1120 979 598 
Q 1190 77 1600 77 
Q 2003 77 2217 598 
Q 2432 1120 2432 2080 
z
" transform="scale(0.015625)"/>
     </defs>
     <use xlink:href="#STIXGeneral-Italic-62" transform="translate(0 0.703125)"/>
     <use xlink:href="#STIXGeneral-Regular-30" transform="translate(49.999985 -12.525) scale(0.7)"/>
    </g>
   </g>
   <g id="text_3">
    <!-- $b_1$ -->
    <g style="fill: #2b4f81" transform="translate(251.210736 37.083247) scale(0.09 -0.09)">
     <defs>
      <path id="STIXGeneral-Regular-31" d="M 2522 0 
L 755 0 
L 755 96 
Q 1107 115 1235 227 
Q 1363 339 1363 608 
L 1363 3482 
Q 1363 3795 1171 3795 
Q 1082 3795 883 3718 
L 710 3654 
L 710 3744 
L 1856 4326 
L 1914 4307 
L 1914 486 
Q 1914 275 2042 185 
Q 2170 96 2522 96 
L 2522 0 
z
" transform="scale(0.015625)"/>
     </defs>
     <use xlink:href="#STIXGeneral-Italic-62" transform="translate(0 0.703125)"/>
     <use xlink:href="#STIXGeneral-Regular-31" transform="translate(49.999985 -12.525) scale(0.7)"/>
    </g>
   </g>
   <g id="text_4">
    <!-- $b_2$ -->
    <g style="fill: #2b4f81" transform="translate(282.12408 37.083247) scale(0.09 -0.09)">
     <defs>
      <path id="STIXGeneral-Regular-32" d="M 3034 877 
L 2688 0 
L 186 0 
L 186 77 
L 1325 1286 
Q 1773 1754 1965 2144 
Q 2157 2534 2157 2950 
Q 2157 3379 1920 3616 
Q 1683 3853 1267 3853 
Q 922 3853 720 3673 
Q 518 3494 326 3021 
L 192 3053 
Q 301 3648 630 3987 
Q 960 4326 1523 4326 
Q 2054 4326 2380 4006 
Q 2707 3686 2707 3200 
Q 2707 2477 1888 1613 
L 832 486 
L 2330 486 
Q 2541 486 2665 569 
Q 2790 653 2944 915 
L 3034 877 
z
" transform="scale(0.015625)"/>
     </defs>
     <use xlink:href="#STIXGeneral-Italic-62" transform="translate(0 0.703125)"/>
     <use xlink:href="#STIXGeneral-Regular-32" transform="translate(49.999985 -12.525) scale(0.7)"/>
    </g>
   </g>
   <g id="text_5">
    <!-- $b_0$ -->
    <g style="fill: #2b4f81" transform="translate(220.297392 62.718703) scale(0.09 -0.09)">
     <use xlink:href="#STIXGeneral-Italic-62" transform="translate(0 0.703125)"/>
     <use xlink:href="#STIXGeneral-Regular-30" transform="translate(49.999985 -12.525) scale(0.7)"/>
    </g>
   </g>
   <g id="text_6">
    <!-- $b_1$ -->
    <g style="fill: #2b4f81" transform="translate(251.210736 62.718703) scale(0.09 -0.09)">
     <use xlink:href="#STIXGeneral-Italic-62" transform="translate(0 0.703125)"/>
     <use xlink:href="#STIXGeneral-Regular-31" transform="translate(49.999985 -12.525) scale(0.7)"/>
    </g>
   </g>
   <g id="text_7">
    <!-- $b_2$ -->
    <g style="fill: #2b4f81" transform="translate(282.12408 62.718703) scale(0.09 -0.09)">
     <use xlink:href="#STIXGeneral-Italic-62" transform="translate(0 0.703125)"/>
     <use xlink:href="#STIXGeneral-Regular-32" transform="translate(49.999985 -12.525) scale(0.7)"/>
    </g>
   </g>
   <g id="text_8">
    <!-- $b_0$ -->
    <g style="fill: #2b4f81" transform="translate(220.297392 88.354159) scale(0.09 -0.09)">
     <use xlink:href="#STIXGeneral-Italic-62" transform="translate(0 0.703125)"/>
     <use xlink:href="#STIXGeneral-Regular-30" transform="translate(49.999985 -12.525) scale(0.7)"/>
    </g>
   </g>
   <g id="text_9">
    <!-- $b_1$ -->
    <g style="fill: #2b4f81" transform="translate(251.210736 88.354159) scale(0.09 -0.09)">
     <use xlink:href="#STIXGeneral-Italic-62" transform="translate(0 0.703125)"/>
     <use xlink:href="#STIXGeneral-Regular-31" transform="translate(49.999985 -12.525) scale(0.7)"/>
    </g>
   </g>
   <g id="text_10">
    <!-- $b_2$ -->
    <g style="fill: #2b4f81" transform="translate(282.12408 88.354159) scale(0.09 -0.09)">
     <use xlink:href="#STIXGeneral-Italic-62" transform="translate(0 0.703125)"/>
     <use xlink:href="#STIXGeneral-Regular-32" transform="translate(49.999985 -12.525) scale(0.7)"/>
    </g>
   </g>
   <g id="text_11">
    <!-- $b_0$ -->
    <g style="fill: #2b4f81" transform="translate(220.297392 113.989615) scale(0.09 -0.09)">
     <use xlink:href="#STIXGeneral-Italic-62" transform="translate(0 0.703125)"/>
     <use xlink:href="#STIXGeneral-Regular-30" transform="translate(49.999985 -12.525) scale(0.7)"/>
    </g>
   </g>
   <g id="text_12">
    <!-- $b_1$ -->
    <g style="fill: #2b4f81" transform="translate(251.210736 113.989615) scale(0.09 -0.09)">
     <use xlink:href="#STIXGeneral-Italic-62" transform="translate(0 0.703125)"/>
     <use xlink:href="#STIXGeneral-Regular-31" transform="translate(49.999985 -12.525) scale(0.7)"/>
    </g>
   </g>
   <g id="text_13">
    <!-- $b_2$ -->
    <g style="fill: #2b4f81" transform="translate(282.12408 113.989615) scale(0.09 -0.09)">
     <use xlink:href="#STIXGeneral-Italic-62" transform="translate(0 0.703125)"/>
     <use xlink:href="#STIXGeneral-Regular-32" transform="translate(49.999985 -12.525) scale(0.7)"/>
    </g>
   </g>
   <g id="text_14">
    <!-- $b$   $(3,)$ -->
    <g style="fill: #1a1a1a" transform="translate(24.16464 54.790267) scale(0.095 -0.095)">
     <defs>
      <path id="STIXGeneral-Regular-20" transform="scale(0.015625)"/>
      <path id="STIXGeneral-Regular-28" d="M 1946 -1030 
L 1869 -1133 
Q 1126 -710 716 32 
Q 307 774 307 1613 
Q 307 3386 1888 4326 
L 1946 4224 
Q 1293 3667 1075 3126 
Q 858 2586 858 1632 
Q 858 685 1082 96 
Q 1306 -493 1946 -1030 
z
" transform="scale(0.015625)"/>
      <path id="STIXGeneral-Regular-33" d="M 390 3264 
L 288 3290 
Q 435 3770 748 4048 
Q 1062 4326 1542 4326 
Q 1990 4326 2265 4083 
Q 2541 3840 2541 3450 
Q 2541 2925 1946 2566 
Q 2298 2413 2477 2227 
Q 2758 1914 2758 1402 
Q 2758 890 2464 506 
Q 2246 211 1840 60 
Q 1434 -90 979 -90 
Q 262 -90 262 275 
Q 262 378 339 442 
Q 416 506 525 506 
Q 685 506 915 339 
Q 1197 141 1466 141 
Q 1818 141 2058 425 
Q 2298 710 2298 1120 
Q 2298 1856 1632 2048 
Q 1434 2112 979 2112 
L 979 2202 
Q 1338 2323 1517 2432 
Q 2035 2726 2035 3290 
Q 2035 3610 1852 3776 
Q 1670 3942 1344 3942 
Q 768 3942 390 3264 
z
" transform="scale(0.015625)"/>
      <path id="STIXGeneral-Regular-2c" d="M 531 -902 
L 467 -781 
Q 998 -422 998 -96 
Q 998 -13 909 -13 
Q 883 -13 822 -25 
Q 762 -38 723 -38 
Q 352 -38 352 288 
Q 352 454 457 553 
Q 563 653 736 653 
Q 954 653 1101 496 
Q 1248 339 1248 96 
Q 1248 -198 1053 -473 
Q 858 -749 531 -902 
z
" transform="scale(0.015625)"/>
      <path id="STIXGeneral-Regular-29" d="M 186 4224 
L 262 4326 
Q 992 3891 1408 3148 
Q 1824 2406 1824 1581 
Q 1824 -166 243 -1133 
L 186 -1030 
Q 845 -486 1059 54 
Q 1274 595 1274 1562 
Q 1274 2534 1059 3120 
Q 845 3706 186 4224 
z
" transform="scale(0.015625)"/>
     </defs>
     <use xlink:href="#STIXGeneral-Italic-62" transform="translate(0 0.703125)"/>
     <use xlink:href="#STIXGeneral-Regular-20" transform="translate(49.999985 0.703125)"/>
     <use xlink:href="#STIXGeneral-Regular-20" transform="translate(74.999969 0.703125)"/>
     <use xlink:href="#STIXGeneral-Regular-20" transform="translate(99.999954 0.703125)"/>
     <use xlink:href="#STIXGeneral-Regular-28" transform="translate(124.999939 0.703125)"/>
     <use xlink:href="#STIXGeneral-Regular-33" transform="translate(158.299927 0.703125)"/>
     <use xlink:href="#STIXGeneral-Regular-2c" transform="translate(208.299911 0.703125)"/>
     <use xlink:href="#STIXGeneral-Regular-29" transform="translate(247.739893 0.703125)"/>
    </g>
   </g>
   <g id="text_15">
    <!-- $b_0$ -->
    <g style="fill: #2b4f81" transform="translate(33.686352 75.536431) scale(0.09 -0.09)">
     <use xlink:href="#STIXGeneral-Italic-62" transform="translate(0 0.703125)"/>
     <use xlink:href="#STIXGeneral-Regular-30" transform="translate(49.999985 -12.525) scale(0.7)"/>
    </g>
   </g>
   <g id="text_16">
    <!-- $b_1$ -->
    <g style="fill: #2b4f81" transform="translate(64.599696 75.536431) scale(0.09 -0.09)">
     <use xlink:href="#STIXGeneral-Italic-62" transform="translate(0 0.703125)"/>
     <use xlink:href="#STIXGeneral-Regular-31" transform="translate(49.999985 -12.525) scale(0.7)"/>
    </g>
   </g>
   <g id="text_17">
    <!-- $b_2$ -->
    <g style="fill: #2b4f81" transform="translate(95.51304 75.536431) scale(0.09 -0.09)">
     <use xlink:href="#STIXGeneral-Italic-62" transform="translate(0 0.703125)"/>
     <use xlink:href="#STIXGeneral-Regular-32" transform="translate(49.999985 -12.525) scale(0.7)"/>
    </g>
   </g>
   <g id="text_18">
    <!-- broadcast to $(4,3)$ -->
    <g style="fill: #1a1a1a" transform="translate(130.210704 64.700575) scale(0.09 -0.09)">
     <defs>
      <path id="STIXGeneral-Regular-62" d="M 979 4358 
L 979 2406 
Q 1082 2650 1315 2797 
Q 1549 2944 1843 2944 
Q 2349 2944 2672 2541 
Q 2995 2138 2995 1536 
Q 2995 832 2566 384 
Q 2138 -64 1498 -64 
Q 1107 -64 774 67 
Q 442 198 442 358 
L 442 3622 
Q 442 3859 384 3926 
Q 326 3994 128 3994 
Q 83 3994 19 3981 
L 19 4090 
L 211 4147 
Q 864 4346 947 4371 
L 979 4358 
z
M 979 2035 
L 979 474 
Q 979 326 1161 233 
Q 1344 141 1600 141 
Q 1978 141 2195 416 
Q 2432 710 2432 1261 
Q 2432 1888 2182 2240 
Q 1971 2541 1613 2541 
Q 1357 2541 1168 2390 
Q 979 2240 979 2035 
z
" transform="scale(0.015625)"/>
      <path id="STIXGeneral-Regular-63" d="M 2547 998 
L 2637 941 
Q 2362 403 2112 205 
Q 1786 -64 1376 -64 
Q 845 -64 502 336 
Q 160 736 160 1357 
Q 160 2170 698 2618 
Q 1094 2944 1562 2944 
Q 1965 2944 2256 2749 
Q 2547 2554 2547 2285 
Q 2547 2176 2457 2096 
Q 2368 2016 2246 2016 
Q 2022 2016 1939 2310 
L 1901 2451 
Q 1850 2630 1773 2694 
Q 1696 2758 1523 2758 
Q 1133 2758 893 2451 
Q 653 2144 653 1645 
Q 653 1094 928 745 
Q 1203 397 1645 397 
Q 1920 397 2118 528 
Q 2317 659 2547 998 
z
" transform="scale(0.015625)"/>
      <path id="STIXGeneral-Regular-73" d="M 998 1926 
L 1664 1523 
Q 1984 1331 2105 1164 
Q 2227 998 2227 736 
Q 2227 416 1961 176 
Q 1696 -64 1331 -64 
Q 1030 -64 864 -6 
Q 691 51 570 51 
Q 461 51 416 -26 
L 333 -26 
L 333 979 
L 435 979 
Q 538 512 730 294 
Q 922 77 1248 77 
Q 1485 77 1632 211 
Q 1779 346 1779 550 
Q 1779 845 1440 1030 
L 1094 1222 
Q 326 1651 326 2150 
Q 326 2522 566 2730 
Q 806 2938 1210 2938 
Q 1491 2938 1638 2867 
Q 1754 2816 1818 2816 
Q 1862 2816 1920 2880 
L 1990 2880 
L 2022 2010 
L 1926 2010 
Q 1818 2445 1654 2621 
Q 1491 2797 1203 2797 
Q 986 2797 854 2688 
Q 723 2579 723 2362 
Q 723 2253 796 2128 
Q 870 2003 998 1926 
z
" transform="scale(0.015625)"/>
      <path id="STIXGeneral-Regular-74" d="M 1702 493 
L 1786 422 
Q 1478 -64 1011 -64 
Q 448 -64 448 749 
L 448 2675 
L 109 2675 
Q 83 2694 83 2720 
Q 83 2771 192 2842 
Q 435 2982 813 3526 
Q 826 3546 874 3606 
Q 922 3667 941 3706 
Q 986 3706 986 3622 
L 986 2880 
L 1632 2880 
L 1632 2675 
L 986 2675 
L 986 845 
Q 986 538 1062 403 
Q 1139 269 1318 269 
Q 1510 269 1702 493 
z
" transform="scale(0.015625)"/>
      <path id="STIXGeneral-Regular-34" d="M 3027 1069 
L 2368 1069 
L 2368 0 
L 1869 0 
L 1869 1069 
L 77 1069 
L 77 1478 
L 2086 4326 
L 2368 4326 
L 2368 1478 
L 3027 1478 
L 3027 1069 
z
M 1869 1478 
L 1869 3674 
L 333 1478 
L 1869 1478 
z
" transform="scale(0.015625)"/>
     </defs>
     <use xlink:href="#STIXGeneral-Regular-62" transform="translate(0 0.703125)"/>
     <use xlink:href="#STIXGeneral-Regular-72" transform="translate(49.999985 0.703125)"/>
     <use xlink:href="#STIXGeneral-Regular-6f" transform="translate(83.299973 0.703125)"/>
     <use xlink:href="#STIXGeneral-Regular-61" transform="translate(133.299957 0.703125)"/>
     <use xlink:href="#STIXGeneral-Regular-64" transform="translate(177.699951 0.703125)"/>
     <use xlink:href="#STIXGeneral-Regular-63" transform="translate(227.699936 0.703125)"/>
     <use xlink:href="#STIXGeneral-Regular-61" transform="translate(272.09993 0.703125)"/>
     <use xlink:href="#STIXGeneral-Regular-73" transform="translate(316.499924 0.703125)"/>
     <use xlink:href="#STIXGeneral-Regular-74" transform="translate(355.399918 0.703125)"/>
     <use xlink:href="#STIXGeneral-Regular-20" transform="translate(383.199905 0.703125)"/>
     <use xlink:href="#STIXGeneral-Regular-74" transform="translate(408.19989 0.703125)"/>
     <use xlink:href="#STIXGeneral-Regular-6f" transform="translate(435.999878 0.703125)"/>
     <use xlink:href="#STIXGeneral-Regular-20" transform="translate(485.999863 0.703125)"/>
     <use xlink:href="#STIXGeneral-Regular-28" transform="translate(510.999847 0.703125)"/>
     <use xlink:href="#STIXGeneral-Regular-34" transform="translate(544.299835 0.703125)"/>
     <use xlink:href="#STIXGeneral-Regular-2c" transform="translate(594.29982 0.703125)"/>
     <use xlink:href="#STIXGeneral-Regular-33" transform="translate(633.739801 0.703125)"/>
     <use xlink:href="#STIXGeneral-Regular-29" transform="translate(683.739786 0.703125)"/>
    </g>
   </g>
   <g id="text_19">
    <!-- backward -->
    <g style="fill: #8a8a8a" transform="translate(24.16464 152.442799) scale(0.09 -0.09)">
     <defs>
      <path id="STIXGeneral-Regular-6b" d="M 3232 0 
L 1837 0 
L 1837 96 
L 1958 96 
Q 2093 96 2093 192 
Q 2093 250 2022 339 
L 1062 1606 
L 1062 429 
Q 1062 262 1142 185 
Q 1222 109 1414 102 
L 1542 96 
L 1542 0 
L 45 0 
L 45 96 
Q 390 154 457 214 
Q 525 275 525 525 
L 525 3610 
Q 525 3840 467 3920 
Q 410 4000 250 4000 
Q 211 4000 45 3987 
L 45 4090 
L 237 4141 
Q 621 4243 1037 4371 
L 1062 4358 
L 1062 1670 
L 1939 2451 
Q 2086 2586 2086 2675 
Q 2086 2739 2019 2761 
Q 1952 2784 1766 2790 
L 1766 2880 
L 3072 2880 
L 3072 2784 
Q 2752 2784 2505 2646 
Q 2259 2509 1690 1978 
L 1504 1805 
L 2483 563 
Q 2829 122 3232 96 
L 3232 0 
z
" transform="scale(0.015625)"/>
     </defs>
     <use xlink:href="#STIXGeneral-Regular-62"/>
     <use xlink:href="#STIXGeneral-Regular-61" transform="translate(49.999985 0)"/>
     <use xlink:href="#STIXGeneral-Regular-63" transform="translate(94.399979 0)"/>
     <use xlink:href="#STIXGeneral-Regular-6b" transform="translate(138.799973 0)"/>
     <use xlink:href="#STIXGeneral-Regular-77" transform="translate(188.799957 0)"/>
     <use xlink:href="#STIXGeneral-Regular-61" transform="translate(260.999939 0)"/>
     <use xlink:href="#STIXGeneral-Regular-72" transform="translate(305.399933 0)"/>
     <use xlink:href="#STIXGeneral-Regular-64" transform="translate(338.699921 0)"/>
    </g>
   </g>
   <g id="text_20">
    <!-- $\partial L/\partial(\mathrm{out})$   $(4,3)$ -->
    <g style="fill: #1a1a1a" transform="translate(210.77568 163.363963) scale(0.095 -0.095)">
     <defs>
      <path id="STIXGeneral-Regular-2202" d="M 1248 4000 
L 1184 4128 
Q 1427 4275 1811 4275 
Q 3014 4275 3014 2611 
Q 3014 2298 2963 1965 
Q 2912 1632 2777 1261 
Q 2643 890 2438 598 
Q 2234 307 1894 118 
Q 1555 -70 1126 -70 
Q 685 -70 470 224 
Q 256 518 256 966 
Q 256 1664 739 2224 
Q 1222 2784 1901 2784 
Q 2342 2784 2515 2477 
Q 2560 2726 2560 2925 
Q 2560 3418 2365 3750 
Q 2170 4083 1722 4083 
Q 1510 4083 1248 4000 
z
M 2349 2042 
Q 2349 2323 2230 2457 
Q 2112 2592 1958 2592 
Q 1491 2592 1132 2013 
Q 774 1434 774 749 
Q 774 122 1203 122 
Q 1549 122 1827 499 
Q 2106 877 2253 1414 
Q 2349 1766 2349 2042 
z
" transform="scale(0.015625)"/>
      <path id="STIXGeneral-Italic-4c" d="M 3578 1152 
L 3206 0 
L -51 0 
L -51 102 
Q 218 128 301 211 
Q 384 294 474 602 
L 1254 3405 
Q 1325 3642 1325 3802 
Q 1325 3942 1225 4000 
Q 1126 4058 832 4077 
L 832 4179 
L 2579 4179 
L 2579 4077 
Q 2285 4058 2147 3955 
Q 2010 3853 1933 3584 
L 1165 838 
Q 1101 595 1101 493 
Q 1101 346 1241 288 
Q 1382 230 1773 230 
Q 2266 230 2480 275 
Q 2694 320 2925 474 
Q 3187 646 3450 1190 
L 3578 1152 
z
" transform="scale(0.015625)"/>
      <path id="STIXGeneral-Regular-2f" d="M 1837 4326 
L 378 -90 
L -58 -90 
L 1408 4326 
L 1837 4326 
z
" transform="scale(0.015625)"/>
      <path id="STIXGeneral-Regular-75" d="M 3072 320 
L 3072 230 
Q 2573 96 2195 -58 
L 2163 -38 
L 2163 486 
L 2150 486 
Q 1747 -64 1235 -64 
Q 870 -64 662 160 
Q 454 384 454 755 
L 454 2362 
Q 454 2598 371 2688 
Q 288 2778 58 2790 
L 58 2880 
L 992 2880 
L 992 813 
Q 992 595 1123 451 
Q 1254 307 1446 307 
Q 1760 307 1984 506 
Q 2067 582 2099 649 
Q 2131 717 2131 877 
L 2131 2355 
Q 2131 2605 2041 2678 
Q 1952 2752 1658 2771 
L 1658 2880 
L 2669 2880 
L 2669 685 
Q 2669 461 2742 390 
Q 2816 320 3034 320 
L 3072 320 
z
" transform="scale(0.015625)"/>
     </defs>
     <use xlink:href="#STIXGeneral-Regular-2202" transform="translate(0 0.40625)"/>
     <use xlink:href="#STIXGeneral-Italic-4c" transform="translate(47.099991 0.40625)"/>
     <use xlink:href="#STIXGeneral-Regular-2f" transform="translate(102.699982 0.40625)"/>
     <use xlink:href="#STIXGeneral-Regular-2202" transform="translate(130.499969 0.40625)"/>
     <use xlink:href="#STIXGeneral-Regular-28" transform="translate(177.59996 0.40625)"/>
     <use xlink:href="#STIXGeneral-Regular-6f" transform="translate(210.899948 0.40625)"/>
     <use xlink:href="#STIXGeneral-Regular-75" transform="translate(260.899933 0.40625)"/>
     <use xlink:href="#STIXGeneral-Regular-74" transform="translate(310.899918 0.40625)"/>
     <use xlink:href="#STIXGeneral-Regular-29" transform="translate(338.699905 0.40625)"/>
     <use xlink:href="#STIXGeneral-Regular-20" transform="translate(371.999893 0.40625)"/>
     <use xlink:href="#STIXGeneral-Regular-20" transform="translate(396.999878 0.40625)"/>
     <use xlink:href="#STIXGeneral-Regular-20" transform="translate(421.999863 0.40625)"/>
     <use xlink:href="#STIXGeneral-Regular-28" transform="translate(446.999847 0.40625)"/>
     <use xlink:href="#STIXGeneral-Regular-34" transform="translate(480.299835 0.40625)"/>
     <use xlink:href="#STIXGeneral-Regular-2c" transform="translate(530.29982 0.40625)"/>
     <use xlink:href="#STIXGeneral-Regular-33" transform="translate(569.739801 0.40625)"/>
     <use xlink:href="#STIXGeneral-Regular-29" transform="translate(619.739786 0.40625)"/>
    </g>
   </g>
   <g id="text_21">
    <!-- $g_{00}$ -->
    <g style="fill: #9e2b25" transform="translate(218.722392 184.110127) scale(0.09 -0.09)">
     <defs>
      <path id="STIXGeneral-Italic-67" d="M 3014 2342 
L 2701 2342 
Q 2758 2227 2758 2016 
Q 2758 1613 2390 1289 
Q 2022 966 1574 966 
Q 1459 966 1376 986 
Q 1357 992 1331 992 
Q 1248 992 1174 909 
Q 1101 826 1101 730 
Q 1101 576 1555 461 
Q 2464 243 2464 -352 
Q 2464 -781 2105 -1049 
Q 1747 -1318 1120 -1318 
Q 621 -1318 336 -1142 
Q 51 -966 51 -627 
Q 51 -378 195 -202 
Q 339 -26 800 250 
Q 627 352 627 499 
Q 627 806 1120 1037 
Q 614 1216 614 1728 
Q 614 2202 1004 2512 
Q 1395 2822 1901 2822 
Q 2272 2822 2528 2643 
Q 2598 2592 2630 2592 
L 3014 2592 
L 3014 2342 
z
M 2253 2227 
Q 2253 2477 2166 2579 
Q 2080 2682 1894 2682 
Q 1587 2682 1350 2362 
Q 1114 2042 1114 1581 
Q 1114 1357 1216 1229 
Q 1318 1101 1498 1101 
Q 1818 1101 2042 1478 
Q 2253 1837 2253 2227 
z
M 2080 -576 
Q 2080 -352 1878 -201 
Q 1677 -51 1165 109 
Q 1011 154 947 179 
Q 902 179 752 57 
Q 602 -64 531 -154 
Q 403 -314 403 -525 
Q 403 -1178 1216 -1178 
Q 1594 -1178 1837 -1002 
Q 2080 -826 2080 -576 
z
" transform="scale(0.015625)"/>
     </defs>
     <use xlink:href="#STIXGeneral-Italic-67" transform="translate(0 0.90625)"/>
     <use xlink:href="#STIXGeneral-Regular-30" transform="translate(49.999985 -12.321875) scale(0.7)"/>
     <use xlink:href="#STIXGeneral-Regular-30" transform="translate(84.999974 -12.321875) scale(0.7)"/>
    </g>
   </g>
   <g id="text_22">
    <!-- $g_{01}$ -->
    <g style="fill: #9e2b25" transform="translate(249.635736 184.110127) scale(0.09 -0.09)">
     <use xlink:href="#STIXGeneral-Italic-67" transform="translate(0 0.90625)"/>
     <use xlink:href="#STIXGeneral-Regular-30" transform="translate(49.999985 -12.321875) scale(0.7)"/>
     <use xlink:href="#STIXGeneral-Regular-31" transform="translate(84.999974 -12.321875) scale(0.7)"/>
    </g>
   </g>
   <g id="text_23">
    <!-- $g_{02}$ -->
    <g style="fill: #9e2b25" transform="translate(280.54908 184.110127) scale(0.09 -0.09)">
     <use xlink:href="#STIXGeneral-Italic-67" transform="translate(0 0.90625)"/>
     <use xlink:href="#STIXGeneral-Regular-30" transform="translate(49.999985 -12.321875) scale(0.7)"/>
     <use xlink:href="#STIXGeneral-Regular-32" transform="translate(84.999974 -12.321875) scale(0.7)"/>
    </g>
   </g>
   <g id="text_24">
    <!-- $g_{10}$ -->
    <g style="fill: #9e2b25" transform="translate(218.722392 209.745583) scale(0.09 -0.09)">
     <use xlink:href="#STIXGeneral-Italic-67" transform="translate(0 0.90625)"/>
     <use xlink:href="#STIXGeneral-Regular-31" transform="translate(49.999985 -12.321875) scale(0.7)"/>
     <use xlink:href="#STIXGeneral-Regular-30" transform="translate(84.999974 -12.321875) scale(0.7)"/>
    </g>
   </g>
   <g id="text_25">
    <!-- $g_{11}$ -->
    <g style="fill: #9e2b25" transform="translate(249.635736 209.745583) scale(0.09 -0.09)">
     <use xlink:href="#STIXGeneral-Italic-67" transform="translate(0 0.90625)"/>
     <use xlink:href="#STIXGeneral-Regular-31" transform="translate(49.999985 -12.321875) scale(0.7)"/>
     <use xlink:href="#STIXGeneral-Regular-31" transform="translate(84.999974 -12.321875) scale(0.7)"/>
    </g>
   </g>
   <g id="text_26">
    <!-- $g_{12}$ -->
    <g style="fill: #9e2b25" transform="translate(280.54908 209.745583) scale(0.09 -0.09)">
     <use xlink:href="#STIXGeneral-Italic-67" transform="translate(0 0.90625)"/>
     <use xlink:href="#STIXGeneral-Regular-31" transform="translate(49.999985 -12.321875) scale(0.7)"/>
     <use xlink:href="#STIXGeneral-Regular-32" transform="translate(84.999974 -12.321875) scale(0.7)"/>
    </g>
   </g>
   <g id="text_27">
    <!-- $g_{20}$ -->
    <g style="fill: #9e2b25" transform="translate(218.722392 235.381039) scale(0.09 -0.09)">
     <use xlink:href="#STIXGeneral-Italic-67" transform="translate(0 0.90625)"/>
     <use xlink:href="#STIXGeneral-Regular-32" transform="translate(49.999985 -12.321875) scale(0.7)"/>
     <use xlink:href="#STIXGeneral-Regular-30" transform="translate(84.999974 -12.321875) scale(0.7)"/>
    </g>
   </g>
   <g id="text_28">
    <!-- $g_{21}$ -->
    <g style="fill: #9e2b25" transform="translate(249.635736 235.381039) scale(0.09 -0.09)">
     <use xlink:href="#STIXGeneral-Italic-67" transform="translate(0 0.90625)"/>
     <use xlink:href="#STIXGeneral-Regular-32" transform="translate(49.999985 -12.321875) scale(0.7)"/>
     <use xlink:href="#STIXGeneral-Regular-31" transform="translate(84.999974 -12.321875) scale(0.7)"/>
    </g>
   </g>
   <g id="text_29">
    <!-- $g_{22}$ -->
    <g style="fill: #9e2b25" transform="translate(280.54908 235.381039) scale(0.09 -0.09)">
     <use xlink:href="#STIXGeneral-Italic-67" transform="translate(0 0.90625)"/>
     <use xlink:href="#STIXGeneral-Regular-32" transform="translate(49.999985 -12.321875) scale(0.7)"/>
     <use xlink:href="#STIXGeneral-Regular-32" transform="translate(84.999974 -12.321875) scale(0.7)"/>
    </g>
   </g>
   <g id="text_30">
    <!-- $g_{30}$ -->
    <g style="fill: #9e2b25" transform="translate(218.722392 261.016495) scale(0.09 -0.09)">
     <use xlink:href="#STIXGeneral-Italic-67" transform="translate(0 0.90625)"/>
     <use xlink:href="#STIXGeneral-Regular-33" transform="translate(49.999985 -12.321875) scale(0.7)"/>
     <use xlink:href="#STIXGeneral-Regular-30" transform="translate(84.999974 -12.321875) scale(0.7)"/>
    </g>
   </g>
   <g id="text_31">
    <!-- $g_{31}$ -->
    <g style="fill: #9e2b25" transform="translate(249.635736 261.016495) scale(0.09 -0.09)">
     <use xlink:href="#STIXGeneral-Italic-67" transform="translate(0 0.90625)"/>
     <use xlink:href="#STIXGeneral-Regular-33" transform="translate(49.999985 -12.321875) scale(0.7)"/>
     <use xlink:href="#STIXGeneral-Regular-31" transform="translate(84.999974 -12.321875) scale(0.7)"/>
    </g>
   </g>
   <g id="text_32">
    <!-- $g_{32}$ -->
    <g style="fill: #9e2b25" transform="translate(280.54908 261.016495) scale(0.09 -0.09)">
     <use xlink:href="#STIXGeneral-Italic-67" transform="translate(0 0.90625)"/>
     <use xlink:href="#STIXGeneral-Regular-33" transform="translate(49.999985 -12.321875) scale(0.7)"/>
     <use xlink:href="#STIXGeneral-Regular-32" transform="translate(84.999974 -12.321875) scale(0.7)"/>
    </g>
   </g>
   <g id="text_33">
    <!-- $\partial L/\partial b$   $(3,)$ -->
    <g style="fill: #1a1a1a" transform="translate(24.16464 201.817147) scale(0.095 -0.095)">
     <use xlink:href="#STIXGeneral-Regular-2202" transform="translate(0 0.703125)"/>
     <use xlink:href="#STIXGeneral-Italic-4c" transform="translate(47.099991 0.703125)"/>
     <use xlink:href="#STIXGeneral-Regular-2f" transform="translate(102.699982 0.703125)"/>
     <use xlink:href="#STIXGeneral-Regular-2202" transform="translate(130.499969 0.703125)"/>
     <use xlink:href="#STIXGeneral-Italic-62" transform="translate(177.59996 0.703125)"/>
     <use xlink:href="#STIXGeneral-Regular-20" transform="translate(227.599945 0.703125)"/>
     <use xlink:href="#STIXGeneral-Regular-20" transform="translate(252.59993 0.703125)"/>
     <use xlink:href="#STIXGeneral-Regular-20" transform="translate(277.599915 0.703125)"/>
     <use xlink:href="#STIXGeneral-Regular-28" transform="translate(302.599899 0.703125)"/>
     <use xlink:href="#STIXGeneral-Regular-33" transform="translate(335.899887 0.703125)"/>
     <use xlink:href="#STIXGeneral-Regular-2c" transform="translate(385.899872 0.703125)"/>
     <use xlink:href="#STIXGeneral-Regular-29" transform="translate(425.339853 0.703125)"/>
    </g>
   </g>
   <g id="text_34">
    <!-- $\sum_i g_{i0}$ -->
    <g style="fill: #9e2b25" transform="translate(35.92422 219.829092) scale(0.085 -0.085)">
     <defs>
      <path id="STIXGeneral-Regular-2211" d="M 5478 256 
L 5139 -1658 
L 371 -1658 
L 2880 1606 
L 531 4883 
L 5312 4883 
L 5312 3277 
L 5120 3277 
Q 5018 3949 4765 4205 
Q 4512 4461 3891 4461 
L 1843 4461 
L 3699 1958 
L 1549 -819 
L 4198 -819 
Q 4698 -819 4934 -550 
Q 5171 -282 5286 256 
L 5478 256 
z
" transform="scale(0.015625)"/>
      <path id="STIXGeneral-Italic-69" d="M 1690 3834 
Q 1690 3699 1597 3603 
Q 1504 3507 1376 3507 
Q 1235 3507 1152 3600 
Q 1069 3693 1069 3846 
Q 1069 3994 1155 4090 
Q 1242 4186 1370 4186 
Q 1498 4186 1594 4080 
Q 1690 3974 1690 3834 
z
M 1421 730 
L 1504 659 
Q 1235 243 1049 86 
Q 864 -70 627 -70 
Q 314 -70 314 282 
Q 314 467 454 992 
L 762 2125 
Q 819 2330 819 2406 
Q 819 2502 745 2528 
Q 672 2554 410 2560 
L 410 2662 
Q 704 2688 1434 2822 
L 1459 2803 
L 858 608 
Q 794 390 794 326 
Q 794 230 883 230 
Q 1043 230 1421 730 
z
" transform="scale(0.015625)"/>
     </defs>
     <use xlink:href="#STIXGeneral-Regular-2211" transform="translate(0 0.703125)"/>
     <use xlink:href="#STIXGeneral-Italic-69" transform="translate(32 -89.7375) scale(0.7)"/>
     <use xlink:href="#STIXGeneral-Italic-67" transform="translate(79.796875 0.703125)"/>
     <use xlink:href="#STIXGeneral-Italic-69" transform="translate(129.79686 -12.525) scale(0.7)"/>
     <use xlink:href="#STIXGeneral-Regular-30" transform="translate(149.256851 -12.525) scale(0.7)"/>
    </g>
   </g>
   <g id="text_35">
    <!-- $\sum_i g_{i1}$ -->
    <g style="fill: #9e2b25" transform="translate(79.2783 219.829092) scale(0.085 -0.085)">
     <use xlink:href="#STIXGeneral-Regular-2211" transform="translate(0 0.703125)"/>
     <use xlink:href="#STIXGeneral-Italic-69" transform="translate(32 -89.7375) scale(0.7)"/>
     <use xlink:href="#STIXGeneral-Italic-67" transform="translate(79.796875 0.703125)"/>
     <use xlink:href="#STIXGeneral-Italic-69" transform="translate(129.79686 -12.525) scale(0.7)"/>
     <use xlink:href="#STIXGeneral-Regular-31" transform="translate(149.256851 -12.525) scale(0.7)"/>
    </g>
   </g>
   <g id="text_36">
    <!-- $\sum_i g_{i2}$ -->
    <g style="fill: #9e2b25" transform="translate(122.63238 219.829092) scale(0.085 -0.085)">
     <use xlink:href="#STIXGeneral-Regular-2211" transform="translate(0 0.703125)"/>
     <use xlink:href="#STIXGeneral-Italic-69" transform="translate(32 -89.7375) scale(0.7)"/>
     <use xlink:href="#STIXGeneral-Italic-67" transform="translate(79.796875 0.703125)"/>
     <use xlink:href="#STIXGeneral-Italic-69" transform="translate(129.79686 -12.525) scale(0.7)"/>
     <use xlink:href="#STIXGeneral-Regular-32" transform="translate(149.256851 -12.525) scale(0.7)"/>
    </g>
   </g>
   <g id="text_37">
    <!-- sum over axis 0 -->
    <g style="fill: #1a1a1a" transform="translate(152.68843 211.83597) scale(0.085 -0.085)">
     <defs>
      <path id="STIXGeneral-Regular-6d" d="M 4960 0 
L 3565 0 
L 3565 96 
Q 3834 122 3907 208 
Q 3981 294 3981 576 
L 3981 1894 
Q 3981 2278 3869 2444 
Q 3757 2611 3488 2611 
Q 3264 2611 3107 2521 
Q 2950 2432 2803 2221 
L 2803 608 
Q 2803 301 2896 201 
Q 2989 102 3264 96 
L 3264 0 
L 1830 0 
L 1830 96 
Q 2112 115 2189 188 
Q 2266 262 2266 550 
L 2266 1901 
Q 2266 2611 1850 2611 
Q 1670 2611 1468 2531 
Q 1267 2451 1171 2336 
Q 1088 2240 1088 2227 
L 1088 448 
Q 1088 243 1177 176 
Q 1267 109 1523 96 
L 1523 0 
L 102 0 
L 102 96 
Q 371 102 460 195 
Q 550 288 550 563 
L 550 2150 
Q 550 2387 499 2480 
Q 448 2573 326 2573 
Q 230 2573 122 2547 
L 122 2656 
Q 557 2778 1011 2944 
L 1062 2925 
L 1062 2451 
L 1075 2451 
Q 1363 2752 1584 2848 
Q 1805 2944 2054 2944 
Q 2560 2944 2733 2406 
Q 3232 2944 3776 2944 
Q 4518 2944 4518 1792 
L 4518 493 
Q 4518 282 4582 202 
Q 4646 122 4794 109 
L 4960 96 
L 4960 0 
z
" transform="scale(0.015625)"/>
      <path id="STIXGeneral-Regular-76" d="M 3053 2880 
L 3053 2784 
Q 2906 2771 2835 2688 
Q 2765 2605 2637 2285 
L 1818 230 
Q 1690 -90 1638 -90 
Q 1587 -90 1523 77 
Q 1510 96 1497 141 
Q 1485 186 1472 211 
L 704 2048 
Q 499 2534 403 2652 
Q 307 2771 122 2784 
L 122 2880 
L 1376 2880 
L 1376 2784 
Q 1210 2771 1146 2732 
Q 1082 2694 1082 2611 
Q 1082 2509 1139 2368 
L 1792 730 
L 2426 2387 
Q 2464 2483 2464 2579 
Q 2464 2758 2163 2784 
L 2163 2880 
L 3053 2880 
z
" transform="scale(0.015625)"/>
      <path id="STIXGeneral-Regular-65" d="M 2611 1050 
L 2714 1005 
Q 2330 -64 1376 -64 
Q 813 -64 486 329 
Q 160 723 160 1389 
Q 160 2074 525 2509 
Q 890 2944 1485 2944 
Q 2061 2944 2374 2502 
Q 2560 2246 2592 1773 
L 621 1773 
Q 646 1370 700 1158 
Q 755 947 915 730 
Q 1184 378 1626 378 
Q 1939 378 2153 531 
Q 2368 685 2611 1050 
z
M 634 1978 
L 1939 1978 
Q 1882 2381 1750 2547 
Q 1619 2714 1312 2714 
Q 1043 2714 864 2525 
Q 685 2336 634 1978 
z
" transform="scale(0.015625)"/>
      <path id="STIXGeneral-Regular-78" d="M 3066 0 
L 1779 0 
L 1779 96 
Q 1939 109 1987 137 
Q 2035 166 2035 250 
Q 2035 307 1997 365 
L 1414 1261 
L 909 474 
Q 781 275 781 211 
Q 781 96 1037 96 
L 1037 0 
L 109 0 
L 109 96 
Q 269 109 355 169 
Q 442 230 576 422 
L 1306 1478 
L 704 2400 
Q 557 2624 454 2704 
Q 352 2784 211 2784 
L 154 2784 
L 154 2880 
L 1478 2880 
L 1478 2784 
Q 1203 2778 1203 2643 
Q 1203 2509 1498 2074 
Q 1581 1958 1587 1946 
Q 1619 1990 1779 2227 
Q 1811 2285 1856 2349 
Q 1901 2413 1923 2451 
Q 1946 2490 1971 2528 
Q 1997 2566 2006 2595 
Q 2016 2624 2016 2643 
Q 2016 2765 1760 2784 
L 1760 2880 
L 2771 2880 
L 2771 2784 
Q 2445 2771 2253 2502 
L 1722 1734 
L 2541 480 
Q 2790 96 3066 96 
L 3066 0 
z
" transform="scale(0.015625)"/>
      <path id="STIXGeneral-Regular-69" d="M 1152 4045 
Q 1152 3904 1056 3811 
Q 960 3718 819 3718 
Q 685 3718 592 3811 
Q 499 3904 499 4045 
Q 499 4179 595 4275 
Q 691 4371 826 4371 
Q 966 4371 1059 4275 
Q 1152 4179 1152 4045 
z
M 1619 0 
L 102 0 
L 102 96 
Q 435 115 521 211 
Q 608 307 608 666 
L 608 2118 
Q 608 2342 563 2432 
Q 518 2522 397 2522 
Q 243 2522 128 2490 
L 128 2592 
L 1120 2944 
L 1146 2918 
L 1146 672 
Q 1146 314 1226 218 
Q 1306 122 1619 96 
L 1619 0 
z
" transform="scale(0.015625)"/>
     </defs>
     <use xlink:href="#STIXGeneral-Regular-73"/>
     <use xlink:href="#STIXGeneral-Regular-75" transform="translate(38.899994 0)"/>
     <use xlink:href="#STIXGeneral-Regular-6d" transform="translate(88.899979 0)"/>
     <use xlink:href="#STIXGeneral-Regular-20" transform="translate(166.699966 0)"/>
     <use xlink:href="#STIXGeneral-Regular-6f" transform="translate(191.699951 0)"/>
     <use xlink:href="#STIXGeneral-Regular-76" transform="translate(241.699936 0)"/>
     <use xlink:href="#STIXGeneral-Regular-65" transform="translate(291.699921 0)"/>
     <use xlink:href="#STIXGeneral-Regular-72" transform="translate(336.099915 0)"/>
     <use xlink:href="#STIXGeneral-Regular-20" transform="translate(369.399902 0)"/>
     <use xlink:href="#STIXGeneral-Regular-61" transform="translate(394.399887 0)"/>
     <use xlink:href="#STIXGeneral-Regular-78" transform="translate(438.799881 0)"/>
     <use xlink:href="#STIXGeneral-Regular-69" transform="translate(488.799866 0)"/>
     <use xlink:href="#STIXGeneral-Regular-73" transform="translate(516.599854 0)"/>
     <use xlink:href="#STIXGeneral-Regular-20" transform="translate(555.499847 0)"/>
     <use xlink:href="#STIXGeneral-Regular-30" transform="translate(580.499832 0)"/>
    </g>
   </g>
   <g id="text_38">
    <!-- grad_b = grad_out.sum(axis=0) -->
    <g style="fill: #1a1a1a" transform="translate(121.495648 288.290466) scale(0.085 -0.085)">
     <defs>
      <path id="DejaVuSansMono-67" d="M 2681 1778 
Q 2681 2425 2470 2761 
Q 2259 3097 1856 3097 
Q 1434 3097 1212 2761 
Q 991 2425 991 1778 
Q 991 1131 1214 792 
Q 1438 453 1863 453 
Q 2259 453 2470 793 
Q 2681 1134 2681 1778 
z
M 3256 225 
Q 3256 -563 2884 -969 
Q 2513 -1375 1791 -1375 
Q 1553 -1375 1293 -1331 
Q 1034 -1288 775 -1203 
L 775 -634 
Q 1081 -778 1331 -847 
Q 1581 -916 1791 -916 
Q 2256 -916 2468 -662 
Q 2681 -409 2681 141 
L 2681 166 
L 2681 556 
Q 2544 263 2306 119 
Q 2069 -25 1728 -25 
Q 1116 -25 750 465 
Q 384 956 384 1778 
Q 384 2603 750 3093 
Q 1116 3584 1728 3584 
Q 2066 3584 2300 3450 
Q 2534 3316 2681 3034 
L 2681 3488 
L 3256 3488 
L 3256 225 
z
" transform="scale(0.015625)"/>
      <path id="DejaVuSansMono-72" d="M 3609 2778 
Q 3425 2922 3234 2987 
Q 3044 3053 2816 3053 
Q 2278 3053 1993 2715 
Q 1709 2378 1709 1741 
L 1709 0 
L 1131 0 
L 1131 3500 
L 1709 3500 
L 1709 2816 
Q 1853 3188 2151 3386 
Q 2450 3584 2859 3584 
Q 3072 3584 3256 3531 
Q 3441 3478 3609 3366 
L 3609 2778 
z
" transform="scale(0.015625)"/>
      <path id="DejaVuSansMono-61" d="M 2194 1759 
L 2003 1759 
Q 1500 1759 1245 1582 
Q 991 1406 991 1056 
Q 991 741 1181 566 
Q 1372 391 1709 391 
Q 2184 391 2456 720 
Q 2728 1050 2731 1631 
L 2731 1759 
L 2194 1759 
z
M 3309 1997 
L 3309 0 
L 2731 0 
L 2731 519 
Q 2547 206 2267 57 
Q 1988 -91 1588 -91 
Q 1053 -91 734 211 
Q 416 513 416 1019 
Q 416 1603 808 1906 
Q 1200 2209 1959 2209 
L 2731 2209 
L 2731 2300 
Q 2728 2719 2518 2908 
Q 2309 3097 1850 3097 
Q 1556 3097 1256 3012 
Q 956 2928 672 2766 
L 672 3341 
Q 991 3463 1283 3523 
Q 1575 3584 1850 3584 
Q 2284 3584 2592 3456 
Q 2900 3328 3091 3072 
Q 3209 2916 3259 2686 
Q 3309 2456 3309 1997 
z
" transform="scale(0.015625)"/>
      <path id="DejaVuSansMono-64" d="M 2681 3053 
L 2681 4863 
L 3256 4863 
L 3256 0 
L 2681 0 
L 2681 441 
Q 2538 181 2298 45 
Q 2059 -91 1747 -91 
Q 1113 -91 748 401 
Q 384 894 384 1759 
Q 384 2613 750 3098 
Q 1116 3584 1747 3584 
Q 2063 3584 2303 3448 
Q 2544 3313 2681 3053 
z
M 991 1747 
Q 991 1078 1203 737 
Q 1416 397 1831 397 
Q 2247 397 2464 740 
Q 2681 1084 2681 1747 
Q 2681 2413 2464 2755 
Q 2247 3097 1831 3097 
Q 1416 3097 1203 2756 
Q 991 2416 991 1747 
z
" transform="scale(0.015625)"/>
      <path id="DejaVuSansMono-5f" d="M 3853 -1259 
L 3853 -1509 
L 0 -1509 
L 0 -1259 
L 3853 -1259 
z
" transform="scale(0.015625)"/>
      <path id="DejaVuSansMono-62" d="M 2869 1747 
Q 2869 2416 2656 2756 
Q 2444 3097 2028 3097 
Q 1609 3097 1393 2755 
Q 1178 2413 1178 1747 
Q 1178 1084 1393 740 
Q 1609 397 2028 397 
Q 2444 397 2656 737 
Q 2869 1078 2869 1747 
z
M 1178 3053 
Q 1316 3309 1558 3446 
Q 1800 3584 2119 3584 
Q 2750 3584 3112 3098 
Q 3475 2613 3475 1759 
Q 3475 894 3111 401 
Q 2747 -91 2113 -91 
Q 1800 -91 1561 45 
Q 1322 181 1178 441 
L 1178 0 
L 603 0 
L 603 4863 
L 1178 4863 
L 1178 3053 
z
" transform="scale(0.015625)"/>
      <path id="DejaVuSansMono-20" transform="scale(0.015625)"/>
      <path id="DejaVuSansMono-3d" d="M 275 1638 
L 3578 1638 
L 3578 1100 
L 275 1100 
L 275 1638 
z
M 275 2906 
L 3578 2906 
L 3578 2375 
L 275 2375 
L 275 2906 
z
" transform="scale(0.015625)"/>
      <path id="DejaVuSansMono-6f" d="M 1925 3097 
Q 1488 3097 1263 2756 
Q 1038 2416 1038 1747 
Q 1038 1081 1263 739 
Q 1488 397 1925 397 
Q 2366 397 2591 739 
Q 2816 1081 2816 1747 
Q 2816 2416 2591 2756 
Q 2366 3097 1925 3097 
z
M 1925 3584 
Q 2653 3584 3039 3112 
Q 3425 2641 3425 1747 
Q 3425 850 3040 379 
Q 2656 -91 1925 -91 
Q 1197 -91 812 379 
Q 428 850 428 1747 
Q 428 2641 812 3112 
Q 1197 3584 1925 3584 
z
" transform="scale(0.015625)"/>
      <path id="DejaVuSansMono-75" d="M 609 1325 
L 609 3494 
L 1184 3494 
L 1184 1325 
Q 1184 853 1351 631 
Q 1519 409 1869 409 
Q 2275 409 2490 695 
Q 2706 981 2706 1516 
L 2706 3494 
L 3284 3494 
L 3284 0 
L 2706 0 
L 2706 525 
Q 2553 222 2289 65 
Q 2025 -91 1672 -91 
Q 1134 -91 871 261 
Q 609 613 609 1325 
z
" transform="scale(0.015625)"/>
      <path id="DejaVuSansMono-74" d="M 1919 4494 
L 1919 3500 
L 3225 3500 
L 3225 3053 
L 1919 3053 
L 1919 1153 
Q 1919 766 2066 612 
Q 2213 459 2578 459 
L 3225 459 
L 3225 0 
L 2522 0 
Q 1875 0 1609 259 
Q 1344 519 1344 1153 
L 1344 3053 
L 409 3053 
L 409 3500 
L 1344 3500 
L 1344 4494 
L 1919 4494 
z
" transform="scale(0.015625)"/>
      <path id="DejaVuSansMono-2e" d="M 1528 953 
L 2316 953 
L 2316 0 
L 1528 0 
L 1528 953 
z
" transform="scale(0.015625)"/>
      <path id="DejaVuSansMono-73" d="M 3041 3378 
L 3041 2816 
Q 2794 2959 2544 3031 
Q 2294 3103 2034 3103 
Q 1644 3103 1451 2976 
Q 1259 2850 1259 2591 
Q 1259 2356 1403 2240 
Q 1547 2125 2119 2016 
L 2350 1972 
Q 2778 1891 2998 1647 
Q 3219 1403 3219 1013 
Q 3219 494 2850 201 
Q 2481 -91 1825 -91 
Q 1566 -91 1281 -36 
Q 997 19 666 128 
L 666 722 
Q 988 556 1281 473 
Q 1575 391 1838 391 
Q 2219 391 2428 545 
Q 2638 700 2638 978 
Q 2638 1378 1872 1531 
L 1847 1538 
L 1631 1581 
Q 1134 1678 906 1908 
Q 678 2138 678 2534 
Q 678 3038 1018 3311 
Q 1359 3584 1991 3584 
Q 2272 3584 2531 3532 
Q 2791 3481 3041 3378 
z
" transform="scale(0.015625)"/>
      <path id="DejaVuSansMono-6d" d="M 2113 3144 
Q 2219 3369 2383 3476 
Q 2547 3584 2778 3584 
Q 3200 3584 3373 3257 
Q 3547 2931 3547 2028 
L 3547 0 
L 3022 0 
L 3022 2003 
Q 3022 2744 2939 2923 
Q 2856 3103 2638 3103 
Q 2388 3103 2295 2911 
Q 2203 2719 2203 2003 
L 2203 0 
L 1678 0 
L 1678 2003 
Q 1678 2753 1589 2928 
Q 1500 3103 1269 3103 
Q 1041 3103 952 2911 
Q 863 2719 863 2003 
L 863 0 
L 341 0 
L 341 3500 
L 863 3500 
L 863 3200 
Q 966 3388 1120 3486 
Q 1275 3584 1472 3584 
Q 1709 3584 1867 3475 
Q 2025 3366 2113 3144 
z
" transform="scale(0.015625)"/>
      <path id="DejaVuSansMono-28" d="M 2766 4856 
Q 2350 4144 2145 3436 
Q 1941 2728 1941 2009 
Q 1941 1294 2145 584 
Q 2350 -125 2766 -844 
L 2266 -844 
Q 1794 -100 1562 604 
Q 1331 1309 1331 2009 
Q 1331 2706 1562 3412 
Q 1794 4119 2266 4856 
L 2766 4856 
z
" transform="scale(0.015625)"/>
      <path id="DejaVuSansMono-78" d="M 3494 3500 
L 2241 1825 
L 3616 0 
L 2950 0 
L 1925 1403 
L 903 0 
L 238 0 
L 1613 1825 
L 359 3500 
L 997 3500 
L 1925 2234 
L 2847 3500 
L 3494 3500 
z
" transform="scale(0.015625)"/>
      <path id="DejaVuSansMono-69" d="M 800 3500 
L 2272 3500 
L 2272 447 
L 3413 447 
L 3413 0 
L 556 0 
L 556 447 
L 1697 447 
L 1697 3053 
L 800 3053 
L 800 3500 
z
M 1697 4863 
L 2272 4863 
L 2272 4134 
L 1697 4134 
L 1697 4863 
z
" transform="scale(0.015625)"/>
      <path id="DejaVuSansMono-30" d="M 1509 2344 
Q 1509 2516 1629 2641 
Q 1750 2766 1919 2766 
Q 2094 2766 2219 2641 
Q 2344 2516 2344 2344 
Q 2344 2169 2220 2047 
Q 2097 1925 1919 1925 
Q 1744 1925 1626 2044 
Q 1509 2163 1509 2344 
z
M 1925 4250 
Q 1484 4250 1267 3775 
Q 1050 3300 1050 2328 
Q 1050 1359 1267 884 
Q 1484 409 1925 409 
Q 2369 409 2586 884 
Q 2803 1359 2803 2328 
Q 2803 3300 2586 3775 
Q 2369 4250 1925 4250 
z
M 1925 4750 
Q 2672 4750 3055 4137 
Q 3438 3525 3438 2328 
Q 3438 1134 3055 521 
Q 2672 -91 1925 -91 
Q 1178 -91 797 521 
Q 416 1134 416 2328 
Q 416 3525 797 4137 
Q 1178 4750 1925 4750 
z
" transform="scale(0.015625)"/>
      <path id="DejaVuSansMono-29" d="M 1088 4856 
L 1588 4856 
Q 2059 4119 2290 3412 
Q 2522 2706 2522 2009 
Q 2522 1306 2290 600 
Q 2059 -106 1588 -844 
L 1088 -844 
Q 1503 -119 1708 590 
Q 1913 1300 1913 2009 
Q 1913 2722 1708 3431 
Q 1503 4141 1088 4856 
z
" transform="scale(0.015625)"/>
     </defs>
     <use xlink:href="#DejaVuSansMono-67"/>
     <use xlink:href="#DejaVuSansMono-72" transform="translate(60.205078 0)"/>
     <use xlink:href="#DejaVuSansMono-61" transform="translate(120.410156 0)"/>
     <use xlink:href="#DejaVuSansMono-64" transform="translate(180.615234 0)"/>
     <use xlink:href="#DejaVuSansMono-5f" transform="translate(240.820312 0)"/>
     <use xlink:href="#DejaVuSansMono-62" transform="translate(301.025391 0)"/>
     <use xlink:href="#DejaVuSansMono-20" transform="translate(361.230469 0)"/>
     <use xlink:href="#DejaVuSansMono-3d" transform="translate(421.435547 0)"/>
     <use xlink:href="#DejaVuSansMono-20" transform="translate(481.640625 0)"/>
     <use xlink:href="#DejaVuSansMono-67" transform="translate(541.845703 0)"/>
     <use xlink:href="#DejaVuSansMono-72" transform="translate(602.050781 0)"/>
     <use xlink:href="#DejaVuSansMono-61" transform="translate(662.255859 0)"/>
     <use xlink:href="#DejaVuSansMono-64" transform="translate(722.460938 0)"/>
     <use xlink:href="#DejaVuSansMono-5f" transform="translate(782.666016 0)"/>
     <use xlink:href="#DejaVuSansMono-6f" transform="translate(842.871094 0)"/>
     <use xlink:href="#DejaVuSansMono-75" transform="translate(903.076172 0)"/>
     <use xlink:href="#DejaVuSansMono-74" transform="translate(963.28125 0)"/>
     <use xlink:href="#DejaVuSansMono-2e" transform="translate(1023.486328 0)"/>
     <use xlink:href="#DejaVuSansMono-73" transform="translate(1083.691406 0)"/>
     <use xlink:href="#DejaVuSansMono-75" transform="translate(1143.896484 0)"/>
     <use xlink:href="#DejaVuSansMono-6d" transform="translate(1204.101562 0)"/>
     <use xlink:href="#DejaVuSansMono-28" transform="translate(1264.306641 0)"/>
     <use xlink:href="#DejaVuSansMono-61" transform="translate(1324.511719 0)"/>
     <use xlink:href="#DejaVuSansMono-78" transform="translate(1384.716797 0)"/>
     <use xlink:href="#DejaVuSansMono-69" transform="translate(1444.921875 0)"/>
     <use xlink:href="#DejaVuSansMono-73" transform="translate(1505.126953 0)"/>
     <use xlink:href="#DejaVuSansMono-3d" transform="translate(1565.332031 0)"/>
     <use xlink:href="#DejaVuSansMono-30" transform="translate(1625.537109 0)"/>
     <use xlink:href="#DejaVuSansMono-29" transform="translate(1685.742188 0)"/>
    </g>
   </g>
  </g>
 </g>
 <defs>
  <clipPath id="p65498c4051">
   <rect x="7.2" y="7.2" width="376.992" height="288.288"/>
  </clipPath>
 </defs>
</svg>
